<?xml version="1.0" standalone="no"?>
<!DOCTYPE svg PUBLIC "-//W3C//DTD SVG 1.1//EN" "http://www.w3.org/Graphics/SVG/1.1/DTD/svg11.dtd" >
<svg xmlns="http://www.w3.org/2000/svg">
<metadata>
Created by FontPrep 20130207 at Tue Mar 10 13:13:27 2015
 By Joseba Alonso
Digitized data copyright (c) 2010-2011, Google Corporation.
</metadata>
<defs>
<font id="739d871936d0f8f5b026e1e8435da2e7" horiz-adv-x='1024' >
  <font-face 
    font-family="OpenSans-BoldItalic"
    font-weight="700"
    font-style="italic"
    font-stretch="normal"
    units-per-em="2048"
    panose-1="2 11 8 6 3 5 4 2 2 4"
    ascent="1638"
    descent="-410"
    x-height="1118"
    cap-height="1462"
    bbox="-1051 -600 2648 2189"
    underline-thickness="102"
    underline-position="-103"
    slope="-12"
    unicode-range="U+0020-FFFD"
  />
<missing-glyph horiz-adv-x="1229" 
d="M297 104h633v1254h-633v-1254zM193 1462h841v-1462h-841v1462z" />
    <glyph glyph-name="ff" unicode="ff" horiz-adv-x="1460" 
d="M-45 -492q-104 0 -174 25v242q61 -21 119 -21t103.5 40t64.5 130l204 965h-163l30 145l183 84l18 84q41 190 138.5 277.5t273.5 87.5q131 0 235 -49l-80 -224q-69 31 -129 31q-116 0 -143 -145l-12 -62h395l18 84q41 190 138.5 277.5t273.5 87.5q131 0 235 -49l-79 -224
q-69 31 -130 31q-114 0 -143 -145l-12 -62h219l-49 -229h-219l-215 -1010q-77 -371 -404 -371q-104 0 -174 25v242q61 -21 115 -21q136 0 172 170l205 965h-396l-215 -1010q-77 -371 -403 -371z" />
    <glyph glyph-name="uniFB01" unicode="fi" horiz-adv-x="1352" 
d="M-45 -492q-104 0 -174 25v242q61 -21 119 -21t103 40q46 40 65 130l204 965h-163l30 145l183 84l18 84q40 190 138 278t274 87q131 0 235 -49l-80 -224q-69 31 -129 31q-116 0 -143 -145l-12 -62h219l-49 -229h-220l-215 -1010q-77 -371 -403 -371zM1081 0h-301l237 1118
h301zM1247 1556q149 0 149 -120q0 -80 -44 -130t-136 -49q-151 0 -151 123q-1 88 47 132t135 44z" />
    <glyph glyph-name="uniFB02" unicode="fl" horiz-adv-x="1352" 
d="M-45 -492q-104 0 -174 25v242q61 -21 119 -21t103 40q46 40 65 130l204 965h-163l30 145l183 84l18 84q40 190 138 278t274 87q131 0 235 -49l-80 -224q-69 31 -129 31q-116 0 -143 -145l-12 -62h219l-49 -229h-220l-215 -1010q-77 -371 -403 -371zM1081 0h-301l330 1556
h301z" />
    <glyph glyph-name="uniFB03" unicode="ffi" horiz-adv-x="2048" 
d="M1944 1556q149 0 149 -120q0 -80 -44 -129.5t-136 -49.5q-152 0 -152 123q0 87 48 131.5t135 44.5zM1778 0h-301l237 1118h301zM-45 -492q-104 0 -174 25v242q61 -21 119 -21t103.5 40t64.5 130l204 965h-163l30 145l183 84l18 84q41 190 138.5 277.5t273.5 87.5
q131 0 235 -49l-80 -224q-69 31 -129 31q-116 0 -143 -145l-12 -62h395l18 84q41 190 138.5 277.5t273.5 87.5q131 0 235 -49l-79 -224q-69 31 -130 31q-114 0 -143 -145l-12 -62h219l-49 -229h-219l-215 -1010q-77 -371 -404 -371q-104 0 -174 25v242q61 -21 115 -21
q136 0 172 170l205 965h-396l-215 -1010q-77 -371 -403 -371z" />
    <glyph glyph-name="uniFB04" unicode="ffl" horiz-adv-x="2048" 
d="M1778 0h-301l329 1556h301zM-45 -492q-104 0 -174 25v242q61 -21 119 -21t103.5 40t64.5 130l204 965h-163l30 145l183 84l18 84q41 190 138.5 277.5t273.5 87.5q131 0 235 -49l-80 -224q-69 31 -129 31q-116 0 -143 -145l-12 -62h395l18 84q41 190 138.5 277.5
t273.5 87.5q131 0 235 -49l-79 -224q-69 31 -130 31q-114 0 -143 -145l-12 -62h219l-49 -229h-219l-215 -1010q-77 -371 -404 -371q-104 0 -174 25v242q61 -21 115 -21q136 0 172 170l205 965h-396l-215 -1010q-77 -371 -403 -371z" />
    <glyph glyph-name=".notdef" horiz-adv-x="1229" 
d="M297 104h633v1254h-633v-1254zM193 1462h841v-1462h-841v1462z" />
    <glyph glyph-name=".null" horiz-adv-x="0" 
 />
    <glyph glyph-name="nonmarkingreturn" horiz-adv-x="1044" 
 />
    <glyph glyph-name="space" unicode=" " horiz-adv-x="532" 
 />
    <glyph glyph-name="exclam" unicode="!" horiz-adv-x="586" 
d="M214 313q164 0 165 -154q0 -78 -55 -132t-144 -54q-155 -1 -155 153q0 78 53.5 132.5t135.5 54.5zM391 485h-241l157 977h340z" />
    <glyph glyph-name="quotedbl" unicode="&#x22;" horiz-adv-x="928" 
d="M954 1462l-151 -528h-199l74 528h276zM549 1462l-152 -528h-196l71 528h277z" />
    <glyph glyph-name="numbersign" unicode="#" horiz-adv-x="1323" 
d="M553 614h197l69 232h-196zM1036 846l-69 -232h258l-19 -206h-297l-116 -408h-220l117 408h-194l-115 -408h-215l113 408h-238l18 206h277l70 232h-252l18 209h289l119 407h217l-117 -407h199l116 407h215l-116 -407h239l-18 -209h-279z" />
    <glyph glyph-name="dollar" unicode="$" horiz-adv-x="1128" 
d="M502 1022q0 -79 80 -111l51 246q-131 -15 -131 -135zM735 457q0 93 -84 127l-57 -262q63 9 102 45t39 90zM207 1004q0 173 127 279.5t350 121.5l35 151h139l-33 -151q166 -22 295 -90l-106 -232q-132 65 -242 74l-63 -299q131 -51 228 -124.5t97 -247.5t-125.5 -281.5
t-367.5 -124.5l-39 -199h-140l44 201q-209 12 -355 86v266q198 -107 404 -117l71 322q-319 119 -319 365z" />
    <glyph glyph-name="percent" unicode="%" horiz-adv-x="1753" 
d="M1679 582q0 -160 -54 -306t-148.5 -220t-226.5 -74t-204.5 79t-72.5 239t53 305.5t148.5 219.5t225.5 74t204.5 -78.5t74.5 -238.5zM1376 690q-39 0 -75 -56t-59 -154t-23 -195t55 -97q41 0 77 55t59.5 155t23.5 196t-58 96zM1554 1462l-1083 -1462h-240l1088 1462h235z
M821 1161q0 -162 -56 -306t-151.5 -217t-225.5 -73t-201.5 83.5t-71.5 244.5t83.5 375.5t336.5 214.5q137 0 211.5 -80t74.5 -242zM518 1274q-63 0 -110.5 -128.5t-47.5 -277.5q0 -96 56 -96q65 0 112 131t47 275q0 96 -57 96z" />
    <glyph glyph-name="ampersand" unicode="&#x26;" horiz-adv-x="1450" 
d="M860 1142q0 110 -113 109q-53 0 -89.5 -46.5t-36.5 -106.5q0 -113 41 -178q113 59 155.5 111.5t42.5 110.5zM383 394q0 -72 45.5 -115t138.5 -43t199 59l-225 328q-88 -51 -123 -104t-35 -125zM510 -20q-218 0 -330 97.5t-112 280.5q0 145 78.5 248.5t273.5 200.5
q-76 130 -76 258q0 195 117.5 307.5t301.5 112.5t281 -82.5t97 -224.5q0 -280 -365 -426l195 -263q91 117 159 295h300q-133 -313 -310 -497l205 -287h-350l-72 98q-175 -118 -393 -118z" />
    <glyph glyph-name="quotesingle" unicode="'" horiz-adv-x="522" 
d="M549 1462l-152 -528h-196l71 528h277z" />
    <glyph glyph-name="parenleft" unicode="(" horiz-adv-x="694" 
d="M340 270q0 -308 117 -594h-234q-149 266 -149 605t122.5 626.5t381.5 554.5h262q-500 -545 -500 -1192z" />
    <glyph glyph-name="parenright" unicode=")" horiz-adv-x="694" 
d="M618 857q0 -341 -124 -629.5t-379 -551.5h-262q499 545 499 1192q0 307 -116 594h233q149 -264 149 -605z" />
    <glyph glyph-name="asterisk" unicode="*" horiz-adv-x="1116" 
d="M885 1522l-113 -353l387 29l-18 -254l-338 43l160 -336l-246 -73l-90 337l-197 -278l-207 164l275 248l-326 92l86 237l338 -174l33 369z" />
    <glyph glyph-name="plus" unicode="+" horiz-adv-x="1128" 
d="M475 612h-366v219h366v369h219v-369h367v-219h-367v-364h-219v364z" />
    <glyph glyph-name="comma" unicode="," horiz-adv-x="569" 
d="M377 238l8 -23q-118 -255 -262 -479h-225q74 167 194 502h285z" />
    <glyph glyph-name="hyphen" unicode="-" horiz-adv-x="659" 
d="M41 424l53 250h524l-53 -250h-524z" />
    <glyph glyph-name="period" unicode="." horiz-adv-x="584" 
d="M214 313q164 0 165 -154q0 -78 -55 -132t-144 -54q-155 -1 -155 153q0 78 53.5 132.5t135.5 54.5z" />
    <glyph glyph-name="slash" unicode="/" horiz-adv-x="862" 
d="M1014 1462l-809 -1462h-295l809 1462h295z" />
    <glyph glyph-name="zero" unicode="0" horiz-adv-x="1128" 
d="M807 1033q0 202 -123 202q-80 0 -149.5 -104t-117.5 -302.5t-48 -340.5t27.5 -200.5t103.5 -58.5t145 106t115.5 301t46.5 397zM711 1485q399 1 399 -471t-168.5 -753t-472.5 -281q-198 0 -300.5 122t-102.5 392t84 510t228 360.5t333 120.5z" />
    <glyph glyph-name="one" unicode="1" horiz-adv-x="1128" 
d="M688 0h-305l180 829q35 152 76 287q-56 -50 -324 -217l-133 215l566 348h249z" />
    <glyph glyph-name="two" unicode="2" horiz-adv-x="1128" 
d="M788 1066q0 80 -41 119.5t-109 39.5t-137 -33.5t-171 -118.5l-146 203q132 112 252 159.5t250 47.5q190 0 301 -98t111 -259q0 -200 -122.5 -341.5t-307.5 -292.5l-269 -222v-10h568l-54 -260h-962l43 213l477 424q180 159 248.5 254t68.5 175z" />
    <glyph glyph-name="three" unicode="3" horiz-adv-x="1128" 
d="M364 225q181 0 266 63.5t85 176.5q0 172 -258 172h-138l46 221h73q167 0 263 62t96 172q0 67 -43 104t-121 37q-134 0 -287 -100l-127 204q124 81 232.5 113.5t246.5 32.5q190 0 298 -90.5t108 -244.5t-94.5 -260.5t-261.5 -135.5v-4q131 -26 198.5 -106.5t67.5 -207.5
t-74 -232t-212 -163.5t-352 -58.5t-362 79v267q169 -101 350 -101z" />
    <glyph glyph-name="four" unicode="4" horiz-adv-x="1128" 
d="M616 543l58 248q12 58 40 164t42 141h-6q-35 -63 -132 -181l-313 -372h311zM1028 303h-170l-63 -303h-293l63 303h-590l48 234l770 925h311l-195 -919h170z" />
    <glyph glyph-name="five" unicode="5" horiz-adv-x="1128" 
d="M707 496q0 188 -224 188q-102 0 -213 -33l-104 78l207 733h755l-55 -262h-489l-88 -293q72 15 127 15q183 0 289 -103t106 -279t-71.5 -300.5t-208.5 -192t-330 -67.5q-117 0 -218.5 23t-162.5 58v269q174 -99 340 -99t253 71t87 194z" />
    <glyph glyph-name="six" unicode="6" horiz-adv-x="1128" 
d="M530 227q99 0 161.5 94t62.5 236q0 71 -34 113.5t-98 42.5t-151.5 -57t-87.5 -234q0 -91 40 -143t107 -52zM88 452q0 218 61 412t221.5 407.5t559.5 213.5q125 0 223 -27l-51 -246q-84 25 -191 25q-194 0 -313.5 -108t-185.5 -345h4q115 166 311 166q157 0 242.5 -97
t85.5 -269t-106 -388t-433 -216q-212 0 -320 127t-108 345z" />
    <glyph glyph-name="seven" unicode="7" horiz-adv-x="1128" 
d="M78 0l737 1202h-629l56 260h975l-41 -194l-752 -1268h-346z" />
    <glyph glyph-name="eight" unicode="8" horiz-adv-x="1128" 
d="M688 1260q-70 0 -115 -46.5t-45 -119.5q0 -132 123 -201q185 72 185 221q0 68 -39 107t-109 39zM352 388q0 -86 50 -133.5t139 -47.5t143.5 53.5t54.5 132.5t-36.5 137.5t-120.5 112.5q-230 -89 -230 -255zM709 1485q135 0 227.5 -42t141 -118t48.5 -192t-80.5 -215.5
t-230.5 -151.5q217 -141 217 -365q0 -122 -63.5 -218.5t-181 -149.5t-273.5 -53q-214 0 -336.5 100t-122.5 270q0 298 348 426q-165 132 -165 299q0 119 58 212.5t168 145.5t245 52z" />
    <glyph glyph-name="nine" unicode="9" horiz-adv-x="1128" 
d="M650 1237q-70 0 -120.5 -42t-78 -114t-27.5 -156t37.5 -128.5t101.5 -44.5t146 58t82 237q0 84 -35.5 137t-105.5 53zM678 1485q414 0 414 -505q0 -259 -99 -512t-264 -370.5t-403 -117.5q-128 0 -240 32v256q112 -41 230 -41t204.5 49t144 138.5t99.5 257.5h-4
q-110 -158 -284 -158t-263.5 103.5t-89.5 277.5t109 382t446 208z" />
    <glyph glyph-name="colon" unicode=":" horiz-adv-x="584" 
d="M214 313q164 0 165 -154q0 -78 -55 -132t-144 -54q-155 -1 -155 153q0 78 53.5 132.5t135.5 54.5zM399 1139q162 -1 162 -155q0 -78 -54.5 -131.5t-144.5 -53.5q-155 0 -155 153q0 80 55.5 133.5t136.5 53.5z" />
    <glyph glyph-name="semicolon" unicode=";" horiz-adv-x="584" 
d="M399 1139q162 -1 162 -155q0 -78 -54.5 -131.5t-144.5 -53.5q-155 0 -155 153q0 80 55.5 133.5t136.5 53.5zM385 215q-118 -255 -262 -479h-225q74 167 194 502h285z" />
    <glyph glyph-name="less" unicode="&#x3c;" horiz-adv-x="1128" 
d="M1061 203l-952 438v143l952 496v-240l-643 -317l643 -281v-239z" />
    <glyph glyph-name="equal" unicode="=" horiz-adv-x="1128" 
d="M109 418v219h952v-219h-952zM109 807v217h952v-217h-952z" />
    <glyph glyph-name="greater" unicode="&#x3e;" horiz-adv-x="1128" 
d="M109 442l643 281l-643 317v240l952 -496v-143l-952 -438v239z" />
    <glyph glyph-name="question" unicode="?" horiz-adv-x="940" 
d="M358 313q162 0 162 -154q0 -78 -55 -132t-143 -54q-156 1 -156 155q0 78 55 131.5t137 53.5zM711 1118q0 119 -133 119q-50 0 -106.5 -16t-201.5 -84l-92 221q230 125 426 125t299 -87.5t103 -244.5t-82.5 -243t-182.5 -153t-132.5 -97t-52.5 -64.5t-38 -108.5h-258
l14 78q19 103 73.5 177t175.5 156t154.5 125.5t33.5 96.5z" />
    <glyph glyph-name="at" unicode="@" horiz-adv-x="1753" 
d="M977 889q-64 0 -127.5 -51.5t-100 -137t-36.5 -162.5q0 -151 94 -151q141 0 213 270l57 222q-36 10 -100 10zM813 4q230 0 453 86v-186q-230 -90 -456 -90t-387 85.5t-246 241.5t-85 359q0 279 120.5 497t343 341.5t518.5 123.5t477.5 -163.5t181.5 -458.5
q0 -173 -64 -321t-177.5 -231t-254.5 -83q-88 0 -144.5 38.5t-72.5 108.5h-6q-95 -147 -260 -147q-127 0 -198 79.5t-71 227.5t67.5 278t187.5 205.5t286 75.5t309 -55l-106 -420q-27 -108 -27 -141q0 -68 58 -68q66 0 124 64t92.5 171t34.5 214q0 213 -123.5 325.5
t-343.5 112.5t-383 -94t-254.5 -266t-91.5 -404t134 -369t364 -137z" />
    <glyph glyph-name="A" unicode="A" horiz-adv-x="1286" 
d="M791 1211v36q-44 -120 -109 -254l-188 -385h333l-26 350q-10 131 -10 253zM842 348h-473l-172 -348h-320l766 1468h373l147 -1468h-297z" />
    <glyph glyph-name="B" unicode="B" horiz-adv-x="1270" 
d="M592 256q117 0 183.5 58t66.5 161q0 162 -183 162h-165l-82 -381h180zM694 883q242 0 242 188q0 137 -170 137h-152l-69 -325h149zM788 1462q463 0 463 -325q0 -150 -83 -247.5t-236 -129.5v-6q100 -26 159.5 -96.5t59.5 -180.5q0 -229 -153 -353t-423 -124h-522
l309 1462h426z" />
    <glyph glyph-name="C" unicode="C" horiz-adv-x="1253" 
d="M905 1227q-132 0 -237.5 -81t-169.5 -238.5t-64 -331.5t68.5 -255t216.5 -81t340 77v-260q-199 -77 -400 -77q-254 0 -395 149.5t-141 417.5t104 488.5t278 335t400 114.5q125 0 222 -22.5t208 -82.5l-118 -250q-106 59 -175 78t-137 19z" />
    <glyph glyph-name="D" unicode="D" horiz-adv-x="1386" 
d="M518 256q148 0 258 76t172 223.5t62 319.5q0 333 -281 333h-115l-202 -952h106zM1323 902q0 -274 -98 -480t-283.5 -314t-437.5 -108h-451l309 1462h396q270 0 417.5 -143t147.5 -417z" />
    <glyph glyph-name="E" unicode="E" horiz-adv-x="1110" 
d="M870 0h-817l309 1462h818l-54 -254h-512l-67 -321h477l-55 -254h-477l-80 -377h512z" />
    <glyph glyph-name="F" unicode="F" horiz-adv-x="1087" 
d="M358 0h-305l309 1462h814l-54 -254h-508l-79 -377h473l-56 -253h-473z" />
    <glyph glyph-name="G" unicode="G" horiz-adv-x="1413" 
d="M962 1223q-150 0 -270.5 -83t-189 -236.5t-68.5 -327.5t72.5 -255t222.5 -81q76 0 170 24l66 299h-267l56 258h563l-162 -762q-230 -79 -490 -79t-401 147t-141 419t107 488t301 333.5t430 117.5t428 -99l-115 -251q-162 88 -312 88z" />
    <glyph glyph-name="H" unicode="H" horiz-adv-x="1434" 
d="M1135 0h-306l134 631h-471l-134 -631h-305l309 1462h306l-121 -573h471l121 573h305z" />
    <glyph glyph-name="I" unicode="I" horiz-adv-x="659" 
d="M53 0l312 1462h305l-312 -1462h-305z" />
    <glyph glyph-name="J" unicode="J" horiz-adv-x="678" 
d="M-135 -430q-94 0 -187 27v253q88 -20 176 -20q185 0 238 252l293 1380h305l-303 -1423q-52 -245 -175.5 -357t-346.5 -112z" />
    <glyph glyph-name="K" unicode="K" horiz-adv-x="1255" 
d="M1141 0h-338l-211 592l-125 -70l-109 -522h-305l309 1462h306l-152 -702l158 205l409 497h361l-594 -700z" />
    <glyph glyph-name="L" unicode="L" horiz-adv-x="1061" 
d="M53 0l309 1462h306l-256 -1206h512l-54 -256h-817z" />
    <glyph glyph-name="M" unicode="M" horiz-adv-x="1802" 
d="M838 369l551 1093h423l-309 -1462h-280l145 692q53 247 105 441h-5l-569 -1133h-281l-61 1133h-4q-11 -88 -38 -231t-187 -902h-275l309 1462h404l68 -1093h4z" />
    <glyph glyph-name="N" unicode="N" horiz-adv-x="1546" 
d="M1063 385q29 185 219 1077h274l-309 -1462h-342l-356 1106h-6l-4 -32q-32 -216 -66 -386l-145 -688h-275l309 1462h357l340 -1077h4z" />
    <glyph glyph-name="O" unicode="O" horiz-adv-x="1495" 
d="M434 557q0 -317 187.5 -317t287 87t155.5 246t56 357q0 142 -65 219.5t-185 77.5t-220.5 -91.5t-158 -251.5t-57.5 -327zM1432 926q0 -271 -99 -494.5t-271 -337.5t-412 -114t-383.5 147t-143.5 411t99 486.5t272.5 341.5t415.5 119t382 -144t140 -415z" />
    <glyph glyph-name="P" unicode="P" horiz-adv-x="1188" 
d="M700 1462q490 0 490 -426q0 -241 -169.5 -378.5t-467.5 -137.5h-86l-109 -520h-305l309 1462h338zM578 774q142 0 223.5 69t81.5 185q0 180 -195 180h-74l-92 -434h56z" />
    <glyph glyph-name="Q" unicode="Q" horiz-adv-x="1495" 
d="M434 557q0 -317 187.5 -317t287 87t155.5 246t56 357q0 142 -65 219.5t-185 77.5t-220.5 -91.5t-158 -251.5t-57.5 -327zM1432 938q0 -316 -122.5 -555.5t-334.5 -337.5l254 -393h-359l-178 328h-26q-256 0 -399.5 147t-143.5 411t99 486.5t272.5 341.5t415.5 119
t382 -144t140 -403z" />
    <glyph glyph-name="R" unicode="R" horiz-adv-x="1247" 
d="M721 1462q237 0 356 -102t119 -299q0 -158 -83 -271.5t-239 -168.5l261 -621h-332l-207 561h-119l-119 -561h-305l309 1462h359zM885 1044q0 164 -197 164h-74l-84 -395h78q131 0 204 57t73 174z" />
    <glyph glyph-name="S" unicode="S" horiz-adv-x="1085" 
d="M946 432q0 -209 -148 -330.5t-385 -121.5t-372 90v274q193 -108 358 -108q112 0 175 42.5t63 118.5t-38.5 119t-137.5 117q-138 99 -194 196t-56 217t62 222t176.5 158.5t263.5 56.5q217 0 397 -99l-109 -233q-155 74 -263 74t-161 -44.5t-53 -112.5t33 -113t151 -123
q238 -156 238 -400z" />
    <glyph glyph-name="T" unicode="T" horiz-adv-x="1087" 
d="M571 0h-305l254 1204h-352l55 258h1010l-55 -258h-353z" />
    <glyph glyph-name="U" unicode="U" horiz-adv-x="1415" 
d="M596 -20q-212 0 -333.5 113.5t-121.5 307.5q0 72 15 138l196 923h305l-194 -919q-17 -74 -17 -125q0 -178 189 -178q123 0 195 76.5t104 228.5l194 917h306l-201 -946q-57 -266 -218 -401t-419 -135z" />
    <glyph glyph-name="V" unicode="V" horiz-adv-x="1208" 
d="M535 299q78 221 110 283l432 880h316l-748 -1462h-334l-127 1462h295l51 -880q4 -44 3 -140t-5 -143h7z" />
    <glyph glyph-name="W" unicode="W" horiz-adv-x="1831" 
d="M477 664q0 -223 -14 -347h6q22 64 67 180.5t60 145.5l369 819h270l21 -873q0 -146 -9 -272h6q43 129 131 349l330 796h309l-647 -1462h-346l-22 721l-2 139q0 88 4 158h-4q-46 -146 -115 -299l-324 -719h-338l-45 1462h287z" />
    <glyph glyph-name="X" unicode="X" horiz-adv-x="1241" 
d="M1124 0h-331l-172 543l-396 -543h-342l576 764l-238 698h320l153 -518l363 518h344l-545 -725z" />
    <glyph glyph-name="Y" unicode="Y" horiz-adv-x="1155" 
d="M627 870l374 592h342l-618 -903l-119 -559h-303l119 559l-236 903h312z" />
    <glyph glyph-name="Z" unicode="Z" horiz-adv-x="1098" 
d="M920 0h-981l38 201l777 1005h-543l53 256h936l-41 -202l-782 -1004h596z" />
    <glyph glyph-name="bracketleft" unicode="[" horiz-adv-x="678" 
d="M436 -324h-473l381 1786h473l-45 -211h-215l-291 -1364h215z" />
    <glyph glyph-name="backslash" unicode="\" horiz-adv-x="862" 
d="M481 1462l224 -1462h-267l-217 1462h260z" />
    <glyph glyph-name="bracketright" unicode="]" horiz-adv-x="678" 
d="M-92 -113h213l291 1364h-215l45 211h473l-381 -1786h-471z" />
    <glyph glyph-name="asciicircum" unicode="^" horiz-adv-x="1081" 
d="M20 520l619 950h147l277 -950h-223l-174 633l-402 -633h-244z" />
    <glyph glyph-name="underscore" unicode="_" horiz-adv-x="819" 
d="M635 -324h-821l30 140h822z" />
    <glyph glyph-name="grave" unicode="`" horiz-adv-x="1135" 
d="M508 1569h311q36 -148 115 -303v-25h-184q-166 161 -242 307v21z" />
    <glyph glyph-name="a" unicode="a" 
d="M395 399q0 -176 129 -176q69 0 133 67t103 181.5t39 259.5q0 71 -38.5 117.5t-104.5 46.5t-127 -72t-97.5 -190t-36.5 -234zM608 1139q197 0 277 -164h8l57 143h232l-238 -1118h-229l14 145h-4q-134 -165 -319 -165q-147 0 -231.5 106.5t-84.5 301.5t72 374.5t189 278
t257 98.5z" />
    <glyph glyph-name="b" unicode="b" horiz-adv-x="1219" 
d="M692 895q-68 0 -130 -65t-102 -180.5t-40 -223.5q0 -204 139 -203q67 0 128 69t98.5 189.5t37.5 237.5q0 176 -131 176zM813 1139q146 0 230.5 -108t84.5 -298t-68 -367.5t-187 -281.5t-263 -104q-194 0 -276 163h-8l-58 -143h-231l330 1556h301l-62 -288
q-41 -182 -84 -299h8q78 98 142.5 134t140.5 36z" />
    <glyph glyph-name="c" unicode="c" horiz-adv-x="989" 
d="M498 -20q-192 0 -300 107.5t-108 311.5t74.5 377.5t209 268t312.5 94.5t324 -72l-92 -229q-54 23 -106 40t-128 17t-144 -64t-106.5 -175.5t-38.5 -223.5q0 -209 172 -209q76 0 141 23.5t134 58.5v-246q-152 -79 -344 -79z" />
    <glyph glyph-name="d" unicode="d" 
d="M532 223q66 0 128.5 68.5t100.5 182.5t38 220q0 202 -140 201q-68 0 -129.5 -72t-98 -190t-36.5 -234q0 -176 137 -176zM90 388q0 194 71.5 373t188.5 278.5t258 99.5q82 0 141.5 -37t112.5 -127h8l2 28q6 110 25 195l76 358h301l-330 -1556h-229l14 145h-4
q-135 -165 -319 -165q-147 0 -231.5 107t-84.5 301z" />
    <glyph glyph-name="e" unicode="e" horiz-adv-x="1141" 
d="M536 -20q-214 0 -330 113t-116 319t82.5 377t223 260.5t318.5 89.5t277 -81.5t99 -223.5q0 -187 -167 -288.5t-477 -101.5h-51l-2 -21v-20q0 -91 51.5 -143.5t143.5 -52.5t162.5 19t171.5 67v-227q-172 -86 -386 -86zM801 827q-1 95 -97 95t-174 -80t-102 -195h45
q155 0 241.5 48.5t86.5 131.5z" />
    <glyph glyph-name="f" unicode="f" horiz-adv-x="764" 
d="M-45 -492q-104 0 -174 25v242q61 -21 119 -21t103.5 40t64.5 130l204 965h-163l30 145l183 84l18 84q41 190 138.5 277.5t273.5 87.5q131 0 235 -49l-80 -224q-69 31 -129 31q-116 0 -143 -145l-12 -62h219l-49 -229h-220l-215 -1010q-77 -371 -403 -371z" />
    <glyph glyph-name="g" unicode="g" horiz-adv-x="1108" 
d="M614 948q-77 0 -124.5 -76.5t-47.5 -193.5t103 -117q75 0 121.5 76.5t46.5 193.5t-99 117zM150 -172q0 -115 194 -115q151 0 228 45t77 127q0 39 -32.5 60t-137.5 35l-114 14q-106 -14 -160.5 -57t-54.5 -109zM158 722q0 184 125.5 300.5t341.5 116.5q83 0 166 -23h395
l-35 -166l-174 -41q16 -52 16 -118q0 -195 -121 -308.5t-329 -113.5q-59 0 -99 10q-84 -27 -84 -78q0 -34 30 -49t89 -23l137 -18q163 -21 237.5 -84.5t74.5 -183.5q0 -211 -156 -323t-446 -112q-208 0 -324.5 75.5t-116.5 207.5q0 204 283 297q-74 48 -74 126t44.5 129.5
t146.5 98.5q-127 96 -127 280z" />
    <glyph glyph-name="h" unicode="h" horiz-adv-x="1237" 
d="M844 1139q138 0 213.5 -83.5t75.5 -238.5q0 -73 -23 -180l-133 -637h-301l137 653q16 68 16 119q0 123 -108 123q-92 0 -167 -114t-118 -318l-98 -463h-301l330 1556h301q-39 -181 -60 -278t-86 -309h8q137 170 314 170z" />
    <glyph glyph-name="i" unicode="i" horiz-adv-x="608" 
d="M338 0h-301l237 1118h301zM504 1556q149 0 149 -120q0 -80 -44 -129.5t-136 -49.5q-151 0 -151 123q0 87 47.5 131.5t134.5 44.5z" />
    <glyph glyph-name="j" unicode="j" horiz-adv-x="608" 
d="M506 1556q149 0 149 -120q0 -80 -44 -129.5t-136 -49.5q-151 0 -151 123q0 87 47.5 131.5t134.5 44.5zM-90 -492q-104 0 -174 25v242q61 -21 114 -21q137 0 173 170l253 1194h302l-265 -1239q-77 -371 -403 -371z" />
    <glyph glyph-name="k" unicode="k" horiz-adv-x="1163" 
d="M920 1118h344l-498 -504l285 -614h-336l-183 420l-120 -72l-74 -348h-301l330 1556h301l-148 -694q-8 -41 -29 -117l-28 -102h4z" />
    <glyph glyph-name="l" unicode="l" horiz-adv-x="608" 
d="M338 0h-301l330 1556h301z" />
    <glyph glyph-name="m" unicode="m" horiz-adv-x="1853" 
d="M1112 911q142 228 374 228q120 0 191.5 -85t71.5 -237q0 -76 -23 -180l-133 -637h-301l138 653q16 68 16 119q0 123 -98 123q-92 0 -166.5 -112t-118.5 -318l-96 -465h-301l137 653q16 68 16 119q0 123 -98 123q-92 0 -167 -114t-118 -318l-98 -463h-301l237 1118h230
l-21 -207h6q146 228 360 228t257 -228h6z" />
    <glyph glyph-name="n" unicode="n" horiz-adv-x="1237" 
d="M829 772q0 123 -108 123q-92 0 -167 -114t-118 -318l-98 -463h-301l237 1118h230l-21 -207h6q146 228 355 228q138 0 213.5 -83.5t75.5 -238.5q0 -73 -23 -180l-133 -637h-301l137 653q16 68 16 119z" />
    <glyph glyph-name="o" unicode="o" horiz-adv-x="1198" 
d="M1108 694q0 -209 -70.5 -372t-203.5 -252.5t-322 -89.5t-305.5 117.5t-116.5 321.5t71.5 370.5t207 258t323.5 91.5t302 -118t114 -327zM805 696q0 197 -143 197q-75 0 -134.5 -61t-97 -179t-37.5 -243q0 -185 150 -185q75 0 135 61.5t93.5 171t33.5 238.5z" />
    <glyph glyph-name="p" unicode="p" horiz-adv-x="1219" 
d="M692 895q-68 0 -131.5 -67.5t-102 -180t-38.5 -220.5q0 -204 139 -204q67 0 128 69t98.5 189.5t37.5 237.5q0 176 -131 176zM813 1139q146 0 230.5 -107.5t84.5 -299.5t-68.5 -368.5t-187.5 -280t-262 -103.5q-83 0 -143 37t-111 126h-8q-12 -159 -43 -295l-72 -340h-301
l342 1610h230l-17 -170h9q138 191 317 191z" />
    <glyph glyph-name="q" unicode="q" 
d="M395 399q0 -176 140 -176q64 0 127.5 70t100 181t36.5 218q0 203 -140 203q-68 0 -129.5 -72t-98 -190t-36.5 -234zM388 -20q-86 0 -192 74.5t-106 330.5q0 198 72 377.5t189 278t257 98.5q86 0 152.5 -37.5t124.5 -126.5h8l57 143h232l-342 -1610h-301q47 218 73 337.5
t84 304.5h-8q-72 -94 -143 -132t-157 -38z" />
    <glyph glyph-name="r" unicode="r" horiz-adv-x="862" 
d="M842 1139q59 0 96 -11l-66 -290q-45 16 -100 16q-116 0 -203.5 -91.5t-124.5 -262.5l-106 -500h-301l237 1118h230l-21 -207h6q147 228 353 228z" />
    <glyph glyph-name="s" unicode="s" horiz-adv-x="969" 
d="M366 -20q-214 0 -343 65v248q157 -90 319 -90q80 0 131 32.5t51 82.5t-37 83.5t-145 93.5t-155.5 127.5t-47.5 159.5q0 170 110.5 263.5t313.5 93.5t365 -95l-99 -215q-140 84 -258 84q-57 0 -92 -25.5t-35 -66.5t32 -70.5t138 -83.5q216 -110 215 -298
q0 -188 -124.5 -288.5t-338.5 -100.5z" />
    <glyph glyph-name="t" unicode="t" horiz-adv-x="840" 
d="M514 223q65 0 162 35v-225q-112 -53 -264 -53t-222.5 63t-70.5 195q0 50 12 112l115 539h-152l29 147l196 84l132 236h194l-49 -238h283l-50 -229h-282l-115 -539q-6 -30 -6 -53q0 -74 88 -74z" />
    <glyph glyph-name="u" unicode="u" horiz-adv-x="1237" 
d="M410 346q0 -123 108 -123q92 0 167 114t118 318l98 463h301l-237 -1118h-230l21 207h-6q-145 -227 -355 -227q-138 0 -211 82.5t-73 238.5q0 93 24 213l127 604h301l-137 -653q-16 -68 -16 -119z" />
    <glyph glyph-name="v" unicode="v" horiz-adv-x="1049" 
d="M449 301h6q55 153 92 223l297 594h323l-604 -1118h-323l-138 1118h295l45 -586q7 -133 7 -231z" />
    <glyph glyph-name="w" unicode="w" horiz-adv-x="1614" 
d="M1073 1118v-536q0 -142 -10 -297h6l28 80q73 208 95 258l219 495h307l-530 -1118h-330l-6 520q0 155 10 340h-6q-62 -178 -123 -319l-233 -541h-324l-51 1118h281l4 -495l-4 -167l-7 -171h4q6 21 57 157t54 140l231 536h328z" />
    <glyph glyph-name="x" unicode="x" horiz-adv-x="1087" 
d="M379 573l-225 545h321l115 -334l244 334h354l-467 -561l244 -557h-326l-125 342l-264 -342h-350z" />
    <glyph glyph-name="y" unicode="y" horiz-adv-x="1063" 
d="M467 307h6q20 51 44 119.5t65 153.5l260 538h327l-680 -1278q-177 -332 -483 -332q-90 0 -147 19v240q68 -13 134 -13q142 0 247 197l26 49l-164 1118h295l56 -518q14 -122 14 -293z" />
    <glyph glyph-name="z" unicode="z" horiz-adv-x="932" 
d="M748 0h-795l35 180l575 705h-397l51 233h750l-43 -200l-566 -685h439z" />
    <glyph glyph-name="braceleft" unicode="{" horiz-adv-x="727" 
d="M459 338q0 -44 -15 -113l-36 -178q-7 -28 -7 -51q0 -54 33.5 -74t91.5 -20v-226h-53q-167 0 -253.5 63.5t-86.5 184.5q0 57 14 125l39 184q15 69 15 86q0 140 -209 140l45 229q122 0 192.5 41.5t92.5 138.5l61 285q38 170 131 239.5t270 69.5h84l-49 -225
q-90 -2 -130.5 -34.5t-55.5 -106.5l-66 -297q-45 -207 -276 -236v-8q168 -51 168 -217z" />
    <glyph glyph-name="bar" unicode="|" horiz-adv-x="1128" 
d="M455 1550h219v-2015h-219v2015z" />
    <glyph glyph-name="braceright" unicode="}" horiz-adv-x="727" 
d="M256 1462q340 0 340 -248q0 -56 -14 -124l-39 -185q-15 -69 -15 -86q0 -139 209 -139l-45 -229q-122 0 -192.5 -42t-91.5 -139l-62 -284q-37 -170 -130.5 -240t-270.5 -70h-45v226q93 3 137 35.5t59 105.5l66 297q25 111 95 166t181 69v9q-168 51 -168 217q0 43 15 112
l37 179q6 30 6 51q0 54 -36.5 74t-109.5 20l41 225h33z" />
    <glyph glyph-name="asciitilde" unicode="~" horiz-adv-x="1128" 
d="M805 553q-59 0 -109 11.5t-143 50.5t-131 48t-86 9t-110.5 -33t-116.5 -88v231q101 109 256 109q103 1 245 -59t217 -60q111 0 234 121v-231q-103 -109 -256 -109z" />
    <glyph glyph-name="nonbreakingspace" unicode="&#xa0;" horiz-adv-x="532" 
 />
    <glyph glyph-name="exclamdown" unicode="&#xa1;" horiz-adv-x="586" 
d="M393 1118q156 0 156 -154q0 -80 -55.5 -133t-136.5 -53q-162 0 -162 146q0 85 54 139.5t144 54.5zM182 606h242l-158 -977h-340z" />
    <glyph glyph-name="cent" unicode="&#xa2;" horiz-adv-x="1128" 
d="M164 584q0 193 62.5 355t178 262.5t267.5 123.5l33 158h188l-35 -158q118 -14 225 -65l-92 -230q-53 23 -105 40t-118 17q-133 0 -216 -143t-83 -336q0 -96 45.5 -144t123.5 -48t143 23.5t134 58.5v-246q-136 -71 -299 -80l-41 -192h-188l49 210q-272 73 -272 394z" />
    <glyph glyph-name="sterling" unicode="&#xa3;" horiz-adv-x="1128" 
d="M874 1485q194 0 367 -86l-113 -232q-140 68 -226 68t-134 -39.5t-68 -132.5l-47 -229h299l-45 -220h-299l-18 -84q-42 -195 -209 -270h655l-55 -260h-993l49 246q196 48 244 264l22 104h-192l45 220h192l49 247q41 197 162 300.5t315 103.5z" />
    <glyph glyph-name="currency" unicode="&#xa4;" horiz-adv-x="1128" 
d="M397 724q0 -78 54.5 -133.5t134.5 -55.5t136 55t56 134t-57 134t-135 55t-133.5 -55.5t-55.5 -133.5zM190 722q0 103 54 198l-129 127l147 147l127 -127q91 53 197 53t196 -55l127 129l150 -143l-129 -129q53 -90 53 -198t-53 -200l125 -125l-146 -145l-127 125
q-95 -51 -203 -51t-192 51l-125 -123l-145 145l127 125q-54 93 -54 196z" />
    <glyph glyph-name="yen" unicode="&#xa5;" horiz-adv-x="1128" 
d="M608 872l371 590h311l-506 -747h203l-39 -178h-252l-28 -138h252l-37 -178h-252l-47 -221h-291l47 221h-252l37 178h252l29 138h-252l39 178h196l-192 747h297z" />
    <glyph glyph-name="brokenbar" unicode="&#xa6;" horiz-adv-x="1128" 
d="M455 350h219v-815h-219v815zM455 1550h219v-815h-219v815z" />
    <glyph glyph-name="section" unicode="&#xa7;" horiz-adv-x="995" 
d="M393 797q0 -54 43.5 -96.5t143.5 -88.5q49 31 75.5 78.5t26.5 95.5q0 109 -176 181q-51 -25 -82 -70.5t-31 -99.5zM827 326q0 -161 -125.5 -253.5t-337.5 -92.5t-344 75v224q172 -105 345 -105q99 0 144.5 35t45.5 83t-32.5 81t-138.5 85q-234 114 -234 302
q0 89 47.5 163t154.5 142q-98 79 -98 192q0 149 117 234.5t301 85.5t356 -88l-82 -193q-146 84 -286 84t-140 -106q0 -43 40.5 -76t127.5 -72q242 -106 242 -298t-193 -308q90 -83 90 -194z" />
    <glyph glyph-name="dieresis" unicode="&#xa8;" horiz-adv-x="1135" 
d="M961 1540q133 0 133 -108q0 -73 -39.5 -116.5t-120.5 -43.5q-135 0 -135 110q0 158 162 158zM397 1382q0 78 42.5 118t119.5 40q133 0 133 -108q0 -73 -39 -116.5t-121 -43.5q-135 0 -135 110z" />
    <glyph glyph-name="copyright" unicode="&#xa9;" horiz-adv-x="1704" 
d="M266 730q0 -164 81.5 -304.5t224 -222.5t307.5 -82t306 83t221.5 223.5t80.5 303.5t-80.5 303.5t-222 223.5t-306.5 83t-307.5 -82.5t-223.5 -223.5t-81 -305zM125 732q0 199 100 374t275.5 276t375.5 101t374.5 -99t276 -275.5t101.5 -376.5t-98.5 -374t-273 -276
t-380.5 -102t-381 103.5t-272.5 276.5t-97.5 372zM934 451q106 0 231 59v-191q-131 -57 -262 -57q-196 0 -307 122t-111 342t117.5 346t325.5 126q142 0 284 -72l-75 -174q-114 58 -205 58q-215 0 -215 -287q0 -134 55.5 -203t161.5 -69z" />
    <glyph glyph-name="ordfeminine" unicode="&#xaa;" horiz-adv-x="772" 
d="M442 903q45 0 84 41.5t65.5 120t26.5 154.5q0 106 -88 106q-73 0 -123.5 -96t-50.5 -211t86 -115zM378 752q-112 0 -169 70t-57 192t46 233.5t123 171.5t187 60t170 -103h6l39 90h154l-158 -702h-154l8 92h-2q-81 -104 -193 -104z" />
    <glyph glyph-name="guillemotleft" unicode="&#xab;" horiz-adv-x="1151" 
d="M559 569l402 463l190 -155l-279 -334l136 -350l-246 -103l-203 461v18zM72 569l401 463l191 -155l-279 -334l135 -350l-246 -103l-202 461v18z" />
    <glyph glyph-name="logicalnot" unicode="&#xac;" horiz-adv-x="1128" 
d="M1061 248h-219v364h-733v219h952v-583z" />
    <glyph glyph-name="uni00AD" unicode="&#xad;" horiz-adv-x="659" 
d="M41 424l53 250h524l-53 -250h-524z" />
    <glyph glyph-name="registered" unicode="&#xae;" horiz-adv-x="1704" 
d="M266 730q0 -164 81.5 -304.5t224 -222.5t307.5 -82t306 83t221.5 223.5t80.5 303.5t-80.5 303.5t-222 223.5t-306.5 83t-307.5 -82.5t-223.5 -223.5t-81 -305zM125 732q0 199 100 374t275.5 276t375.5 101t374.5 -99t276 -275.5t101.5 -376.5t-98.5 -374t-273 -276
t-380.5 -102t-381 103.5t-272.5 276.5t-97.5 372zM1006 881q0 118 -152 118h-53v-241h51q72 0 113 31t41 92zM1237 899q0 -179 -174 -246l197 -360h-254l-138 297h-67v-297h-230v874h308q173 0 265.5 -67.5t92.5 -200.5z" />
    <glyph glyph-name="overscore" unicode="&#xaf;" horiz-adv-x="1024" 
d="M1030 1556h-1036l45 201h1036z" />
    <glyph glyph-name="degree" unicode="&#xb0;" horiz-adv-x="877" 
d="M354 1136q0 -62 45 -107.5t111 -45.5t111 46.5t45 108.5t-45.5 109t-110.5 47t-110.5 -48t-45.5 -110zM164 1136q0 94 46.5 174.5t127.5 126.5t173 46t172.5 -47t126.5 -127.5t46 -172.5t-46 -172t-126 -125.5t-174 -45.5t-173.5 45t-126 124.5t-46.5 173.5z" />
    <glyph glyph-name="plusminus" unicode="&#xb1;" horiz-adv-x="1128" 
d="M109 0v219h952v-219h-952zM475 674h-366v219h366v369h219v-369h367v-219h-367v-365h-219v365z" />
    <glyph glyph-name="twosuperior" unicode="&#xb2;" horiz-adv-x="776" 
d="M541 1483q123 0 196.5 -62.5t73.5 -146.5t-22 -137t-70 -103.5t-189 -152.5l-129 -95h347l-41 -200h-648l35 166l273 219q111 91 155.5 137t44.5 94t-25.5 68t-60.5 20q-86 0 -188 -82l-100 158q152 117 348 117z" />
    <glyph glyph-name="threesuperior" unicode="&#xb3;" horiz-adv-x="776" 
d="M584 1225q0 80 -92 80t-193 -66l-82 150q143 92 293 92t226.5 -55.5t76.5 -149.5t-51 -152t-166 -88v-4q154 -33 154 -170t-107 -215t-273 -78t-278 56v192q125 -72 254 -72q76 0 125 30.5t49 78.5q0 98 -114 98h-127l34 160h90q181 0 181 113z" />
    <glyph glyph-name="acute" unicode="&#xb4;" horiz-adv-x="1135" 
d="M1040 1569v-17q-46 -56 -154 -152.5t-194 -158.5h-209v25q79 88 222 303h335z" />
    <glyph glyph-name="mu" unicode="&#xb5;" horiz-adv-x="1249" 
d="M424 346q0 -58 31.5 -90.5t79.5 -32.5q90 0 162.5 106.5t117.5 319.5l98 469h301l-237 -1118h-229l18 176h-6q-117 -196 -266 -196q-100 0 -148 67h-6q-13 -108 -104 -539h-304l342 1610h301l-135 -645q-16 -69 -16 -127z" />
    <glyph glyph-name="paragraph" unicode="&#xb6;" horiz-adv-x="1341" 
d="M1202 -260h-162v1616h-166v-1616h-161v819q-62 -18 -146 -18q-216 0 -318 124.5t-102 378.5t107.5 383t343.5 129h604v-1816z" />
    <glyph glyph-name="periodcentered" unicode="&#xb7;" horiz-adv-x="584" 
d="M320 893q164 0 165 -154q0 -78 -55 -132t-144 -54q-155 -1 -155 153q-1 78 53 133q54 54 136 54z" />
    <glyph glyph-name="cedilla" unicode="&#xb8;" horiz-adv-x="420" 
d="M20 -242q0 72 -141 88l96 154h185l-39 -72q141 -50 141 -172t-83 -185t-234 -63q-86 0 -152 23v168q63 -23 125 -23q102 0 102 82z" />
    <glyph glyph-name="onesuperior" unicode="&#xb9;" horiz-adv-x="776" 
d="M528 1462h207l-186 -876h-246l84 397q24 109 55 207q-16 -15 -80 -60l-131 -81l-102 165z" />
    <glyph glyph-name="ordmasculine" unicode="&#xba;" horiz-adv-x="754" 
d="M522 1315q-64 0 -107.5 -89.5t-43.5 -199.5t80 -111q63 0 105 85.5t42 199.5t-76 115zM809 1199q0 -133 -73 -290t-304 -157q-134 0 -202 75t-68 211q0 197 104 319t277 122q129 0 197.5 -73.5t68.5 -206.5z" />
    <glyph glyph-name="guillemotright" unicode="&#xbb;" horiz-adv-x="1151" 
d="M592 535l-402 -463l-190 155l279 334l-136 350l246 103l203 -461v-18zM1079 535l-401 -463l-191 155l279 334l-135 350l246 103l202 -461v-18z" />
    <glyph glyph-name="onequarter" unicode="&#xbc;" horiz-adv-x="1804" 
d="M1500 1462l-1084 -1462h-239l1087 1462h236zM496 1462h207l-186 -876h-246l84 397q24 109 55 207q-16 -15 -80 -60l-131 -81l-102 165zM1252 320l58 231l22 74q-31 -47 -254 -305h174zM1573 152h-119l-32 -151h-238l33 151h-373l31 174l475 557h260l-121 -563h119z" />
    <glyph glyph-name="onehalf" unicode="&#xbd;" horiz-adv-x="1804" 
d="M1422 898q122 0 196 -63t74 -147t-22 -136q-22 -54 -70 -104t-189 -152l-129 -95h347l-41 -200h-648l35 166l273 219q112 91 156 137t44 94t-26 68t-60 20q-86 0 -188 -82l-100 158q152 117 348 117zM496 1462h207l-186 -876h-246l84 397q24 109 55 207q-16 -15 -80 -60
l-131 -81l-102 165zM1500 1462l-1084 -1462h-239l1087 1462h236z" />
    <glyph glyph-name="threequarters" unicode="&#xbe;" horiz-adv-x="1804" 
d="M1633 1462l-1084 -1462h-239l1087 1462h236zM1313 320l58 231l22 74q-31 -47 -254 -305h174zM1634 152h-119l-32 -151h-238l33 151h-373l31 174l475 557h260l-121 -563h119zM625 1225q1 80 -91 80t-194 -66l-82 150q142 92 292 92q150 1 228 -55q76 -56 76 -150t-51 -152
t-166 -88v-4q154 -33 154 -170t-107 -215t-273 -78t-278 56v192q125 -72 254 -72q76 1 125 31t49 78q0 98 -114 98h-127l34 160h90q181 0 181 113z" />
    <glyph glyph-name="questiondown" unicode="&#xbf;" horiz-adv-x="940" 
d="M616 1118q156 0 156 -154q0 -80 -55.5 -133t-136.5 -53q-162 0 -162 146q0 86 54.5 140t143.5 54zM227 -27q0 -118 133 -118q50 0 106.5 16t201.5 84l92 -221q-222 -125 -422 -125t-303 87.5t-103 243.5t83 243t197 163t149 120.5t51 106.5l8 33h258l-14 -78
q-19 -105 -76.5 -179.5t-174.5 -154.5t-151.5 -123t-34.5 -98z" />
    <glyph glyph-name="Agrave" unicode="&#xc0;" horiz-adv-x="1286" 
d="M791 1211v36q-44 -120 -109 -254l-188 -385h333l-26 350q-10 131 -10 253zM842 348h-473l-172 -348h-320l766 1468h373l147 -1468h-297zM539 1907h311q36 -148 115 -303v-25h-184q-166 161 -242 307v21z" />
    <glyph glyph-name="Aacute" unicode="&#xc1;" horiz-adv-x="1286" 
d="M791 1211v36q-44 -120 -109 -254l-188 -385h333l-26 350q-10 131 -10 253zM842 348h-473l-172 -348h-320l766 1468h373l147 -1468h-297zM1292 1907v-17q-46 -56 -154 -152t-194 -159h-209v25q79 88 222 303h335z" />
    <glyph glyph-name="Acircumflex" unicode="&#xc2;" horiz-adv-x="1286" 
d="M791 1211v36q-44 -120 -109 -254l-188 -385h333l-26 350q-10 131 -10 253zM842 348h-473l-172 -348h-320l766 1468h373l147 -1468h-297zM1235 1579h-198q-63 53 -162 168q-105 -88 -232 -168h-217v25q196 177 295 303h338q49 -120 176 -303v-25z" />
    <glyph glyph-name="Atilde" unicode="&#xc3;" horiz-adv-x="1286" 
d="M791 1211v36q-44 -120 -109 -254l-188 -385h333l-26 350q-10 131 -10 253zM842 348h-473l-172 -348h-320l766 1468h373l147 -1468h-297zM719 1684q-65 0 -94 -107h-177q59 309 281 309q70 0 159 -52q33 -20 62 -36q30 -16 62 -16t56 26t46 80h172q-66 -309 -287 -309
q-70 1 -156 53q-31 20 -61 36t-63 16z" />
    <glyph glyph-name="Adieresis" unicode="&#xc4;" horiz-adv-x="1286" 
d="M791 1211v36q-44 -120 -109 -254l-188 -385h333l-26 350q-10 131 -10 253zM842 348h-473l-172 -348h-320l766 1468h373l147 -1468h-297zM1080 1878q133 0 133 -108q1 -72 -39 -116t-121 -44q-135 0 -135 110q0 158 162 158zM516 1720q0 78 42 118t120 40q133 0 133 -108
q0 -72 -39 -116t-121 -44q-135 0 -135 110z" />
    <glyph glyph-name="Aring" unicode="&#xc5;" horiz-adv-x="1286" 
d="M791 1211v36q-44 -120 -109 -254l-188 -385h333l-26 350q-10 131 -10 253zM585 1579q1 95 69 159t178 64t183 -65q72 -65 72 -169t-64 -169l140 -1399h-297l-24 348h-473l-172 -348h-320l745 1428q-37 56 -37 151zM737 1565q0 -97 96 -97q41 0 69 26t28 71t-28 71t-69 25
q-42 1 -69 -25t-27 -71z" />
    <glyph glyph-name="AE" unicode="&#xc6;" horiz-adv-x="1833" 
d="M905 608l127 600h-80l-364 -600h317zM1593 0h-817l74 348h-426l-219 -348h-328l922 1462h1104l-54 -254h-512l-67 -321h477l-55 -254h-478l-79 -377h512z" />
    <glyph glyph-name="Ccedilla" unicode="&#xc7;" horiz-adv-x="1253" 
d="M583 -242q0 72 -141 88l90 145q-165 29 -268 139q-141 150 -141 417q0 269 104 489t278 334t400 115q125 -1 222 -23t208 -82l-118 -250q-106 59 -175 78t-137 19q-131 0 -237 -81q-106 -80 -170 -238t-64 -332t68 -255t217 -81q148 0 340 77v-260q-172 -67 -346 -76
l-29 -53q141 -50 141 -172t-83 -185t-234 -63q-86 0 -152 23v168q63 -23 125 -23q102 0 102 82z" />
    <glyph glyph-name="Egrave" unicode="&#xc8;" horiz-adv-x="1110" 
d="M870 0h-817l309 1462h818l-54 -254h-512l-67 -321h477l-55 -254h-477l-80 -377h512zM480 1907h311q36 -148 115 -303v-25h-184q-166 161 -242 307v21z" />
    <glyph glyph-name="Eacute" unicode="&#xc9;" horiz-adv-x="1110" 
d="M870 0h-817l309 1462h818l-54 -254h-512l-67 -321h477l-55 -254h-477l-80 -377h512zM1165 1907v-17q-46 -56 -154 -152t-194 -159h-209v25q79 88 222 303h335z" />
    <glyph glyph-name="Ecircumflex" unicode="&#xca;" horiz-adv-x="1110" 
d="M870 0h-817l309 1462h818l-54 -254h-512l-67 -321h477l-55 -254h-477l-80 -377h512zM1177 1579h-198q-63 53 -162 168q-105 -88 -232 -168h-217v25q196 177 295 303h338q49 -120 176 -303v-25z" />
    <glyph glyph-name="Edieresis" unicode="&#xcb;" horiz-adv-x="1110" 
d="M870 0h-817l309 1462h818l-54 -254h-512l-67 -321h477l-55 -254h-477l-80 -377h512zM1002 1878q133 0 133 -108q1 -72 -39 -116t-121 -44q-135 0 -135 110q0 158 162 158zM438 1720q0 78 42 118t120 40q133 0 133 -108q0 -72 -39 -116t-121 -44q-135 0 -135 110z" />
    <glyph glyph-name="Igrave" unicode="&#xcc;" horiz-adv-x="659" 
d="M53 0l312 1462h305l-312 -1462h-305zM241 1907h311q36 -148 115 -303v-25h-184q-166 161 -242 307v21z" />
    <glyph glyph-name="Iacute" unicode="&#xcd;" horiz-adv-x="659" 
d="M53 0l312 1462h305l-312 -1462h-305zM971 1907v-17q-46 -56 -154 -152t-194 -159h-209v25q79 88 222 303h335z" />
    <glyph glyph-name="Icircumflex" unicode="&#xce;" horiz-adv-x="659" 
d="M53 0l312 1462h305l-312 -1462h-305zM937 1579h-198q-63 53 -162 168q-105 -88 -232 -168h-217v25q196 177 295 303h338q49 -120 176 -303v-25z" />
    <glyph glyph-name="Idieresis" unicode="&#xcf;" horiz-adv-x="659" 
d="M53 0l312 1462h305l-312 -1462h-305zM786 1878q133 0 133 -108q1 -72 -39 -116t-121 -44q-135 0 -135 110q0 158 162 158zM222 1720q0 78 42 118t120 40q133 0 133 -108q0 -72 -39 -116t-121 -44q-135 0 -135 110z" />
    <glyph glyph-name="Eth" unicode="&#xd0;" horiz-adv-x="1386" 
d="M518 256q148 0 258 76t172 223.5t62 319.5q0 333 -281 333h-115l-75 -358h237l-55 -254h-238l-71 -340h106zM1323 902q0 -274 -98 -480t-283.5 -314t-437.5 -108h-451l125 596h-141l55 254h139l131 612h396q270 0 417.5 -143t147.5 -417z" />
    <glyph glyph-name="Ntilde" unicode="&#xd1;" horiz-adv-x="1546" 
d="M1063 385q29 185 219 1077h274l-309 -1462h-342l-356 1106h-6l-4 -32q-32 -216 -66 -386l-145 -688h-275l309 1462h357l340 -1077h4zM834 1684q-65 0 -94 -107h-177q59 309 281 309q70 0 159 -52q33 -20 62 -36t61 -16t57 26q24 26 46 80h172q-66 -309 -287 -309
q-70 1 -156 53q-32 20 -62 36t-62 16z" />
    <glyph glyph-name="Ograve" unicode="&#xd2;" horiz-adv-x="1495" 
d="M434 557q0 -317 254 -317q120 0 220 87t156 246t56 357q0 142 -65 220t-185 77q-120 1 -220 -91t-158 -252t-58 -327zM1432 926q0 -270 -99 -494t-271 -338t-412 -114t-384 148t-143 410q0 264 99 486t273 342q173 119 415 119t382 -144t140 -415zM627 1907h311
q36 -148 115 -303v-25h-184q-166 161 -242 307v21z" />
    <glyph glyph-name="Oacute" unicode="&#xd3;" horiz-adv-x="1495" 
d="M434 557q0 -317 254 -317q120 0 220 87t156 246t56 357q0 142 -65 220t-185 77q-120 1 -220 -91t-158 -252t-58 -327zM1432 926q0 -270 -99 -494t-271 -338t-412 -114t-384 148t-143 410q0 264 99 486t273 342q173 119 415 119t382 -144t140 -415zM1310 1907v-17
q-46 -56 -154 -152t-194 -159h-209v25q79 88 222 303h335z" />
    <glyph glyph-name="Ocircumflex" unicode="&#xd4;" horiz-adv-x="1495" 
d="M434 557q0 -317 254 -317q120 0 220 87t156 246t56 357q0 142 -65 220t-185 77q-120 1 -220 -91t-158 -252t-58 -327zM1432 926q0 -270 -99 -494t-271 -338t-412 -114t-384 148t-143 410q0 264 99 486t273 342q173 119 415 119t382 -144t140 -415zM1308 1579h-198
q-63 53 -162 168q-105 -88 -232 -168h-217v25q196 177 295 303h338q49 -120 176 -303v-25z" />
    <glyph glyph-name="Otilde" unicode="&#xd5;" horiz-adv-x="1495" 
d="M434 557q0 -317 254 -317q120 0 220 87t156 246t56 357q0 142 -65 220t-185 77q-120 1 -220 -91t-158 -252t-58 -327zM1432 926q0 -270 -99 -494t-271 -338t-412 -114t-384 148t-143 410q0 264 99 486t273 342q173 119 415 119t382 -144t140 -415zM791 1684
q-65 0 -94 -107h-177q59 309 281 309q70 0 159 -52q33 -20 62 -36q30 -16 62 -16t56 26t46 80h172q-66 -309 -287 -309q-70 1 -156 53q-31 20 -61 36t-63 16z" />
    <glyph glyph-name="Odieresis" unicode="&#xd6;" horiz-adv-x="1495" 
d="M434 557q0 -317 254 -317q120 0 220 87t156 246t56 357q0 142 -65 220t-185 77q-120 1 -220 -91t-158 -252t-58 -327zM1432 926q0 -270 -99 -494t-271 -338t-412 -114t-384 148t-143 410q0 264 99 486t273 342q173 119 415 119t382 -144t140 -415zM1149 1878
q133 0 133 -108q0 -72 -40 -116t-120 -44q-135 0 -135 110q0 158 162 158zM585 1720q1 78 43 118t119 40q133 0 133 -108q0 -72 -39 -116t-121 -44q-135 0 -135 110z" />
    <glyph glyph-name="multiply" unicode="&#xd7;" horiz-adv-x="1128" 
d="M428 723l-299 301l152 154l301 -299l305 299l153 -150l-305 -305l301 -303l-149 -152l-305 301l-301 -299l-150 152z" />
    <glyph glyph-name="Oslash" unicode="&#xd8;" horiz-adv-x="1495" 
d="M707 233q109 0 211 89t158.5 247.5t56.5 360.5l-5 80l-589 -740q59 -37 168 -37zM870 1233q-126 0 -229 -91.5t-160 -252.5t-57 -352q0 -32 8 -101l596 754q-69 43 -158 43zM1432 938q0 -283 -99 -506.5t-271 -337.5t-374 -114t-326 71l-108 -137l-154 115l121 151
q-98 138 -98 380t99 464.5t273 341.5t379 119t328 -76l105 131l151 -117l-117 -145q91 -134 91 -340z" />
    <glyph glyph-name="Ugrave" unicode="&#xd9;" horiz-adv-x="1415" 
d="M596 -20q-212 0 -334 114t-121 307q0 72 15 138l196 923h305l-194 -919q-17 -74 -17 -125q0 -178 189 -178q123 0 195 76t104 229l194 917h306l-201 -946q-57 -266 -218 -401t-419 -135zM576 1907h311q36 -148 115 -303v-25h-184q-166 161 -242 307v21z" />
    <glyph glyph-name="Uacute" unicode="&#xda;" horiz-adv-x="1415" 
d="M596 -20q-212 0 -334 114t-121 307q0 72 15 138l196 923h305l-194 -919q-17 -74 -17 -125q0 -178 189 -178q123 0 195 76t104 229l194 917h306l-201 -946q-57 -266 -218 -401t-419 -135zM1314 1907v-17q-46 -56 -154 -152t-194 -159h-209v25q79 88 222 303h335z" />
    <glyph glyph-name="Ucircumflex" unicode="&#xdb;" horiz-adv-x="1415" 
d="M596 -20q-212 0 -334 114t-121 307q0 72 15 138l196 923h305l-194 -919q-17 -74 -17 -125q0 -178 189 -178q123 0 195 76t104 229l194 917h306l-201 -946q-57 -266 -218 -401t-419 -135zM1284 1579h-198q-63 53 -162 168q-105 -88 -232 -168h-217v25q196 177 295 303h338
q49 -120 176 -303v-25z" />
    <glyph glyph-name="Udieresis" unicode="&#xdc;" horiz-adv-x="1415" 
d="M596 -20q-212 0 -334 114t-121 307q0 72 15 138l196 923h305l-194 -919q-17 -74 -17 -125q0 -178 189 -178q123 0 195 76t104 229l194 917h306l-201 -946q-57 -266 -218 -401t-419 -135zM1129 1878q133 0 133 -108q0 -72 -40 -116t-120 -44q-135 0 -135 110
q0 158 162 158zM565 1720q1 78 43 118t119 40q133 0 133 -108q0 -72 -39 -116t-121 -44q-135 0 -135 110z" />
    <glyph glyph-name="Yacute" unicode="&#xdd;" horiz-adv-x="1155" 
d="M627 870l374 592h342l-618 -903l-119 -559h-303l119 559l-236 903h312zM1163 1907v-17q-46 -56 -154 -152t-194 -159h-209v25q79 88 222 303h335z" />
    <glyph glyph-name="Thorn" unicode="&#xde;" horiz-adv-x="1188" 
d="M530 547q139 0 222.5 66.5t83.5 185.5q0 180 -195 180h-74l-92 -432h55zM653 1233q490 0 490 -426q0 -243 -170.5 -378.5t-466.5 -135.5h-86l-62 -293h-305l309 1462h306l-50 -229h35z" />
    <glyph glyph-name="germandbls" unicode="&#xdf;" horiz-adv-x="1350" 
d="M825 1567q229 0 352 -90t123 -240q0 -114 -49 -192t-178 -152q-73 -42 -96 -68.5t-23 -52.5t22 -52t104 -89q157 -121 157 -286t-123.5 -265t-323.5 -100t-311 61v240q127 -78 243 -78q210 0 210 119q0 40 -26.5 75t-114.5 102t-123 125t-35 134t44.5 137t136.5 113
t130.5 90t38.5 98t-39.5 96.5t-129.5 36.5t-150.5 -51.5t-85.5 -171.5l-254 -1219q-43 -198 -147 -288.5t-277 -90.5q-90 0 -160 25v242q61 -21 115 -21q133 0 170 178l254 1207q47 224 182 326t364 102z" />
    <glyph glyph-name="agrave" unicode="&#xe0;" 
d="M395 399q0 -176 129 -176q69 0 133 67q64 68 103 182t39 259q-1 71 -39 117t-104 47q-66 0 -126 -72q-62 -72 -98 -190t-37 -234zM608 1139q197 0 277 -164h8l57 143h232l-238 -1118h-229l14 145h-4q-134 -165 -319 -165q-148 0 -232 106t-84 302q0 194 72 374t189 278
t257 99zM443 1569h311q36 -148 115 -303v-25h-184q-166 161 -242 307v21z" />
    <glyph glyph-name="aacute" unicode="&#xe1;" 
d="M395 399q0 -176 129 -176q69 0 133 67q64 68 103 182t39 259q-1 71 -39 117t-104 47q-66 0 -126 -72q-62 -72 -98 -190t-37 -234zM608 1139q197 0 277 -164h8l57 143h232l-238 -1118h-229l14 145h-4q-134 -165 -319 -165q-148 0 -232 106t-84 302q0 194 72 374t189 278
t257 99zM1155 1569v-17q-46 -56 -154 -152t-194 -159h-209v25q79 88 222 303h335z" />
    <glyph glyph-name="acircumflex" unicode="&#xe2;" 
d="M395 399q0 -176 129 -176q69 0 133 67q64 68 103 182t39 259q-1 71 -39 117t-104 47q-66 0 -126 -72q-62 -72 -98 -190t-37 -234zM608 1139q197 0 277 -164h8l57 143h232l-238 -1118h-229l14 145h-4q-134 -165 -319 -165q-148 0 -232 106t-84 302q0 194 72 374t189 278
t257 99zM1120 1240h-198q-63 53 -162 168q-105 -88 -232 -168h-217v25q196 177 295 303h338q49 -120 176 -303v-25z" />
    <glyph glyph-name="atilde" unicode="&#xe3;" 
d="M395 399q0 -176 129 -176q69 0 133 67q64 68 103 182t39 259q-1 71 -39 117t-104 47q-66 0 -126 -72q-62 -72 -98 -190t-37 -234zM608 1139q197 0 277 -164h8l57 143h232l-238 -1118h-229l14 145h-4q-134 -165 -319 -165q-148 0 -232 106t-84 302q0 194 72 374t189 278
t257 99zM604 1346q-65 0 -94 -107h-177q59 309 281 309q70 0 159 -52q33 -20 62 -36t61 -16t57 26q24 26 46 80h172q-66 -309 -287 -309q-70 1 -156 53q-32 20 -62 36t-62 16z" />
    <glyph glyph-name="adieresis" unicode="&#xe4;" 
d="M395 399q0 -176 129 -176q69 0 133 67q64 68 103 182t39 259q-1 71 -39 117t-104 47q-66 0 -126 -72q-62 -72 -98 -190t-37 -234zM608 1139q197 0 277 -164h8l57 143h232l-238 -1118h-229l14 145h-4q-134 -165 -319 -165q-148 0 -232 106t-84 302q0 194 72 374t189 278
t257 99zM961 1540q133 0 133 -108q0 -72 -40 -116t-120 -44q-135 0 -135 110q0 158 162 158zM397 1382q1 78 43 118t119 40q133 0 133 -108q0 -72 -39 -116t-121 -44q-135 0 -135 110z" />
    <glyph glyph-name="aring" unicode="&#xe5;" 
d="M395 399q0 -176 129 -176q69 0 133 67q64 68 103 182t39 259q-1 71 -39 117t-104 47q-66 0 -126 -72q-62 -72 -98 -190t-37 -234zM608 1139q197 0 277 -164h8l57 143h232l-238 -1118h-229l14 145h-4q-134 -165 -319 -165q-148 0 -232 106t-84 302q0 194 72 374t189 278
t257 99zM673 1477q0 -97 96 -97q41 0 69 26t28 71t-28 71t-69 25q-42 1 -69 -25t-27 -71zM1023 1478q0 -106 -70 -172t-182 -67t-181 63t-69 174q1 110 69 174t178 64t183 -65q72 -65 72 -171z" />
    <glyph glyph-name="ae" unicode="&#xe6;" horiz-adv-x="1786" 
d="M1446 827q0 95 -96 95t-174.5 -80t-102.5 -195h45q155 0 241.5 48.5t86.5 131.5zM788 696q0 200 -134 199q-68 0 -128.5 -69t-95.5 -185.5t-35 -241.5q0 -176 130 -176q65 0 127 68t99 184.5t37 220.5zM1038 406q0 -199 238 -199q127 0 291 86v-227q-179 -86 -361 -86
q-109 0 -179.5 27t-117.5 87l-16 -94h-188l14 145h-6q-71 -88 -146.5 -126.5t-167.5 -38.5q-146 0 -227.5 109t-81.5 303t68.5 369t185 276.5t258.5 101.5q96 0 160.5 -38.5t114.5 -125.5h6l57 143h188l-18 -90q44 49 120.5 80t168.5 31q157 0 246.5 -83.5t89.5 -221.5
q0 -187 -167 -288.5t-476 -101.5h-52l-2 -19v-19z" />
    <glyph glyph-name="ccedilla" unicode="&#xe7;" horiz-adv-x="989" 
d="M411 -242q0 72 -141 88l94 150q-100 26 -166 92q-108 108 -108 311t74 377t210 268q134 94 312 95q178 0 324 -72l-92 -229q-54 23 -106 40t-128 17t-144 -64q-68 -63 -106 -175t-39 -224q0 -209 172 -209q76 -1 141 23t134 59v-246q-138 -72 -301 -78l-29 -53
q141 -50 141 -172t-83 -185t-234 -63q-86 0 -152 23v168q63 -23 125 -23q102 0 102 82z" />
    <glyph glyph-name="egrave" unicode="&#xe8;" horiz-adv-x="1141" 
d="M536 -20q-214 0 -330 113t-116 319t82 378q82 170 224 260q140 90 318 89q178 1 277 -81t99 -224q0 -186 -167 -288t-477 -102h-51l-2 -21v-20q-1 -91 51 -143t144 -53q92 0 162 19q71 19 172 67v-227q-172 -86 -386 -86zM801 827q-1 95 -97 95t-174 -80t-102 -195h45
q155 1 241 49t87 131zM423 1569h311q36 -148 115 -303v-25h-184q-166 161 -242 307v21z" />
    <glyph glyph-name="eacute" unicode="&#xe9;" horiz-adv-x="1141" 
d="M536 -20q-214 0 -330 113t-116 319t82 378q82 170 224 260q140 90 318 89q178 1 277 -81t99 -224q0 -186 -167 -288t-477 -102h-51l-2 -21v-20q-1 -91 51 -143t144 -53q92 0 162 19q71 19 172 67v-227q-172 -86 -386 -86zM801 827q-1 95 -97 95t-174 -80t-102 -195h45
q155 1 241 49t87 131zM1085 1569v-17q-46 -56 -154 -152t-194 -159h-209v25q79 88 222 303h335z" />
    <glyph glyph-name="ecircumflex" unicode="&#xea;" horiz-adv-x="1141" 
d="M536 -20q-214 0 -330 113t-116 319t82 378q82 170 224 260q140 90 318 89q178 1 277 -81t99 -224q0 -186 -167 -288t-477 -102h-51l-2 -21v-20q-1 -91 51 -143t144 -53q92 0 162 19q71 19 172 67v-227q-172 -86 -386 -86zM801 827q-1 95 -97 95t-174 -80t-102 -195h45
q155 1 241 49t87 131zM1101 1241h-198q-63 53 -162 168q-105 -88 -232 -168h-217v25q196 177 295 303h338q49 -120 176 -303v-25z" />
    <glyph glyph-name="edieresis" unicode="&#xeb;" horiz-adv-x="1141" 
d="M536 -20q-214 0 -330 113t-116 319t82 378q82 170 224 260q140 90 318 89q178 1 277 -81t99 -224q0 -186 -167 -288t-477 -102h-51l-2 -21v-20q-1 -91 51 -143t144 -53q92 0 162 19q71 19 172 67v-227q-172 -86 -386 -86zM801 827q-1 95 -97 95t-174 -80t-102 -195h45
q155 1 241 49t87 131zM929 1540q133 0 133 -108q0 -72 -40 -116t-120 -44q-135 0 -135 110q0 158 162 158zM365 1382q1 78 43 118t119 40q133 0 133 -108q0 -72 -39 -116t-121 -44q-135 0 -135 110z" />
    <glyph glyph-name="igrave" unicode="&#xec;" horiz-adv-x="608" 
d="M338 0h-301l237 1118h301zM153 1569h311q36 -148 115 -303v-25h-184q-166 161 -242 307v21z" />
    <glyph glyph-name="iacute" unicode="&#xed;" horiz-adv-x="608" 
d="M338 0h-301l237 1118h301zM848 1569v-17q-46 -56 -154 -152t-194 -159h-209v25q79 88 222 303h335z" />
    <glyph glyph-name="icircumflex" unicode="&#xee;" horiz-adv-x="608" 
d="M338 0h-301l237 1118h301zM845 1241h-198q-63 53 -162 168q-105 -88 -232 -168h-217v25q196 177 295 303h338q49 -120 176 -303v-25z" />
    <glyph glyph-name="idieresis" unicode="&#xef;" horiz-adv-x="608" 
d="M338 0h-301l237 1118h301zM690 1540q133 0 133 -108q1 -72 -39 -116t-121 -44q-135 0 -135 110q0 158 162 158zM126 1382q0 78 42 118t120 40q133 0 133 -108q0 -72 -39 -116t-121 -44q-135 0 -135 110z" />
    <glyph glyph-name="eth" unicode="&#xf0;" horiz-adv-x="1182" 
d="M375 390q1 -185 149 -185q70 0 126.5 55.5t89 148.5t32.5 181t-38 134t-110 46t-129 -53t-88.5 -143t-31.5 -184zM1110 795q0 -249 -69.5 -432.5t-204 -283t-336.5 -99.5t-315 110t-113 316q0 165 64.5 301t180.5 212t278 76t253 -125h6q-20 213 -117 310l-231 -131
l-88 147l200 113q-34 34 -124 80l118 186q134 -61 232 -139l237 131l76 -152l-192 -106q145 -192 145 -514z" />
    <glyph glyph-name="ntilde" unicode="&#xf1;" horiz-adv-x="1237" 
d="M829 772q0 123 -108 123q-92 0 -167 -114t-118 -318l-98 -463h-301l237 1118h230l-21 -207h6q146 228 355 228q138 1 214 -83t75 -239q0 -73 -23 -180l-133 -637h-301l137 653q16 68 16 119zM629 1346q-65 0 -94 -107h-177q59 309 281 309q70 0 159 -52q33 -20 62 -36
q30 -16 62 -16t56 26t46 80h172q-66 -309 -287 -309q-70 1 -156 53q-31 20 -61 36t-63 16z" />
    <glyph glyph-name="ograve" unicode="&#xf2;" horiz-adv-x="1198" 
d="M1108 694q0 -209 -70 -372q-70 -162 -204 -252q-133 -90 -322 -90q-190 0 -306 118t-116 321q0 205 72 371t206 258q136 92 324 91q188 0 302 -118t114 -327zM805 696q0 197 -143 197q-74 0 -134 -61t-98 -179t-37 -243q0 -185 150 -185q75 -1 135 61t94 172t33 238z
M419 1569h311q36 -148 115 -303v-25h-184q-166 161 -242 307v21z" />
    <glyph glyph-name="oacute" unicode="&#xf3;" horiz-adv-x="1198" 
d="M1108 694q0 -209 -70 -372q-70 -162 -204 -252q-133 -90 -322 -90q-190 0 -306 118t-116 321q0 205 72 371t206 258q136 92 324 91q188 0 302 -118t114 -327zM805 696q0 197 -143 197q-74 0 -134 -61t-98 -179t-37 -243q0 -185 150 -185q75 -1 135 61t94 172t33 238z
M1128 1569v-17q-46 -56 -154 -152t-194 -159h-209v25q79 88 222 303h335z" />
    <glyph glyph-name="ocircumflex" unicode="&#xf4;" horiz-adv-x="1198" 
d="M1108 694q0 -209 -70 -372q-70 -162 -204 -252q-133 -90 -322 -90q-190 0 -306 118t-116 321q0 205 72 371t206 258q136 92 324 91q188 0 302 -118t114 -327zM805 696q0 197 -143 197q-74 0 -134 -61t-98 -179t-37 -243q0 -185 150 -185q75 -1 135 61t94 172t33 238z
M1109 1241h-198q-63 53 -162 168q-105 -88 -232 -168h-217v25q196 177 295 303h338q49 -120 176 -303v-25z" />
    <glyph glyph-name="otilde" unicode="&#xf5;" horiz-adv-x="1198" 
d="M1108 694q0 -209 -70 -372q-70 -162 -204 -252q-133 -90 -322 -90q-190 0 -306 118t-116 321q0 205 72 371t206 258q136 92 324 91q188 0 302 -118t114 -327zM805 696q0 197 -143 197q-74 0 -134 -61t-98 -179t-37 -243q0 -185 150 -185q75 -1 135 61t94 172t33 238z
M585 1346q-65 0 -94 -107h-177q59 309 281 309q70 0 159 -52q33 -20 62 -36q30 -16 62 -16t56 26t46 80h172q-66 -309 -287 -309q-70 1 -156 53q-31 20 -61 36t-63 16z" />
    <glyph glyph-name="odieresis" unicode="&#xf6;" horiz-adv-x="1198" 
d="M1108 694q0 -209 -70 -372q-70 -162 -204 -252q-133 -90 -322 -90q-190 0 -306 118t-116 321q0 205 72 371t206 258q136 92 324 91q188 0 302 -118t114 -327zM805 696q0 197 -143 197q-74 0 -134 -61t-98 -179t-37 -243q0 -185 150 -185q75 -1 135 61t94 172t33 238z
M950 1540q133 0 133 -108q1 -72 -39 -116t-121 -44q-135 0 -135 110q0 158 162 158zM386 1382q0 78 42 118t120 40q133 0 133 -108q0 -72 -39 -116t-121 -44q-135 0 -135 110z" />
    <glyph glyph-name="divide" unicode="&#xf7;" horiz-adv-x="1128" 
d="M444 1072q0 74 37 112.5t103 38.5t102.5 -40.5t36.5 -110.5t-37 -111t-102 -41t-102.5 39t-37.5 113zM444 374q0 75 37 112.5t103 37.5t102.5 -39t36.5 -111t-37 -112.5t-102 -40.5t-102.5 39t-37.5 114zM109 612v219h952v-219h-952z" />
    <glyph glyph-name="oslash" unicode="&#xf8;" horiz-adv-x="1198" 
d="M543 215q114 0 193 133t79 318v16l-358 -444q32 -23 86 -23zM648 903q-67 0 -130.5 -62.5t-98 -169.5t-34.5 -233v-12l365 453q-35 24 -102 24zM1108 667q0 -182 -70.5 -345t-203.5 -252.5t-316 -89.5q-123 0 -225 53l-109 -135l-141 108l119 148q-72 107 -72 256
q0 213 71.5 379.5t206.5 258t316 91.5q131 0 227 -56l70 88l145 -110l-84 -105q66 -107 66 -289z" />
    <glyph glyph-name="ugrave" unicode="&#xf9;" horiz-adv-x="1237" 
d="M410 346q0 -123 108 -123q92 0 167 114t118 318l98 463h301l-237 -1118h-230l21 207h-6q-145 -227 -355 -227q-138 0 -211 82t-73 239q0 93 24 213l127 604h301l-137 -653q-16 -68 -16 -119zM419 1569h311q36 -148 115 -303v-25h-184q-166 161 -242 307v21z" />
    <glyph glyph-name="uacute" unicode="&#xfa;" horiz-adv-x="1237" 
d="M410 346q0 -123 108 -123q92 0 167 114t118 318l98 463h301l-237 -1118h-230l21 207h-6q-145 -227 -355 -227q-138 0 -211 82t-73 239q0 93 24 213l127 604h301l-137 -653q-16 -68 -16 -119zM1167 1569v-17q-46 -56 -154 -152t-194 -159h-209v25q79 88 222 303h335z" />
    <glyph glyph-name="ucircumflex" unicode="&#xfb;" horiz-adv-x="1237" 
d="M410 346q0 -123 108 -123q92 0 167 114t118 318l98 463h301l-237 -1118h-230l21 207h-6q-145 -227 -355 -227q-138 0 -211 82t-73 239q0 93 24 213l127 604h301l-137 -653q-16 -68 -16 -119zM1143 1241h-198q-63 53 -162 168q-105 -88 -232 -168h-217v25q196 177 295 303
h338q49 -120 176 -303v-25z" />
    <glyph glyph-name="udieresis" unicode="&#xfc;" horiz-adv-x="1237" 
d="M410 346q0 -123 108 -123q92 0 167 114t118 318l98 463h301l-237 -1118h-230l21 207h-6q-145 -227 -355 -227q-138 0 -211 82t-73 239q0 93 24 213l127 604h301l-137 -653q-16 -68 -16 -119zM975 1540q133 0 133 -108q0 -72 -40 -116t-120 -44q-135 0 -135 110
q0 158 162 158zM411 1382q1 78 43 118t119 40q133 0 133 -108q0 -72 -39 -116t-121 -44q-135 0 -135 110z" />
    <glyph glyph-name="yacute" unicode="&#xfd;" horiz-adv-x="1063" 
d="M467 307h6q20 51 44 119t65 154l260 538h327l-680 -1278q-177 -332 -483 -332q-90 0 -147 19v240q68 -13 134 -13q142 0 247 197l26 49l-164 1118h295l56 -518q14 -122 14 -293zM1054 1569v-17q-46 -56 -154 -152t-194 -159h-209v25q79 88 222 303h335z" />
    <glyph glyph-name="thorn" unicode="&#xfe;" horiz-adv-x="1219" 
d="M420 399q0 -176 139 -176q69 0 129 65t97.5 183.5t37.5 226.5q0 196 -141 197q-71 0 -130 -65t-95.5 -184.5t-36.5 -246.5zM812 1139q151 0 233.5 -106.5t82.5 -303.5t-69 -379t-182 -276t-250 -94q-178 0 -271 163h-8q-12 -159 -43 -295l-72 -340h-301l435 2048h301
l-66 -307q-29 -131 -80 -280h8q131 170 282 170z" />
    <glyph glyph-name="ydieresis" unicode="&#xff;" horiz-adv-x="1063" 
d="M467 307h6q20 51 44 119t65 154l260 538h327l-680 -1278q-177 -332 -483 -332q-90 0 -147 19v240q68 -13 134 -13q142 0 247 197l26 49l-164 1118h295l56 -518q14 -122 14 -293zM874 1540q133 0 133 -108q1 -72 -39 -116t-121 -44q-135 0 -135 110q0 158 162 158z
M310 1382q0 78 42 118t120 40q133 0 133 -108q0 -72 -39 -116t-121 -44q-135 0 -135 110z" />
    <glyph glyph-name="Amacron" unicode="&#x100;" horiz-adv-x="1286" 
d="M791 1211v36q-44 -120 -109 -254l-188 -385h333l-26 350q-10 131 -10 253zM842 348h-473l-172 -348h-320l766 1468h373l147 -1468h-297zM577 1790h619l-45 -211h-619z" />
    <glyph glyph-name="amacron" unicode="&#x101;" 
d="M395 399q0 -176 129 -176q69 0 133 67q64 68 103 182t39 259q-1 71 -39 117t-104 47q-66 0 -126 -72q-62 -72 -98 -190t-37 -234zM608 1139q197 0 277 -164h8l57 143h232l-238 -1118h-229l14 145h-4q-134 -165 -319 -165q-148 0 -232 106t-84 302q0 194 72 374t189 278
t257 99zM465 1452h619l-45 -211h-619z" />
    <glyph glyph-name="Abreve" unicode="&#x102;" horiz-adv-x="1286" 
d="M791 1211v36q-44 -120 -109 -254l-188 -385h333l-26 350q-10 131 -10 253zM842 348h-473l-172 -348h-320l766 1468h373l147 -1468h-297zM846 1579q-152 0 -238 73t-86 199q0 38 6 66h174q0 -65 36 -95t116 -30t130 27t66 98h189q-55 -338 -393 -338z" />
    <glyph glyph-name="abreve" unicode="&#x103;" 
d="M395 399q0 -176 129 -176q69 0 133 67q64 68 103 182t39 259q-1 71 -39 117t-104 47q-66 0 -126 -72q-62 -72 -98 -190t-37 -234zM608 1139q197 0 277 -164h8l57 143h232l-238 -1118h-229l14 145h-4q-134 -165 -319 -165q-148 0 -232 106t-84 302q0 194 72 374t189 278
t257 99zM737 1241q-153 0 -239 73t-85 199q0 38 6 66h174q1 -65 37 -95t116 -30t128 27q50 27 67 98h189q-55 -338 -393 -338z" />
    <glyph glyph-name="Aogonek" unicode="&#x104;" horiz-adv-x="1286" 
d="M791 1211v36q-44 -120 -109 -254l-188 -385h333l-26 350q-10 131 -10 253zM874 -250q0 -59 60 -59q44 0 102 18v-176q-84 -25 -175 -25t-151 54t-59 138q-1 85 47 154t168 146l-24 348h-473l-172 -348h-320l766 1468h373l147 -1468h-98q-119 -96 -155 -148t-36 -102z" />
    <glyph glyph-name="aogonek" unicode="&#x105;" 
d="M395 399q0 -176 129 -176q69 0 133 67q64 68 103 182t39 259q-1 71 -39 117t-104 47q-66 0 -126 -72q-62 -72 -98 -190t-37 -234zM723 -250q0 -59 60 -59q44 0 102 18v-176q-84 -25 -175 -25q-90 0 -150 54t-60 138q0 85 48 154t167 146l14 145h-4q-134 -165 -319 -165
q-148 0 -232 106t-84 302q0 194 72 374t189 278t257 99q197 0 277 -164h8l57 143h232l-238 -1118h-30q-119 -96 -155 -148t-36 -102z" />
    <glyph glyph-name="Cacute" unicode="&#x106;" horiz-adv-x="1253" 
d="M905 1227q-131 0 -237 -81q-106 -80 -170 -238t-64 -332t68 -255t217 -81q148 0 340 77v-260q-199 -77 -400 -77q-254 0 -395 150t-141 417q0 269 104 489t278 334t400 115q125 -1 222 -23t208 -82l-118 -250q-106 59 -175 78t-137 19zM1292 1907v-17q-46 -56 -154 -152
t-194 -159h-209v25q79 88 222 303h335z" />
    <glyph glyph-name="cacute" unicode="&#x107;" horiz-adv-x="989" 
d="M498 -20q-192 0 -300 108t-108 311t74 377t210 268q134 94 312 95q178 0 324 -72l-92 -229q-54 23 -106 40t-128 17t-144 -64q-68 -63 -106 -175t-39 -224q0 -209 172 -209q76 -1 141 23t134 59v-246q-152 -79 -344 -79zM1067 1569v-17q-46 -56 -154 -152t-194 -159h-209
v25q79 88 222 303h335z" />
    <glyph glyph-name="Ccircumflex" unicode="&#x108;" horiz-adv-x="1253" 
d="M905 1227q-131 0 -237 -81q-106 -80 -170 -238t-64 -332t68 -255t217 -81q148 0 340 77v-260q-199 -77 -400 -77q-254 0 -395 150t-141 417q0 269 104 489t278 334t400 115q125 -1 222 -23t208 -82l-118 -250q-106 59 -175 78t-137 19zM1292 1579h-198q-63 53 -162 168
q-105 -88 -232 -168h-217v25q196 177 295 303h338q49 -120 176 -303v-25z" />
    <glyph glyph-name="ccircumflex" unicode="&#x109;" horiz-adv-x="989" 
d="M498 -20q-192 0 -300 108t-108 311t74 377t210 268q134 94 312 95q178 0 324 -72l-92 -229q-54 23 -106 40t-128 17t-144 -64q-68 -63 -106 -175t-39 -224q0 -209 172 -209q76 -1 141 23t134 59v-246q-152 -79 -344 -79zM1062 1241h-198q-63 53 -162 168
q-105 -88 -232 -168h-217v25q196 177 295 303h338q49 -120 176 -303v-25z" />
    <glyph glyph-name="Cdot" unicode="&#x10a;" horiz-adv-x="1253" 
d="M905 1227q-131 0 -237 -81q-106 -80 -170 -238t-64 -332t68 -255t217 -81q148 0 340 77v-260q-199 -77 -400 -77q-254 0 -395 150t-141 417q0 269 104 489t278 334t400 115q125 -1 222 -23t208 -82l-118 -250q-106 59 -175 78t-137 19zM957 1894q149 0 149 -120
q0 -80 -44 -130t-136 -49q-151 0 -151 123q-1 88 47 132t135 44z" />
    <glyph glyph-name="cdot" unicode="&#x10b;" horiz-adv-x="989" 
d="M498 -20q-192 0 -300 108t-108 311t74 377t210 268q134 94 312 95q178 0 324 -72l-92 -229q-54 23 -106 40t-128 17t-144 -64q-68 -63 -106 -175t-39 -224q0 -209 172 -209q76 -1 141 23t134 59v-246q-152 -79 -344 -79zM713 1556q149 0 149 -120q0 -80 -44 -130
t-136 -49q-151 0 -151 123q-1 88 47 132t135 44z" />
    <glyph glyph-name="Ccaron" unicode="&#x10c;" horiz-adv-x="1253" 
d="M905 1227q-131 0 -237 -81q-106 -80 -170 -238t-64 -332t68 -255t217 -81q148 0 340 77v-260q-199 -77 -400 -77q-254 0 -395 150t-141 417q0 269 104 489t278 334t400 115q125 -1 222 -23t208 -82l-118 -250q-106 59 -175 78t-137 19zM514 1907h198q63 -53 162 -168
q115 94 232 168h217v-25q-212 -198 -295 -303h-338q-49 120 -176 303v25z" />
    <glyph glyph-name="ccaron" unicode="&#x10d;" horiz-adv-x="989" 
d="M498 -20q-192 0 -300 108t-108 311t74 377t210 268q134 94 312 95q178 0 324 -72l-92 -229q-54 23 -106 40t-128 17t-144 -64q-68 -63 -106 -175t-39 -224q0 -209 172 -209q76 -1 141 23t134 59v-246q-152 -79 -344 -79zM308 1569h198q63 -53 162 -168q115 94 232 168
h217v-25q-212 -198 -295 -303h-338q-49 120 -176 303v25z" />
    <glyph glyph-name="Dcaron" unicode="&#x10e;" horiz-adv-x="1386" 
d="M518 256q148 0 258 76t172 224t62 319q0 333 -281 333h-115l-202 -952h106zM1323 902q0 -274 -98 -480q-97 -206 -283 -314t-438 -108h-451l309 1462h396q270 0 418 -143t147 -417zM469 1907h198q63 -53 162 -168q115 94 232 168h217v-25q-212 -198 -295 -303h-338
q-49 120 -176 303v25z" />
    <glyph glyph-name="dcaron" unicode="&#x10f;" 
d="M532 223q66 1 128 69t101 182q38 114 38 220q0 202 -140 201q-67 0 -129 -72t-98 -190t-37 -234q0 -176 137 -176zM90 388q0 194 72 374q72 178 188 278q117 100 258 99q82 0 142 -37t112 -127h8l2 28q6 110 25 195l76 358h301l-330 -1556h-229l14 145h-4
q-135 -165 -319 -165q-148 0 -232 107t-84 301zM1708 1556v-20q-30 -58 -96 -148t-131 -159h-180v26q83 178 124 301h283z" />
    <glyph glyph-name="Dcroat" unicode="&#x110;" horiz-adv-x="1386" 
d="M518 256q148 0 258 76t172 224t62 319q0 333 -281 333h-115l-75 -358h237l-55 -254h-238l-71 -340h106zM1323 902q0 -274 -98 -480q-97 -206 -283 -314t-438 -108h-451l125 596h-141l55 254h139l131 612h396q270 0 418 -143t147 -417z" />
    <glyph glyph-name="dcroat" unicode="&#x111;" 
d="M797 674q0 160 -138 160q-71 0 -132 -61t-96.5 -162t-35.5 -201q0 -188 142 -187q68 0 126 59.5t96 171.5t38 220zM862 928q0 74 35 268h-295l41 199h295l35 161h301l-35 -161h154l-41 -199h-156l-252 -1196h-229l14 145h-4q-77 -90 -150.5 -127.5t-158.5 -37.5
q-152 0 -239 106t-87 294t70 355t183 254.5t253 87.5q88 0 150.5 -34.5t107.5 -114.5h8z" />
    <glyph glyph-name="Emacron" unicode="&#x112;" horiz-adv-x="1110" 
d="M870 0h-817l309 1462h818l-54 -254h-512l-67 -321h477l-55 -254h-477l-80 -377h512zM516 1790h619l-45 -211h-619z" />
    <glyph glyph-name="emacron" unicode="&#x113;" horiz-adv-x="1141" 
d="M536 -20q-214 0 -330 113t-116 319t82 378q82 170 224 260q140 90 318 89q178 1 277 -81t99 -224q0 -186 -167 -288t-477 -102h-51l-2 -21v-20q-1 -91 51 -143t144 -53q92 0 162 19q71 19 172 67v-227q-172 -86 -386 -86zM801 827q-1 95 -97 95t-174 -80t-102 -195h45
q155 1 241 49t87 131zM440 1452h619l-45 -211h-619z" />
    <glyph glyph-name="Ebreve" unicode="&#x114;" horiz-adv-x="1110" 
d="M870 0h-817l309 1462h818l-54 -254h-512l-67 -321h477l-55 -254h-477l-80 -377h512zM785 1579q-153 0 -239 73t-85 199q0 38 6 66h174q1 -65 37 -95t116 -30t128 27q50 27 67 98h189q-55 -338 -393 -338z" />
    <glyph glyph-name="ebreve" unicode="&#x115;" horiz-adv-x="1141" 
d="M536 -20q-214 0 -330 113t-116 319t82 378q82 170 224 260q140 90 318 89q178 1 277 -81t99 -224q0 -186 -167 -288t-477 -102h-51l-2 -21v-20q-1 -91 51 -143t144 -53q92 0 162 19q71 19 172 67v-227q-172 -86 -386 -86zM801 827q-1 95 -97 95t-174 -80t-102 -195h45
q155 1 241 49t87 131zM730 1241q-152 0 -238 73t-86 199q0 38 6 66h174q0 -65 36 -95t116 -30t130 27t66 98h189q-55 -338 -393 -338z" />
    <glyph glyph-name="Edotaccent" unicode="&#x116;" horiz-adv-x="1110" 
d="M870 0h-817l309 1462h818l-54 -254h-512l-67 -321h477l-55 -254h-477l-80 -377h512zM805 1865q149 0 149 -120q0 -79 -44 -129t-136 -50q-151 0 -151 123q-1 87 47 131t135 45z" />
    <glyph glyph-name="edotaccent" unicode="&#x117;" horiz-adv-x="1141" 
d="M536 -20q-214 0 -330 113t-116 319t82 378q82 170 224 260q140 90 318 89q178 1 277 -81t99 -224q0 -186 -167 -288t-477 -102h-51l-2 -21v-20q-1 -91 51 -143t144 -53q92 0 162 19q71 19 172 67v-227q-172 -86 -386 -86zM801 827q-1 95 -97 95t-174 -80t-102 -195h45
q155 1 241 49t87 131zM754 1556q149 0 149 -120q0 -80 -44 -130t-136 -49q-151 0 -151 123q0 88 48 132t134 44z" />
    <glyph glyph-name="Eogonek" unicode="&#x118;" horiz-adv-x="1110" 
d="M581 -250q0 -59 60 -59q44 0 102 18v-176q-84 -25 -175 -25q-90 0 -150 54t-60 138q0 85 48 154t167 146h-520l309 1462h818l-54 -254h-512l-67 -321h477l-55 -254h-477l-80 -377h512l-54 -256h-98q-119 -96 -155 -148t-36 -102z" />
    <glyph glyph-name="eogonek" unicode="&#x119;" horiz-adv-x="1141" 
d="M801 827q-1 95 -97 95t-174 -80t-102 -195h45q155 1 241 49t87 131zM500 -230q0 -59 60 -59q44 0 102 18v-176q-84 -25 -175 -25t-151 54t-59 138q0 85 42 146t123 120q-146 20 -236 107q-116 113 -116 319t82 378q82 170 224 260q140 90 318 89q178 1 277 -81t99 -224
q0 -186 -167 -288t-477 -102h-51l-2 -21v-20q-1 -91 51 -143t144 -53q92 0 162 19q71 19 172 67v-227q-124 -62 -271 -79q-85 -72 -118 -120q-33 -47 -33 -97z" />
    <glyph glyph-name="Ecaron" unicode="&#x11a;" horiz-adv-x="1110" 
d="M870 0h-817l309 1462h818l-54 -254h-512l-67 -321h477l-55 -254h-477l-80 -377h512zM422 1907h198q63 -53 162 -168q115 94 232 168h217v-25q-212 -198 -295 -303h-338q-49 120 -176 303v25z" />
    <glyph glyph-name="ecaron" unicode="&#x11b;" horiz-adv-x="1141" 
d="M536 -20q-214 0 -330 113t-116 319t82 378q82 170 224 260q140 90 318 89q178 1 277 -81t99 -224q0 -186 -167 -288t-477 -102h-51l-2 -21v-20q-1 -91 51 -143t144 -53q92 0 162 19q71 19 172 67v-227q-172 -86 -386 -86zM801 827q-1 95 -97 95t-174 -80t-102 -195h45
q155 1 241 49t87 131zM364 1569h198q63 -53 162 -168q115 94 232 168h217v-25q-212 -198 -295 -303h-338q-49 120 -176 303v25z" />
    <glyph glyph-name="Gcircumflex" unicode="&#x11c;" horiz-adv-x="1413" 
d="M962 1223q-150 0 -270 -83q-120 -82 -190 -236q-68 -154 -68 -328t72 -256q72 -80 223 -80q76 0 170 24l66 299h-267l56 258h563l-162 -762q-230 -79 -490 -79t-401 147t-141 419t107 488t301 334t430 117q236 0 428 -99l-115 -251q-162 88 -312 88zM1308 1579h-198
q-63 53 -162 168q-105 -88 -232 -168h-217v25q196 177 295 303h338q49 -120 176 -303v-25z" />
    <glyph glyph-name="gcircumflex" unicode="&#x11d;" horiz-adv-x="1108" 
d="M614 948q-76 0 -124 -76t-48 -194q0 -117 103 -117q75 1 121 77t47 193q0 117 -99 117zM150 -172q0 -115 194 -115q151 0 228 45t77 127q-1 39 -33 60t-137 35l-114 14q-107 -14 -161 -57t-54 -109zM158 722q0 184 126 300t341 117q83 0 166 -23h395l-35 -166l-174 -41
q16 -52 16 -118q0 -195 -121 -309t-329 -113q-59 0 -99 10q-84 -27 -84 -78q0 -34 30 -49t89 -23l137 -18q164 -21 238 -85t74 -183q0 -211 -156 -323t-446 -112q-208 0 -324 76t-117 207q0 204 283 297q-74 48 -74 126t44 130t147 98q-127 96 -127 280zM1190 1241h-198
q-63 53 -162 168q-105 -88 -232 -168h-217v25q196 177 295 303h338q49 -120 176 -303v-25z" />
    <glyph glyph-name="Gbreve" unicode="&#x11e;" horiz-adv-x="1413" 
d="M962 1223q-150 0 -270 -83q-120 -82 -190 -236q-68 -154 -68 -328t72 -256q72 -80 223 -80q76 0 170 24l66 299h-267l56 258h563l-162 -762q-230 -79 -490 -79t-401 147t-141 419t107 488t301 334t430 117q236 0 428 -99l-115 -251q-162 88 -312 88zM910 1579
q-152 0 -238 73t-86 199q0 38 6 66h174q0 -65 36 -95t116 -30t130 27t66 98h189q-55 -338 -393 -338z" />
    <glyph glyph-name="gbreve" unicode="&#x11f;" horiz-adv-x="1108" 
d="M614 948q-76 0 -124 -76t-48 -194q0 -117 103 -117q75 1 121 77t47 193q0 117 -99 117zM150 -172q0 -115 194 -115q151 0 228 45t77 127q-1 39 -33 60t-137 35l-114 14q-107 -14 -161 -57t-54 -109zM158 722q0 184 126 300t341 117q83 0 166 -23h395l-35 -166l-174 -41
q16 -52 16 -118q0 -195 -121 -309t-329 -113q-59 0 -99 10q-84 -27 -84 -78q0 -34 30 -49t89 -23l137 -18q164 -21 238 -85t74 -183q0 -211 -156 -323t-446 -112q-208 0 -324 76t-117 207q0 204 283 297q-74 48 -74 126t44 130t147 98q-127 96 -127 280zM756 1241
q-152 0 -238 73t-86 199q0 38 6 66h174q0 -65 36 -95t116 -30t130 27t66 98h189q-55 -338 -393 -338z" />
    <glyph glyph-name="Gdot" unicode="&#x120;" horiz-adv-x="1413" 
d="M962 1223q-150 0 -270 -83q-120 -82 -190 -236q-68 -154 -68 -328t72 -256q72 -80 223 -80q76 0 170 24l66 299h-267l56 258h563l-162 -762q-230 -79 -490 -79t-401 147t-141 419t107 488t301 334t430 117q236 0 428 -99l-115 -251q-162 88 -312 88zM959 1894
q149 0 149 -120q0 -80 -44 -130t-136 -49q-151 0 -151 123q-1 88 47 132t135 44z" />
    <glyph glyph-name="gdot" unicode="&#x121;" horiz-adv-x="1108" 
d="M614 948q-76 0 -124 -76t-48 -194q0 -117 103 -117q75 1 121 77t47 193q0 117 -99 117zM150 -172q0 -115 194 -115q151 0 228 45t77 127q-1 39 -33 60t-137 35l-114 14q-107 -14 -161 -57t-54 -109zM158 722q0 184 126 300t341 117q83 0 166 -23h395l-35 -166l-174 -41
q16 -52 16 -118q0 -195 -121 -309t-329 -113q-59 0 -99 10q-84 -27 -84 -78q0 -34 30 -49t89 -23l137 -18q164 -21 238 -85t74 -183q0 -211 -156 -323t-446 -112q-208 0 -324 76t-117 207q0 204 283 297q-74 48 -74 126t44 130t147 98q-127 96 -127 280zM795 1556
q149 0 149 -120q0 -80 -44 -130t-136 -49q-151 0 -151 123q-1 88 47 132t135 44z" />
    <glyph glyph-name="Gcommaaccent" unicode="&#x122;" horiz-adv-x="1413" 
d="M962 1223q-150 0 -270 -83q-120 -82 -190 -236q-68 -154 -68 -328t72 -256q72 -80 223 -80q76 0 170 24l66 299h-267l56 258h563l-162 -762q-230 -79 -490 -79t-401 147t-141 419t107 488t301 334t430 117q236 0 428 -99l-115 -251q-162 88 -312 88zM811 -125v-20
q-72 -135 -227 -308h-180v27q77 157 125 301h282z" />
    <glyph glyph-name="gcommaaccent" unicode="&#x123;" horiz-adv-x="1108" 
d="M614 948q-76 0 -124 -76t-48 -194q0 -117 103 -117q75 1 121 77t47 193q0 117 -99 117zM150 -172q0 -115 194 -115q151 0 228 45t77 127q-1 39 -33 60t-137 35l-114 14q-107 -14 -161 -57t-54 -109zM158 722q0 184 126 300t341 117q83 0 166 -23h395l-35 -166l-174 -41
q16 -52 16 -118q0 -195 -121 -309t-329 -113q-59 0 -99 10q-84 -27 -84 -78q0 -34 30 -49t89 -23l137 -18q164 -21 238 -85t74 -183q0 -211 -156 -323t-446 -112q-208 0 -324 76t-117 207q0 204 283 297q-74 48 -74 126t44 130t147 98q-127 96 -127 280zM996 1569v-27
q-20 -40 -64 -141t-61 -160h-283v21q70 134 227 307h181z" />
    <glyph glyph-name="Hcircumflex" unicode="&#x124;" horiz-adv-x="1434" 
d="M1135 0h-306l134 631h-471l-134 -631h-305l309 1462h306l-121 -573h471l121 573h305zM1304 1579h-198q-63 53 -162 168q-105 -88 -232 -168h-217v25q196 177 295 303h338q49 -120 176 -303v-25z" />
    <glyph glyph-name="hcircumflex" unicode="&#x125;" horiz-adv-x="1237" 
d="M844 1139q138 1 214 -83t75 -239q0 -73 -23 -180l-133 -637h-301l137 653q16 68 16 119q0 123 -108 123q-92 0 -167 -114t-118 -318l-98 -463h-301l330 1556h301q-39 -181 -60 -278t-86 -309h8q137 170 314 170zM1198 1634h-198q-63 53 -162 168q-105 -88 -232 -168h-217
v25q196 177 295 303h338q49 -120 176 -303v-25z" />
    <glyph glyph-name="Hbar" unicode="&#x126;" horiz-adv-x="1434" 
d="M1018 889l37 180h-471l-37 -180h471zM1403 1268h178l-41 -199h-180l-225 -1069h-306l134 631h-471l-134 -631h-305l226 1069h-177l41 199h179l40 194h306l-41 -194h471l41 194h305z" />
    <glyph glyph-name="hbar" unicode="&#x127;" horiz-adv-x="1237" 
d="M831 1077q140 0 214.5 -84t74.5 -237q0 -79 -22 -181l-121 -575h-301l125 592q16 68 16 119q0 123 -106 123q-93 0 -168.5 -115.5t-118.5 -317.5l-86 -401h-301l254 1196h-162l43 199h160l35 161h301l-33 -161h299l-43 -199h-299q-38 -164 -80 -289h8q135 170 311 170z
" />
    <glyph glyph-name="Itilde" unicode="&#x128;" horiz-adv-x="659" 
d="M53 0l312 1462h305l-312 -1462h-305zM409 1684q-65 0 -94 -107h-177q59 309 281 309q70 0 159 -52q33 -20 62 -36q30 -16 62 -16t56 26t46 80h172q-66 -309 -287 -309q-70 1 -156 53q-31 20 -61 36t-63 16z" />
    <glyph glyph-name="itilde" unicode="&#x129;" horiz-adv-x="608" 
d="M338 0h-301l237 1118h301zM325 1346q-65 0 -94 -107h-177q59 309 281 309q70 0 159 -52q33 -20 62 -36q30 -16 62 -16t56 26t46 80h172q-66 -309 -287 -309q-70 1 -156 53q-31 20 -61 36t-63 16z" />
    <glyph glyph-name="Imacron" unicode="&#x12a;" horiz-adv-x="659" 
d="M53 0l312 1462h305l-312 -1462h-305zM275 1790h619l-45 -211h-619z" />
    <glyph glyph-name="imacron" unicode="&#x12b;" horiz-adv-x="608" 
d="M338 0h-301l237 1118h301zM173 1452h619l-45 -211h-619z" />
    <glyph glyph-name="Ibreve" unicode="&#x12c;" horiz-adv-x="659" 
d="M53 0l312 1462h305l-312 -1462h-305zM550 1579q-152 0 -238 73t-86 199q0 38 6 66h174q0 -65 36 -95t116 -30t130 27t66 98h189q-55 -338 -393 -338z" />
    <glyph glyph-name="ibreve" unicode="&#x12d;" horiz-adv-x="608" 
d="M338 0h-301l237 1118h301zM458 1241q-152 0 -238 73t-86 199q0 38 6 66h174q0 -65 36 -95t116 -30t130 27t66 98h189q-55 -338 -393 -338z" />
    <glyph glyph-name="Iogonek" unicode="&#x12e;" horiz-adv-x="659" 
d="M151 -250q0 -59 60 -59q44 0 102 18v-176q-84 -25 -175 -25q-90 0 -150 54t-60 138q0 85 48 154t167 146h-90l312 1462h305l-312 -1462h-16q-119 -96 -155 -148t-36 -102z" />
    <glyph glyph-name="iogonek" unicode="&#x12f;" horiz-adv-x="608" 
d="M504 1556q149 0 149 -120q0 -80 -44 -130t-136 -49q-151 0 -151 123q0 88 48 132t134 44zM147 -250q0 -59 60 -59q44 0 102 18v-176q-84 -25 -175 -25q-90 0 -150 54t-60 138q0 85 48 154t167 146h-102l237 1118h301l-237 -1118q-119 -96 -155 -148t-36 -102z" />
    <glyph glyph-name="Idotaccent" unicode="&#x130;" horiz-adv-x="659" 
d="M53 0l312 1462h305l-312 -1462h-305zM592 1894q149 0 149 -120q0 -80 -44 -130t-136 -49q-151 0 -151 123q0 88 48 132t134 44z" />
    <glyph glyph-name="dotlessi" unicode="&#x131;" horiz-adv-x="608" 
d="M338 0h-301l237 1118h301z" />
    <glyph glyph-name="IJ" unicode="&#x132;" horiz-adv-x="1337" 
d="M53 0l312 1462h305l-312 -1462h-305zM524 -430q-94 0 -187 27v253q87 -20 175 -20q185 0 239 252l293 1380h305l-303 -1423q-52 -245 -176 -357t-346 -112z" />
    <glyph glyph-name="ij" unicode="&#x133;" 
d="M338 0h-301l237 1118h301zM504 1556q149 0 149 -120q0 -80 -44 -130t-136 -49q-151 0 -151 123q0 88 48 132t134 44zM1114 1556q149 0 149 -120q0 -80 -44 -130t-136 -49q-151 0 -151 123q0 88 48 132t134 44zM518 -492q-104 0 -174 25v242q61 -21 114 -21q137 0 173 170
l253 1194h302l-265 -1239q-77 -371 -403 -371z" />
    <glyph glyph-name="Jcircumflex" unicode="&#x134;" horiz-adv-x="678" 
d="M-135 -430q-94 0 -187 27v253q88 -20 176 -20q185 0 238 252l293 1380h305l-303 -1423q-51 -245 -175 -357t-347 -112zM949 1579h-198q-63 53 -162 168q-105 -88 -232 -168h-217v25q196 177 295 303h338q49 -120 176 -303v-25z" />
    <glyph glyph-name="jcircumflex" unicode="&#x135;" horiz-adv-x="608" 
d="M-88 -492q-104 0 -174 25v242q60 -21 118 -21t104 40t65 130l254 1194h301l-265 -1239q-77 -371 -403 -371zM836 1241h-198q-63 53 -162 168q-105 -88 -232 -168h-217v25q196 177 295 303h338q49 -120 176 -303v-25z" />
    <glyph glyph-name="Kcommaaccent" unicode="&#x136;" horiz-adv-x="1255" 
d="M1141 0h-338l-211 592l-125 -70l-109 -522h-305l309 1462h306l-152 -702l158 205l409 497h361l-594 -700zM710 -125v-20q-72 -135 -227 -308h-180v27q77 157 125 301h282z" />
    <glyph glyph-name="kcommaaccent" unicode="&#x137;" horiz-adv-x="1163" 
d="M920 1118h344l-498 -504l285 -614h-336l-183 420l-120 -72l-74 -348h-301l330 1556h301l-148 -694q-8 -41 -29 -117l-28 -102h4zM653 -125v-20q-72 -135 -227 -308h-180v27q77 157 125 301h282z" />
    <glyph glyph-name="kgreenlandic" unicode="&#x138;" horiz-adv-x="1163" 
d="M920 1118h344l-498 -504l285 -614h-336l-183 420l-120 -72l-74 -348h-301l237 1118h301q-84 -378 -116 -481h4z" />
    <glyph glyph-name="Lacute" unicode="&#x139;" horiz-adv-x="1061" 
d="M53 0l309 1462h306l-256 -1206h512l-54 -256h-817zM961 1907v-17q-46 -56 -154 -152t-194 -159h-209v25q79 88 222 303h335z" />
    <glyph glyph-name="lacute" unicode="&#x13a;" horiz-adv-x="608" 
d="M338 0h-301l330 1556h301zM941 1964v-17q-46 -57 -154 -153t-194 -158h-209v25q79 88 222 303h335z" />
    <glyph glyph-name="Lcommaaccent" unicode="&#x13b;" horiz-adv-x="1061" 
d="M53 0l309 1462h306l-256 -1206h512l-54 -256h-817zM596 -125v-20q-72 -135 -227 -308h-180v27q77 157 125 301h282z" />
    <glyph glyph-name="lcommaaccent" unicode="&#x13c;" horiz-adv-x="608" 
d="M338 0h-301l330 1556h301zM308 -125v-20q-72 -135 -227 -308h-180v27q77 157 125 301h282z" />
    <glyph glyph-name="Lcaron" unicode="&#x13d;" horiz-adv-x="1061" 
d="M53 0l309 1462h306l-256 -1206h512l-54 -256h-817zM1190 1463v-20q-30 -57 -96 -147t-131 -160h-180v26q83 178 124 301h283z" />
    <glyph glyph-name="lcaron" unicode="&#x13e;" horiz-adv-x="608" 
d="M338 0h-301l330 1556h301zM1102 1556v-20q-30 -58 -96 -148t-131 -159h-180v26q83 178 124 301h283z" />
    <glyph glyph-name="Ldot" unicode="&#x13f;" horiz-adv-x="1061" 
d="M53 0l309 1462h306l-256 -1206h512l-54 -256h-817zM877 900q149 0 149 -120q0 -80 -44 -130t-136 -49q-151 0 -151 123q-1 88 47 132t135 44z" />
    <glyph glyph-name="ldot" unicode="&#x140;" horiz-adv-x="889" 
d="M338 0h-301l330 1556h301zM793 844q149 0 149 -120q0 -80 -44 -130t-136 -49q-151 0 -151 123q-1 88 47 132t135 44z" />
    <glyph glyph-name="Lslash" unicode="&#x141;" horiz-adv-x="1063" 
d="M57 0l103 481l-58 -30l-102 202l221 119l146 690h303l-107 -506l142 78l106 -203l-311 -167l-86 -408h512l-54 -256h-815z" />
    <glyph glyph-name="lslash" unicode="&#x142;" horiz-adv-x="670" 
d="M559 936l64 37l106 -203l-231 -125l-138 -645h-297l99 467l-60 -33l-102 203l223 121l170 798h297z" />
    <glyph glyph-name="Nacute" unicode="&#x143;" horiz-adv-x="1546" 
d="M1063 385q29 185 219 1077h274l-309 -1462h-342l-356 1106h-6l-4 -32q-32 -216 -66 -386l-145 -688h-275l309 1462h357l340 -1077h4zM1413 1907v-17q-46 -56 -154 -152t-194 -159h-209v25q79 88 222 303h335z" />
    <glyph glyph-name="nacute" unicode="&#x144;" horiz-adv-x="1237" 
d="M829 772q0 123 -108 123q-92 0 -167 -114t-118 -318l-98 -463h-301l237 1118h230l-21 -207h6q146 228 355 228q138 1 214 -83t75 -239q0 -73 -23 -180l-133 -637h-301l137 653q16 68 16 119zM1155 1569v-17q-46 -56 -154 -152t-194 -159h-209v25q79 88 222 303h335z" />
    <glyph glyph-name="Ncommaaccent" unicode="&#x145;" horiz-adv-x="1546" 
d="M1063 385q29 185 219 1077h274l-309 -1462h-342l-356 1106h-6l-4 -32q-32 -216 -66 -386l-145 -688h-275l309 1462h357l340 -1077h4zM788 -125v-20q-72 -135 -227 -308h-180v27q77 157 125 301h282z" />
    <glyph glyph-name="ncommaaccent" unicode="&#x146;" horiz-adv-x="1237" 
d="M829 772q0 123 -108 123q-92 0 -167 -114t-118 -318l-98 -463h-301l237 1118h230l-21 -207h6q146 228 355 228q138 1 214 -83t75 -239q0 -73 -23 -180l-133 -637h-301l137 653q16 68 16 119zM645 -125v-20q-72 -135 -227 -308h-180v27q77 157 125 301h282z" />
    <glyph glyph-name="Ncaron" unicode="&#x147;" horiz-adv-x="1546" 
d="M1063 385q29 185 219 1077h274l-309 -1462h-342l-356 1106h-6l-4 -32q-32 -216 -66 -386l-145 -688h-275l309 1462h357l340 -1077h4zM621 1907h198q63 -53 162 -168q115 94 232 168h217v-25q-212 -198 -295 -303h-338q-49 120 -176 303v25z" />
    <glyph glyph-name="ncaron" unicode="&#x148;" horiz-adv-x="1237" 
d="M829 772q0 123 -108 123q-92 0 -167 -114t-118 -318l-98 -463h-301l237 1118h230l-21 -207h6q146 228 355 228q138 1 214 -83t75 -239q0 -73 -23 -180l-133 -637h-301l137 653q16 68 16 119zM383 1569h198q63 -53 162 -168q115 94 232 168h217v-25q-212 -198 -295 -303
h-338q-49 120 -176 303v25z" />
    <glyph glyph-name="napostrophe" unicode="&#x149;" horiz-adv-x="1395" 
d="M987 772q0 123 -108 123q-92 0 -167 -114t-118 -318l-98 -463h-301l237 1118h230l-21 -207h6q146 228 355 228q138 1 214 -83t75 -239q0 -73 -23 -180l-133 -637h-301l137 653q16 68 16 119zM481 1462l8 -22q-103 -227 -262 -479h-226q89 206 195 501h285z" />
    <glyph glyph-name="Eng" unicode="&#x14a;" horiz-adv-x="1546" 
d="M727 -430q-120 0 -190 24v259q85 -23 161 -23q215 0 269 170l-418 1106h-6l-4 -32q-32 -216 -66 -386l-145 -688h-275l309 1462h330l381 -985h6q41 260 72 397l131 588h274l-309 -1462q-46 -215 -178.5 -322.5t-341.5 -107.5z" />
    <glyph glyph-name="eng" unicode="&#x14b;" horiz-adv-x="1237" 
d="M547 -492q-104 0 -174 25v242q61 -21 118 -21t103.5 40.5t64.5 129.5l154 729q16 68 16 119q0 123 -108 123q-92 0 -167 -114t-118 -318l-98 -463h-301l237 1118h230l-21 -207h6q146 228 355 228q138 0 213.5 -83.5t75.5 -238.5q0 -73 -23 -180l-158 -754
q-41 -192 -141.5 -283.5t-263.5 -91.5z" />
    <glyph glyph-name="Omacron" unicode="&#x14c;" horiz-adv-x="1495" 
d="M434 557q0 -317 254 -317q120 0 220 87t156 246t56 357q0 142 -65 220t-185 77q-120 1 -220 -91t-158 -252t-58 -327zM1432 926q0 -270 -99 -494t-271 -338t-412 -114t-384 148t-143 410q0 264 99 486t273 342q173 119 415 119t382 -144t140 -415zM668 1790h619l-45 -211
h-619z" />
    <glyph glyph-name="omacron" unicode="&#x14d;" horiz-adv-x="1198" 
d="M1108 694q0 -209 -70 -372q-70 -162 -204 -252q-133 -90 -322 -90q-190 0 -306 118t-116 321q0 205 72 371t206 258q136 92 324 91q188 0 302 -118t114 -327zM805 696q0 197 -143 197q-74 0 -134 -61t-98 -179t-37 -243q0 -185 150 -185q75 -1 135 61t94 172t33 238z
M444 1452h619l-45 -211h-619z" />
    <glyph glyph-name="Obreve" unicode="&#x14e;" horiz-adv-x="1495" 
d="M434 557q0 -317 254 -317q120 0 220 87t156 246t56 357q0 142 -65 220t-185 77q-120 1 -220 -91t-158 -252t-58 -327zM1432 926q0 -270 -99 -494t-271 -338t-412 -114t-384 148t-143 410q0 264 99 486t273 342q173 119 415 119t382 -144t140 -415zM930 1579
q-152 0 -238 73t-86 199q0 38 6 66h174q0 -65 36 -95t116 -30t130 27t66 98h189q-55 -338 -393 -338z" />
    <glyph glyph-name="obreve" unicode="&#x14f;" horiz-adv-x="1198" 
d="M1108 694q0 -209 -70 -372q-70 -162 -204 -252q-133 -90 -322 -90q-190 0 -306 118t-116 321q0 205 72 371t206 258q136 92 324 91q188 0 302 -118t114 -327zM805 696q0 197 -143 197q-74 0 -134 -61t-98 -179t-37 -243q0 -185 150 -185q75 -1 135 61t94 172t33 238z
M718 1241q-152 0 -238 73t-86 199q0 38 6 66h174q0 -65 36 -95t116 -30t130 27t66 98h189q-55 -338 -393 -338z" />
    <glyph glyph-name="Ohungarumlaut" unicode="&#x150;" horiz-adv-x="1495" 
d="M434 557q0 -317 254 -317q120 0 220 87t156 246t56 357q0 142 -65 220t-185 77q-120 1 -220 -91t-158 -252t-58 -327zM1432 926q0 -270 -99 -494t-271 -338t-412 -114t-384 148t-143 410q0 264 99 486t273 342q173 119 415 119t382 -144t140 -415zM1534 1907v-17
q-42 -54 -152 -148t-206 -163h-178v25q114 128 231 303h305zM1137 1907v-17q-43 -54 -153 -148t-205 -163h-178v25q114 128 231 303h305z" />
    <glyph glyph-name="ohungarumlaut" unicode="&#x151;" horiz-adv-x="1198" 
d="M1108 694q0 -209 -70 -372q-70 -162 -204 -252q-133 -90 -322 -90q-190 0 -306 118t-116 321q0 205 72 371t206 258q136 92 324 91q188 0 302 -118t114 -327zM805 696q0 197 -143 197q-74 0 -134 -61t-98 -179t-37 -243q0 -185 150 -185q75 -1 135 61t94 172t33 238z
M1308 1569v-17q-42 -54 -152 -148t-206 -163h-178v25q114 128 231 303h305zM911 1569v-17q-43 -54 -153 -148t-205 -163h-178v25q114 128 231 303h305z" />
    <glyph glyph-name="OE" unicode="&#x152;" horiz-adv-x="1845" 
d="M672 240q104 0 174 32l194 916q-62 39 -176 39t-214.5 -91.5t-158 -251.5t-57.5 -327t67 -242t171 -75zM666 -20q-256 0 -399.5 147t-143.5 411t99 486.5t273 341.5t402 119q140 0 209 -23h809l-53 -254h-512l-68 -321h477l-55 -254h-477l-80 -377h512l-53 -256h-760
q-93 -20 -180 -20z" />
    <glyph glyph-name="oe" unicode="&#x153;" horiz-adv-x="1806" 
d="M1466 827q0 95 -96 95t-173.5 -78.5t-102.5 -196.5h45q155 0 241 48.5t86 131.5zM393 414q0 -189 146 -189q109 0 179 134.5t70 336.5q0 96 -37 146.5t-107 50.5t-126 -60.5t-90.5 -176.5t-34.5 -242zM90 422q0 208 69 372.5t200 254.5t309 90q209 0 313 -160
q154 160 399 160q177 0 276 -81.5t99 -223.5q0 -187 -167 -288.5t-476 -101.5h-51l-2 -21v-20q0 -91 50.5 -143.5t142.5 -52.5t163 19t172 67v-227q-174 -86 -389 -86q-116 0 -208 38.5t-138 106.5q-134 -145 -338 -145q-203 0 -313.5 117t-110.5 325z" />
    <glyph glyph-name="Racute" unicode="&#x154;" horiz-adv-x="1247" 
d="M721 1462q237 0 356 -102t119 -299q0 -157 -83 -271t-239 -169l261 -621h-332l-207 561h-119l-119 -561h-305l309 1462h359zM885 1044q0 164 -197 164h-74l-84 -395h78q131 0 204 57t73 174zM1202 1907v-17q-46 -56 -154 -152t-194 -159h-209v25q79 88 222 303h335z" />
    <glyph glyph-name="racute" unicode="&#x155;" horiz-adv-x="862" 
d="M842 1139q59 0 96 -11l-66 -290q-45 16 -100 16q-116 0 -204 -92t-124 -262l-106 -500h-301l237 1118h230l-21 -207h6q147 228 353 228zM1016 1569v-17q-46 -56 -154 -152t-194 -159h-209v25q79 88 222 303h335z" />
    <glyph glyph-name="Rcommaaccent" unicode="&#x156;" horiz-adv-x="1247" 
d="M721 1462q237 0 356 -102t119 -299q0 -157 -83 -271t-239 -169l261 -621h-332l-207 561h-119l-119 -561h-305l309 1462h359zM885 1044q0 164 -197 164h-74l-84 -395h78q131 0 204 57t73 174zM706 -125v-20q-72 -135 -227 -308h-180v27q77 157 125 301h282z" />
    <glyph glyph-name="rcommaaccent" unicode="&#x157;" horiz-adv-x="862" 
d="M842 1139q59 0 96 -11l-66 -290q-45 16 -100 16q-116 0 -204 -92t-124 -262l-106 -500h-301l237 1118h230l-21 -207h6q147 228 353 228zM312 -125v-20q-72 -135 -227 -308h-180v27q77 157 125 301h282z" />
    <glyph glyph-name="Rcaron" unicode="&#x158;" horiz-adv-x="1247" 
d="M721 1462q237 0 356 -102t119 -299q0 -157 -83 -271t-239 -169l261 -621h-332l-207 561h-119l-119 -561h-305l309 1462h359zM885 1044q0 164 -197 164h-74l-84 -395h78q131 0 204 57t73 174zM443 1907h198q63 -53 162 -168q115 94 232 168h217v-25q-212 -198 -295 -303
h-338q-49 120 -176 303v25z" />
    <glyph glyph-name="rcaron" unicode="&#x159;" horiz-adv-x="862" 
d="M842 1139q59 0 96 -11l-66 -290q-45 16 -100 16q-116 0 -204 -92t-124 -262l-106 -500h-301l237 1118h230l-21 -207h6q147 228 353 228zM259 1569h198q63 -53 162 -168q115 94 232 168h217v-25q-212 -198 -295 -303h-338q-49 120 -176 303v25z" />
    <glyph glyph-name="Sacute" unicode="&#x15a;" horiz-adv-x="1085" 
d="M946 432q0 -208 -148 -330t-385 -122t-372 90v274q193 -108 358 -108q112 0 175 42t63 119q0 76 -52 134q-25 28 -124 102q-138 99 -194 196t-56 217t62 222q63 102 177 158t263 57q217 0 397 -99l-109 -233q-155 74 -263 74t-161 -45q-53 -44 -53 -112t33 -114t151 -122
q238 -156 238 -400zM1144 1907v-17q-46 -56 -154 -152t-194 -159h-209v25q79 88 222 303h335z" />
    <glyph glyph-name="sacute" unicode="&#x15b;" horiz-adv-x="969" 
d="M366 -20q-214 0 -343 65v248q157 -90 319 -90q80 1 131 33t51 82t-37 83q-37 34 -145 94q-108 59 -155 127q-48 68 -48 160q1 170 111 264t313 93q203 0 365 -95l-99 -215q-140 84 -258 84q-57 1 -92 -25t-35 -67t32 -71t138 -83q216 -110 215 -298q-1 -189 -125 -289
t-338 -100zM1000 1569v-17q-46 -56 -154 -152t-194 -159h-209v25q79 88 222 303h335z" />
    <glyph glyph-name="Scircumflex" unicode="&#x15c;" horiz-adv-x="1085" 
d="M946 432q0 -208 -148 -330t-385 -122t-372 90v274q193 -108 358 -108q112 0 175 42t63 119q0 76 -52 134q-25 28 -124 102q-138 99 -194 196t-56 217t62 222q63 102 177 158t263 57q217 0 397 -99l-109 -233q-155 74 -263 74t-161 -45q-53 -44 -53 -112t33 -114t151 -122
q238 -156 238 -400zM1124 1579h-198q-63 53 -162 168q-105 -88 -232 -168h-217v25q196 177 295 303h338q49 -120 176 -303v-25z" />
    <glyph glyph-name="scircumflex" unicode="&#x15d;" horiz-adv-x="969" 
d="M366 -20q-214 0 -343 65v248q157 -90 319 -90q80 1 131 33t51 82t-37 83q-37 34 -145 94q-108 59 -155 127q-48 68 -48 160q1 170 111 264t313 93q203 0 365 -95l-99 -215q-140 84 -258 84q-57 1 -92 -25t-35 -67t32 -71t138 -83q216 -110 215 -298q-1 -189 -125 -289
t-338 -100zM980 1241h-198q-63 53 -162 168q-105 -88 -232 -168h-217v25q196 177 295 303h338q49 -120 176 -303v-25z" />
    <glyph glyph-name="Scedilla" unicode="&#x15e;" horiz-adv-x="1085" 
d="M376 -242q0 72 -141 88l85 137q-169 13 -279 87v274q193 -108 358 -108q112 0 175 42t63 119q0 76 -52 134q-25 28 -124 102q-138 99 -194 196t-56 217t62 222q63 102 177 158t263 57q217 0 397 -99l-109 -233q-155 74 -263 74t-161 -45q-53 -44 -53 -112t33 -114
t151 -122q238 -156 238 -400q0 -208 -148 -330q-114 -93 -289 -115l-32 -59q141 -50 141 -172t-83 -185t-234 -63q-86 0 -152 23v168q63 -23 125 -23q102 0 102 82z" />
    <glyph glyph-name="scedilla" unicode="&#x15f;" horiz-adv-x="969" 
d="M342 203q80 1 131 33t51 82t-37 83q-37 34 -145 94q-108 59 -155 127q-48 68 -48 160q1 170 111 264t313 93q203 0 365 -95l-99 -215q-140 84 -258 84q-57 1 -92 -25t-35 -67t32 -71t138 -83q216 -110 215 -298q-1 -189 -125 -289q-96 -77 -249 -95l-31 -57
q141 -50 141 -172t-83 -185t-234 -63q-86 0 -152 23v168q63 -23 125 -23q102 0 102 82q0 72 -141 88l85 137q-142 10 -244 62v248q157 -90 319 -90z" />
    <glyph glyph-name="Scaron" unicode="&#x160;" horiz-adv-x="1085" 
d="M946 432q0 -208 -148 -330t-385 -122t-372 90v274q193 -108 358 -108q112 0 175 42t63 119q0 76 -52 134q-25 28 -124 102q-138 99 -194 196t-56 217t62 222q63 102 177 158t263 57q217 0 397 -99l-109 -233q-155 74 -263 74t-161 -45q-53 -44 -53 -112t33 -114t151 -122
q238 -156 238 -400zM362 1907h198q63 -53 162 -168q115 94 232 168h217v-25q-212 -198 -295 -303h-338q-49 120 -176 303v25z" />
    <glyph glyph-name="scaron" unicode="&#x161;" horiz-adv-x="969" 
d="M366 -20q-214 0 -343 65v248q157 -90 319 -90q80 1 131 33t51 82t-37 83q-37 34 -145 94q-108 59 -155 127q-48 68 -48 160q1 170 111 264t313 93q203 0 365 -95l-99 -215q-140 84 -258 84q-57 1 -92 -25t-35 -67t32 -71t138 -83q216 -110 215 -298q-1 -189 -125 -289
t-338 -100zM249 1569h198q63 -53 162 -168q115 94 232 168h217v-25q-212 -198 -295 -303h-338q-49 120 -176 303v25z" />
    <glyph glyph-name="Tcedilla" unicode="&#x162;" horiz-adv-x="1087" 
d="M368 -242q0 72 -141 88l96 154h-57l254 1204h-352l55 258h1010l-55 -258h-353l-254 -1204h-63l-39 -72q141 -50 141 -172t-83 -185t-234 -63q-86 0 -152 23v168q63 -23 125 -23q102 0 102 82z" />
    <glyph glyph-name="tcedilla" unicode="&#x163;" horiz-adv-x="840" 
d="M119 238q0 50 12 112l115 539h-152l29 147l196 84l132 236h194l-49 -238h283l-50 -229h-282l-115 -539q-6 -30 -6 -53q0 -74 88 -74q65 0 162 35v-225q-99 -47 -234 -52l-28 -53q141 -50 141 -172t-83 -185t-234 -63q-86 0 -152 23v168q63 -23 125 -23q102 0 102 82
q0 72 -141 88l96 154q-149 49 -149 238z" />
    <glyph glyph-name="Tcaron" unicode="&#x164;" horiz-adv-x="1087" 
d="M571 0h-305l254 1204h-352l55 258h1010l-55 -258h-353zM397 1907h198q63 -53 162 -168q115 94 232 168h217v-25q-212 -198 -295 -303h-338q-49 120 -176 303v25z" />
    <glyph glyph-name="tcaron" unicode="&#x165;" horiz-adv-x="840" 
d="M514 223q65 0 162 35v-225q-112 -53 -264 -53t-222 63t-71 195q0 50 12 112l115 539h-152l29 147l196 84l132 236h194l-49 -238h283l-50 -229h-282l-115 -539q-6 -30 -6 -53q0 -74 88 -74zM1159 1576v-20q-31 -58 -97 -148t-130 -159h-180v26q83 178 124 301h283z" />
    <glyph glyph-name="Tbar" unicode="&#x166;" horiz-adv-x="1087" 
d="M750 850h235l-55 -254h-234l-125 -596h-305l125 596h-225l55 254h223l76 354h-352l55 258h1010l-55 -258h-353z" />
    <glyph glyph-name="tbar" unicode="&#x167;" horiz-adv-x="840" 
d="M514 223q65 0 162 35v-225q-112 -53 -264 -53t-222.5 63t-70.5 195q0 50 12 112l33 148h-133l41 198h133l41 193h-152l29 147l196 84l132 236h194l-49 -238h283l-50 -229h-282l-41 -193h233l-41 -198h-235l-31 -148q-6 -30 -6 -53q0 -74 88 -74z" />
    <glyph glyph-name="Utilde" unicode="&#x168;" horiz-adv-x="1415" 
d="M596 -20q-212 0 -334 114t-121 307q0 72 15 138l196 923h305l-194 -919q-17 -74 -17 -125q0 -178 189 -178q123 0 195 76t104 229l194 917h306l-201 -946q-57 -266 -218 -401t-419 -135zM791 1684q-65 0 -94 -107h-177q59 309 281 309q70 0 159 -52q33 -20 62 -36
q30 -16 62 -16t56 26t46 80h172q-66 -309 -287 -309q-70 1 -156 53q-31 20 -61 36t-63 16z" />
    <glyph glyph-name="utilde" unicode="&#x169;" horiz-adv-x="1237" 
d="M410 346q0 -123 108 -123q92 0 167 114t118 318l98 463h301l-237 -1118h-230l21 207h-6q-145 -227 -355 -227q-138 0 -211 82t-73 239q0 93 24 213l127 604h301l-137 -653q-16 -68 -16 -119zM635 1346q-65 0 -94 -107h-177q59 309 281 309q70 0 159 -52q33 -20 62 -36
q30 -16 62 -16t56 26t46 80h172q-66 -309 -287 -309q-70 1 -156 53q-31 20 -61 36t-63 16z" />
    <glyph glyph-name="Umacron" unicode="&#x16a;" horiz-adv-x="1415" 
d="M596 -20q-212 0 -334 114t-121 307q0 72 15 138l196 923h305l-194 -919q-17 -74 -17 -125q0 -178 189 -178q123 0 195 76t104 229l194 917h306l-201 -946q-57 -266 -218 -401t-419 -135zM647 1790h619l-45 -211h-619z" />
    <glyph glyph-name="umacron" unicode="&#x16b;" horiz-adv-x="1237" 
d="M410 346q0 -123 108 -123q92 0 167 114t118 318l98 463h301l-237 -1118h-230l21 207h-6q-145 -227 -355 -227q-138 0 -211 82t-73 239q0 93 24 213l127 604h301l-137 -653q-16 -68 -16 -119zM487 1452h619l-45 -211h-619z" />
    <glyph glyph-name="Ubreve" unicode="&#x16c;" horiz-adv-x="1415" 
d="M596 -20q-212 0 -334 114t-121 307q0 72 15 138l196 923h305l-194 -919q-17 -74 -17 -125q0 -178 189 -178q123 0 195 76t104 229l194 917h306l-201 -946q-57 -266 -218 -401t-419 -135zM916 1579q-152 0 -238 73t-86 199q0 38 6 66h174q0 -65 36 -95t116 -30t130 27
t66 98h189q-55 -338 -393 -338z" />
    <glyph glyph-name="ubreve" unicode="&#x16d;" horiz-adv-x="1237" 
d="M410 346q0 -123 108 -123q92 0 167 114t118 318l98 463h301l-237 -1118h-230l21 207h-6q-145 -227 -355 -227q-138 0 -211 82t-73 239q0 93 24 213l127 604h301l-137 -653q-16 -68 -16 -119zM768 1241q-152 0 -238 73t-86 199q0 38 6 66h174q0 -65 36 -95t116 -30t130 27
t66 98h189q-55 -338 -393 -338z" />
    <glyph glyph-name="Uring" unicode="&#x16e;" horiz-adv-x="1415" 
d="M596 -20q-212 0 -334 114t-121 307q0 72 15 138l196 923h305l-194 -919q-17 -74 -17 -125q0 -178 189 -178q123 0 195 76t104 229l194 917h306l-201 -946q-57 -266 -218 -401t-419 -135zM844 1815q0 -97 96 -97q42 0 70 26t27 71q1 45 -27 71t-70 25q-42 1 -69 -25
t-27 -71zM1194 1816q0 -106 -70 -172t-182 -67t-181 63t-69 174t68 174t180 64q110 0 182 -65t72 -171z" />
    <glyph glyph-name="uring" unicode="&#x16f;" horiz-adv-x="1237" 
d="M410 346q0 -123 108 -123q92 0 167 114t118 318l98 463h301l-237 -1118h-230l21 207h-6q-145 -227 -355 -227q-138 0 -211 82t-73 239q0 93 24 213l127 604h301l-137 -653q-16 -68 -16 -119zM684 1477q0 -97 96 -97q42 0 70 26t27 71q1 45 -27 71t-70 25q-42 1 -69 -25
t-27 -71zM1034 1478q0 -106 -70 -172t-182 -67t-181 63t-69 174t68 174t180 64q110 0 182 -65t72 -171z" />
    <glyph glyph-name="Uhungarumlaut" unicode="&#x170;" horiz-adv-x="1415" 
d="M596 -20q-212 0 -334 114t-121 307q0 72 15 138l196 923h305l-194 -919q-17 -74 -17 -125q0 -178 189 -178q123 0 195 76t104 229l194 917h306l-201 -946q-57 -266 -218 -401t-419 -135zM1531 1907v-17q-43 -54 -153 -148t-205 -163h-178v25q114 128 231 303h305z
M1134 1907v-17q-42 -54 -152 -148t-206 -163h-178v25q114 128 231 303h305z" />
    <glyph glyph-name="uhungarumlaut" unicode="&#x171;" horiz-adv-x="1237" 
d="M410 346q0 -123 108 -123q92 0 167 114t118 318l98 463h301l-237 -1118h-230l21 207h-6q-145 -227 -355 -227q-138 0 -211 82t-73 239q0 93 24 213l127 604h301l-137 -653q-16 -68 -16 -119zM1362 1569v-17q-42 -54 -152 -148t-206 -163h-178v25q114 128 231 303h305z
M965 1569v-17q-43 -54 -153 -148t-205 -163h-178v25q114 128 231 303h305z" />
    <glyph glyph-name="Uogonek" unicode="&#x172;" horiz-adv-x="1415" 
d="M672 -250q0 -59 60 -59q44 0 102 18v-176q-84 -25 -175 -25t-151 54t-59 138q0 85 45 150t141 131q-19 -1 -39 -1q-212 0 -334 114t-121 307q0 72 15 138l196 923h305l-194 -919q-17 -74 -17 -125q0 -178 189 -178q123 0 195 76t104 229l194 917h306l-201 -946
q-92 -431 -453 -516h83q-119 -96 -155 -148t-36 -102z" />
    <glyph glyph-name="uogonek" unicode="&#x173;" horiz-adv-x="1237" 
d="M743 -250q0 -59 60 -59q44 0 102 18v-176q-84 -25 -175 -25q-90 0 -150 54t-60 138q0 85 48 154t167 146l21 207h-6q-145 -227 -355 -227q-138 0 -211 82t-73 239q0 93 24 213l127 604h301l-137 -653q-16 -68 -16 -119q0 -123 108 -123q92 0 167 114t118 318l98 463h301
l-237 -1118h-31q-119 -96 -155 -148t-36 -102z" />
    <glyph glyph-name="Wcircumflex" unicode="&#x174;" horiz-adv-x="1831" 
d="M477 664q0 -223 -14 -347h6q22 65 67 181t60 145l369 819h270l21 -873q0 -146 -9 -272h6q43 129 131 349l330 796h309l-647 -1462h-346l-22 721l-2 139q0 88 4 158h-4q-46 -146 -115 -299l-324 -719h-338l-45 1462h287zM1519 1579h-198q-63 53 -162 168
q-105 -88 -232 -168h-217v25q196 177 295 303h338q49 -120 176 -303v-25z" />
    <glyph glyph-name="wcircumflex" unicode="&#x175;" horiz-adv-x="1614" 
d="M1073 1118v-536q0 -142 -10 -297h6l28 80q73 208 95 258l219 495h307l-530 -1118h-330l-6 520q0 155 10 340h-6q-62 -178 -123 -319l-233 -541h-324l-51 1118h281l4 -495l-4 -167l-7 -171h4q6 21 57 157t54 140l231 536h328zM1321 1241h-198q-63 53 -162 168
q-105 -88 -232 -168h-217v25q196 177 295 303h338q49 -120 176 -303v-25z" />
    <glyph glyph-name="Ycircumflex" unicode="&#x176;" horiz-adv-x="1155" 
d="M627 870l374 592h342l-618 -903l-119 -559h-303l119 559l-236 903h312zM1151 1579h-198q-63 53 -162 168q-105 -88 -232 -168h-217v25q196 177 295 303h338q49 -120 176 -303v-25z" />
    <glyph glyph-name="ycircumflex" unicode="&#x177;" horiz-adv-x="1063" 
d="M467 307h6q20 51 44 119t65 154l260 538h327l-680 -1278q-177 -332 -483 -332q-90 0 -147 19v240q68 -13 134 -13q142 0 247 197l26 49l-164 1118h295l56 -518q14 -122 14 -293zM1033 1241h-198q-63 53 -162 168q-105 -88 -232 -168h-217v25q196 177 295 303h338
q49 -120 176 -303v-25z" />
    <glyph glyph-name="Ydieresis" unicode="&#x178;" horiz-adv-x="1155" 
d="M627 870l374 592h342l-618 -903l-119 -559h-303l119 559l-236 903h312zM996 1878q133 0 133 -108q1 -72 -39 -116t-121 -44q-135 0 -135 110q0 158 162 158zM432 1720q0 78 42 118t120 40q133 0 133 -108q0 -72 -39 -116t-121 -44q-135 0 -135 110z" />
    <glyph glyph-name="Zacute" unicode="&#x179;" horiz-adv-x="1098" 
d="M920 0h-981l38 201l777 1005h-543l53 256h936l-41 -202l-782 -1004h596zM1146 1907v-17q-46 -56 -154 -152t-194 -159h-209v25q79 88 222 303h335z" />
    <glyph glyph-name="zacute" unicode="&#x17a;" horiz-adv-x="932" 
d="M748 0h-795l35 180l575 705h-397l51 233h750l-43 -200l-566 -685h439zM1033 1569v-17q-46 -56 -154 -152t-194 -159h-209v25q79 88 222 303h335z" />
    <glyph glyph-name="Zdotaccent" unicode="&#x17b;" horiz-adv-x="1098" 
d="M920 0h-981l38 201l777 1005h-543l53 256h936l-41 -202l-782 -1004h596zM776 1894q149 0 149 -120q0 -80 -44 -130t-136 -49q-151 0 -151 123q0 88 48 132t134 44z" />
    <glyph glyph-name="zdotaccent" unicode="&#x17c;" horiz-adv-x="932" 
d="M748 0h-795l35 180l575 705h-397l51 233h750l-43 -200l-566 -685h439zM637 1556q149 0 149 -120q0 -80 -44 -130t-136 -49q-151 0 -151 123q-1 88 47 132t135 44z" />
    <glyph glyph-name="Zcaron" unicode="&#x17d;" horiz-adv-x="1098" 
d="M920 0h-981l38 201l777 1005h-543l53 256h936l-41 -202l-782 -1004h596zM387 1907h198q63 -53 162 -168q115 94 232 168h217v-25q-212 -198 -295 -303h-338q-49 120 -176 303v25z" />
    <glyph glyph-name="zcaron" unicode="&#x17e;" horiz-adv-x="932" 
d="M748 0h-795l35 180l575 705h-397l51 233h750l-43 -200l-566 -685h439zM265 1569h198q63 -53 162 -168q115 94 232 168h217v-25q-212 -198 -295 -303h-338q-49 120 -176 303v25z" />
    <glyph glyph-name="longs" unicode="&#x17f;" horiz-adv-x="733" 
d="M-72 -492q-104 0 -174 25v242q61 -21 115 -21q136 0 172 170l272 1278q42 192 139.5 278.5t272.5 86.5q129 0 236 -49l-80 -224q-69 31 -129 31q-112 0 -144 -145l-276 -1301q-77 -371 -404 -371z" />
    <glyph glyph-name="florin" unicode="&#x192;" horiz-adv-x="1128" 
d="M143 -492q-104 0 -174 25v242q61 -21 115 -21q136 0 172 170l186 881h-168l29 149l189 80l18 84q41 190 138.5 277.5t273.5 87.5q131 0 235 -49l-80 -224q-69 31 -129 31q-116 0 -143 -145l-12 -62h219l-49 -229h-220l-196 -926q-77 -371 -404 -371z" />
    <glyph glyph-name="Ohorn" unicode="&#x1a0;" horiz-adv-x="1581" 
d="M434 557q0 -317 187.5 -317t287 87t155.5 246t56 357q0 142 -65 219.5t-185 77.5t-220.5 -91.5t-158 -251.5t-57.5 -327zM1432 938q0 -283 -99 -506.5t-271 -337.5t-412 -114t-383.5 147t-143.5 411t99 486.5t273 341.5t402 119q306 0 444 -207q112 74 144 278h303
l10 -24q-47 -159 -140.5 -263.5t-244.5 -162.5q19 -84 19 -168z" />
    <glyph glyph-name="ohorn" unicode="&#x1a1;" horiz-adv-x="1317" 
d="M805 696q0 197 -143 197q-75 0 -134.5 -61t-97 -179t-37.5 -243q0 -185 150 -185q75 0 135 61.5t93.5 171t33.5 238.5zM684 1139q219 0 334 -146q68 27 110 96t64 197h295l10 -24q-48 -180 -140.5 -278.5t-262.5 -158.5q14 -51 14 -129q0 -211 -70.5 -374t-203.5 -252.5
t-322 -89.5t-305.5 117.5t-116.5 321.5t71.5 370.5t206.5 258t316 91.5z" />
    <glyph glyph-name="Uhorn" unicode="&#x1af;" horiz-adv-x="1587" 
d="M596 -20q-212 0 -333.5 113.5t-121.5 307.5q0 72 15 138l196 923h305l-194 -919q-17 -74 -17 -125q0 -178 189 -178q123 0 195 76.5t104 228.5l194 917h306l-39 -184q76 24 118 86.5t62 191.5h303l10 -24q-60 -204 -197 -316.5t-337 -125.5l-121 -574q-57 -266 -218 -401
t-419 -135z" />
    <glyph glyph-name="uhorn" unicode="&#x1b0;" horiz-adv-x="1456" 
d="M410 346q0 -123 108 -123q92 0 167 114t118 318l98 463h301l-24 -112q97 25 129.5 98.5t52.5 179.5h303l10 -24q-58 -201 -194 -314t-340 -129l-174 -817h-230l21 207h-6q-145 -227 -355 -227q-137 0 -213 82.5t-76 238.5q0 68 29 213l127 604h301l-137 -653
q-16 -68 -16 -119z" />
    <glyph glyph-name="uni01F0" unicode="&#x1f0;" horiz-adv-x="608" 
d="M-88 -492q-104 0 -174 25v242q60 -21 118 -21t104 40t65 130l254 1194h301l-265 -1239q-77 -371 -403 -371zM97 1569h198q63 -53 162 -168q115 94 232 168h217v-25q-212 -198 -295 -303h-338q-49 120 -176 303v25z" />
    <glyph glyph-name="Aringacute" unicode="&#x1fa;" horiz-adv-x="1286" 
d="M768 1149q-43 -111 -96 -217l-174 -342h323l-26 309q-10 85 -15 250h-12zM735 1434.5q0 -70.5 96 -70.5q42 0 69.5 25.5t27.5 70.5t-27.5 70.5t-69.5 25.5t-69 -25.5t-27 -96zM768 1753v14q36 27 102.5 87.5t108.5 107.5h342v-10q-117 -99 -338 -199h-215zM1085 1459
q0 -109 -77 -177l155 -1282h-297l-30 330h-469l-170 -330h-320l731 1346q-24 48 -24 114q0 110 68 174t178 64t182.5 -65t72.5 -174z" />
    <glyph glyph-name="aringacute" unicode="&#x1fb;" horiz-adv-x="1206" 
d="M395 399q0 -176 129 -176q69 0 133 67t103 181.5t39 259.5q0 71 -38.5 117.5t-104.5 46.5t-127 -72t-97.5 -190t-36.5 -234zM608 1139q197 0 277 -164h8l57 143h232l-238 -1118h-229l14 145h-4q-134 -165 -319 -165q-147 0 -231.5 106.5t-84.5 301.5t72 374.5t189 278
t257 98.5zM645 1410q0 -71 96 -71q42 0 69.5 26t27.5 71t-27.5 70.5t-69.5 25.5t-69 -25.5t-27 -96.5zM995 1437q0 -106 -70 -172.5t-183 -66.5t-180.5 65t-67.5 173t67.5 172.5t178.5 64.5t183 -65t72 -171zM1233 1962v-10q-117 -99 -338 -199h-215v14q123 98 211 195h342z
" />
    <glyph glyph-name="AEacute" unicode="&#x1fc;" horiz-adv-x="1833" 
d="M905 608l127 600h-80l-364 -600h317zM1593 0h-817l74 348h-426l-219 -348h-328l922 1462h1104l-54 -254h-512l-67 -321h477l-55 -254h-478l-79 -377h512zM1685 1907v-17q-46 -56 -154 -152t-194 -159h-209v25q79 88 222 303h335z" />
    <glyph glyph-name="aeacute" unicode="&#x1fd;" horiz-adv-x="1786" 
d="M1446 827q0 95 -96 95t-175 -80q-78 -80 -102 -195h45q156 1 242 49t86 131zM788 696q0 200 -134 199q-68 0 -129 -69q-60 -70 -95 -186t-35 -241q0 -176 130 -176q65 0 127 68q62 69 99 185t37 220zM1038 406q0 -199 238 -199q127 0 291 86v-227q-179 -86 -361 -86
q-110 0 -180 27t-117 87l-16 -94h-188l14 145h-6q-71 -89 -147 -127t-167 -38q-145 0 -227 109t-82 303t68 368q68 176 186 278q116 102 258 101q96 -1 160 -39t115 -125h6l57 143h188l-18 -90q44 49 120 80t169 31q157 1 247 -83t89 -222q0 -186 -167 -288t-476 -102h-52
l-2 -19v-19zM1505 1569v-17q-46 -56 -154 -152t-194 -159h-209v25q79 88 222 303h335z" />
    <glyph glyph-name="Oslashacute" unicode="&#x1fe;" horiz-adv-x="1495" 
d="M707 233q109 0 211 89q102 90 158 248t57 360l-5 80l-589 -740q59 -37 168 -37zM870 1233q-126 1 -229 -91t-160 -253t-57 -352q0 -32 8 -101l596 754q-69 43 -158 43zM1432 938q0 -282 -99 -506t-271 -338t-374 -114t-326 71l-108 -137l-154 115l121 151
q-98 138 -98 380t99 464t273 342q174 119 379 119t328 -76l105 131l151 -117l-117 -145q91 -134 91 -340zM1310 1907v-17q-46 -56 -154 -152t-194 -159h-209v25q79 88 222 303h335z" />
    <glyph glyph-name="oslashacute" unicode="&#x1ff;" horiz-adv-x="1198" 
d="M543 215q114 0 193 133t79 318v16l-358 -444q32 -23 86 -23zM648 903q-66 -1 -130 -63t-98 -169t-35 -233v-12l365 453q-35 24 -102 24zM1108 667q0 -182 -70 -345q-70 -162 -204 -252q-133 -90 -316 -90q-123 0 -225 53l-109 -135l-141 108l119 148q-72 107 -72 256
q0 214 72 380t206 258q135 92 316 91q131 0 227 -56l70 88l145 -110l-84 -105q66 -107 66 -289zM1112 1569v-17q-46 -56 -154 -152t-194 -159h-209v25q79 88 222 303h335z" />
    <glyph glyph-name="Scommaaccent" unicode="&#x218;" horiz-adv-x="1085" 
d="M946 432q0 -208 -148 -330t-385 -122t-372 90v274q193 -108 358 -108q112 0 175 42t63 119q0 76 -52 134q-25 28 -124 102q-138 99 -194 196t-56 217t62 222q63 102 177 158t263 57q217 0 397 -99l-109 -233q-155 74 -263 74t-161 -45q-53 -44 -53 -112t33 -114t151 -122
q238 -156 238 -400zM557 -125v-20q-72 -135 -227 -308h-180v27q77 157 125 301h282z" />
    <glyph glyph-name="scommaaccent" unicode="&#x219;" horiz-adv-x="969" 
d="M366 -20q-214 0 -343 65v248q157 -90 319 -90q80 1 131 33t51 82t-37 83q-37 34 -145 94q-108 59 -155 127q-48 68 -48 160q1 170 111 264t313 93q203 0 365 -95l-99 -215q-140 84 -258 84q-57 1 -92 -25t-35 -67t32 -71t138 -83q216 -110 215 -298q-1 -189 -125 -289
t-338 -100zM515 -125v-20q-72 -135 -227 -308h-180v27q77 157 125 301h282z" />
    <glyph glyph-name="Tcommaaccent" unicode="&#x21a;" horiz-adv-x="1087" 
d="M571 0h-305l254 1204h-352l55 258h1010l-55 -258h-353zM534 -125v-20q-72 -135 -227 -308h-180v27q77 157 125 301h282z" />
    <glyph glyph-name="tcommaaccent" unicode="&#x21b;" horiz-adv-x="840" 
d="M514 223q65 0 162 35v-225q-112 -53 -264 -53t-222 63t-71 195q0 50 12 112l115 539h-152l29 147l196 84l132 236h194l-49 -238h283l-50 -229h-282l-115 -539q-6 -30 -6 -53q0 -74 88 -74zM463 -125v-20q-72 -135 -227 -308h-180v27q77 157 125 301h282z" />
    <glyph glyph-name="dotlessj" unicode="&#x237;" horiz-adv-x="608" 
d="M-88 -492q-104 0 -174 25v242q60 -21 118 -21t104 40t65 130l254 1194h301l-265 -1239q-77 -371 -403 -371z" />
    <glyph glyph-name="uni02BC" unicode="&#x2bc;" horiz-adv-x="440" 
d="M586 1462l8 -22q-103 -227 -262 -479h-226q89 206 195 501h285z" />
    <glyph glyph-name="circumflex" unicode="&#x2c6;" horiz-adv-x="1135" 
d="M1120 1241h-198q-63 53 -162 168q-105 -88 -232 -168h-217v25q196 177 295 303h338q49 -120 176 -303v-25z" />
    <glyph glyph-name="caron" unicode="&#x2c7;" horiz-adv-x="1135" 
d="M377 1569h198q63 -53 162 -168q115 94 232 168h217v-25q-212 -198 -295 -303h-338q-49 120 -176 303v25z" />
    <glyph glyph-name="macron" unicode="&#x2c9;" horiz-adv-x="1096" 
d="M430 1452h619l-45 -211h-619z" />
    <glyph glyph-name="breve" unicode="&#x2d8;" horiz-adv-x="1135" 
d="M754 1241q-153 0 -238.5 73t-85.5 199q0 38 6 66h174q0 -65 36 -95t116 -30t129.5 27t66.5 98h189q-55 -338 -393 -338z" />
    <glyph glyph-name="dotaccent" unicode="&#x2d9;" horiz-adv-x="608" 
d="M504 1556q149 0 149 -120q0 -80 -44 -129.5t-136 -49.5q-151 0 -151 123q0 87 47.5 131.5t134.5 44.5z" />
    <glyph glyph-name="ring" unicode="&#x2da;" horiz-adv-x="1182" 
d="M684 1451q0 -71 96 -71q42 0 69.5 26t27.5 71t-27.5 70.5t-69.5 25.5t-69 -25.5t-27 -96.5zM1034 1478q0 -106 -70 -172.5t-182 -66.5t-181 63.5t-69 173.5t69 174t179 64t182 -65t72 -171z" />
    <glyph glyph-name="ogonek" unicode="&#x2db;" horiz-adv-x="422" 
d="M51 -250q0 -59 60 -59q44 0 102 18v-176q-84 -25 -175 -25t-150.5 53.5t-59.5 138.5t47.5 154t167.5 146h199q-119 -96 -155 -148t-36 -102z" />
    <glyph glyph-name="tilde" unicode="&#x2dc;" horiz-adv-x="1135" 
d="M586 1346q-65 0 -94 -107h-177q59 309 281 309q70 0 131 -36t90 -52t61 -16t56.5 25.5t46.5 80.5h172q-66 -309 -287 -309q-70 0 -129 36t-88.5 52.5t-62.5 16.5z" />
    <glyph glyph-name="hungarumlaut" unicode="&#x2dd;" horiz-adv-x="1135" 
d="M1212 1569v-17q-43 -53 -152.5 -147.5t-205.5 -163.5h-178v25q114 128 231 303h305zM815 1569v-17q-43 -53 -152.5 -147.5t-205.5 -163.5h-178v25q114 128 231 303h305z" />
    <glyph glyph-name="uni02F3" unicode="&#x2f3;" horiz-adv-x="682" 
d="M49 -388q0 -71 96 -71q42 0 69.5 26t27.5 71t-27.5 70.5t-69.5 25.5t-69 -25.5t-27 -96.5zM399 -361q0 -106 -70 -172.5t-183 -66.5t-180.5 65t-67.5 173t67.5 172.5t178.5 64.5t183 -65t72 -171z" />
    <glyph glyph-name="uni0300" unicode="&#x300;" horiz-adv-x="0" 
d="M-785 1569h311q36 -148 115 -303v-25h-184q-166 161 -242 307v21z" />
    <glyph glyph-name="uni0301" unicode="&#x301;" horiz-adv-x="0" 
d="M-36 1569v-17q-46 -56 -154 -152t-194 -159h-209v25q79 88 222 303h335z" />
    <glyph glyph-name="uni0303" unicode="&#x303;" horiz-adv-x="0" 
d="M-625 1346q-65 0 -94 -107h-177q59 309 281 309q70 0 159 -52q33 -20 62 -36q30 -16 62 -16t56 26t46 80h172q-66 -309 -287 -309q-70 1 -156 53q-31 20 -61 36t-63 16z" />
    <glyph glyph-name="hook" unicode="&#x309;" horiz-adv-x="0" 
d="M-416 1479q0 53 -57 53t-131 -21v164q72 25 184 25t179 -47.5t67 -136.5q0 -166 -197 -226l-20 -71h-182l14 147q78 14 110.5 41.5t32.5 71.5z" />
    <glyph glyph-name="uni030F" unicode="&#x30f;" horiz-adv-x="0" 
d="M-547 1569h283q37 -152 114 -303v-25h-155q-166 161 -242 307v21zM-928 1569h283q38 -156 115 -303v-25h-156q-166 161 -242 307v21z" />
    <glyph glyph-name="dotbelow" unicode="&#x323;" horiz-adv-x="0" 
d="M-926 -307q0 86 48 131t126 45q158 0 158 -121q0 -80 -44 -129t-136 -49q-152 0 -152 123z" />
    <glyph glyph-name="tonos" unicode="&#x384;" horiz-adv-x="1135" 
d="M999 1630v-24q-120 -198 -254 -365h-180v31q76 152 150 358h284z" />
    <glyph glyph-name="dieresistonos" unicode="&#x385;" horiz-adv-x="1135" 
d="M893 1382q0 78 38.5 118t102.5 40q125 0 125 -108q0 -73 -35.5 -116.5t-109.5 -43.5q-121 0 -121 110zM342 1382q0 78 38.5 118t102.5 40q125 0 125 -108q0 -73 -35.5 -116.5t-109.5 -43.5q-121 0 -121 110zM1024 1716v-20q-90 -143 -238 -307h-141v26q56 112 119 301
h260z" />
    <glyph glyph-name="Alphatonos" unicode="&#x386;" horiz-adv-x="1286" 
d="M791 1211v36q-44 -120 -109 -254l-188 -385h333l-26 350q-10 131 -10 253zM842 348h-473l-172 -348h-320l766 1468h373l147 -1468h-297zM508 1525v-24q-120 -198 -254 -365h-180v31q76 152 150 358h284z" />
    <glyph glyph-name="anoteleia" unicode="&#x387;" horiz-adv-x="584" 
d="M320 893q164 0 165 -154q0 -78 -55 -132t-144 -54q-155 -1 -155 153q-1 78 53 133q54 54 136 54z" />
    <glyph glyph-name="Epsilontonos" unicode="&#x388;" horiz-adv-x="1290" 
d="M1017 0h-817l309 1462h818l-54 -254h-512l-67 -321h477l-55 -254h-477l-80 -377h512zM468 1525v-24q-120 -198 -254 -365h-180v31q76 152 150 358h284z" />
    <glyph glyph-name="Etatonos" unicode="&#x389;" horiz-adv-x="1581" 
d="M1282 0h-306l134 631h-471l-134 -631h-305l309 1462h306l-121 -573h471l121 573h305zM468 1525v-24q-120 -198 -254 -365h-180v31q76 152 150 358h284z" />
    <glyph glyph-name="Iotatonos" unicode="&#x38a;" horiz-adv-x="805" 
d="M198 0l312 1462h305l-312 -1462h-305zM468 1525v-24q-120 -198 -254 -365h-180v31q76 152 150 358h284z" />
    <glyph glyph-name="Omicrontonos" unicode="&#x38c;" horiz-adv-x="1614" 
d="M553 557q0 -317 254 -317q121 0 221 87t155 246q56 159 56 357q0 142 -65 220q-64 78 -184 77q-120 1 -221 -91t-159 -252t-57 -327zM1551 926q0 -270 -99 -494t-271 -338t-412 -114q-239 0 -383 148t-144 410q0 264 99 486t273 342q174 119 416 119t381 -144
q140 -144 140 -415zM496 1525v-24q-120 -198 -254 -365h-180v31q76 152 150 358h284z" />
    <glyph glyph-name="Upsilontonos" unicode="&#x38e;" horiz-adv-x="1466" 
d="M938 870l374 592h342l-618 -903l-119 -559h-303l119 559l-236 903h312zM468 1525v-24q-120 -198 -254 -365h-180v31q76 152 150 358h284z" />
    <glyph glyph-name="Omegatonos" unicode="&#x38f;" horiz-adv-x="1636" 
d="M1012 1227q-118 0 -206 -63q-88 -64 -144 -188t-55 -271q0 -282 155 -429l-59 -276h-610l53 260h373q-101 64 -161 186t-59 273q0 223 93 401t257 272q163 93 399 93t382 -138t145 -383q0 -246 -108 -426t-309 -278h364l-55 -260h-649l59 276q387 227 387 652
q0 145 -67 222t-185 77zM496 1525v-24q-120 -198 -254 -365h-180v31q76 152 150 358h284z" />
    <glyph glyph-name="iotadieresistonos" unicode="&#x390;" horiz-adv-x="752" 
d="M492 223q66 0 161 35v-225q-111 -53 -263 -53t-222 62q-72 62 -72 196q0 52 23 157l153 723h301l-155 -741q-12 -59 -12 -82q0 -72 86 -72zM622 1382q0 78 38 118t103 40q125 0 125 -108q0 -72 -36 -116t-109 -44q-121 0 -121 110zM71 1382q1 78 39 118t102 40
q125 0 125 -108q1 -72 -35 -116t-110 -44q-121 0 -121 110zM753 1716v-20q-90 -143 -238 -307h-141v26q56 112 119 301h260z" />
    <glyph glyph-name="Alpha" unicode="&#x391;" horiz-adv-x="1286" 
d="M791 1211v36q-44 -120 -109 -254l-188 -385h333l-26 350q-10 131 -10 253zM842 348h-473l-172 -348h-320l766 1468h373l147 -1468h-297z" />
    <glyph glyph-name="Beta" unicode="&#x392;" horiz-adv-x="1270" 
d="M592 256q118 0 184 58t66 161q0 162 -183 162h-165l-82 -381h180zM694 883q242 0 242 188q0 137 -170 137h-152l-69 -325h149zM788 1462q463 0 463 -325q0 -149 -83 -247t-236 -130v-6q100 -26 160 -96t59 -181q0 -229 -153 -353t-423 -124h-522l309 1462h426z" />
    <glyph glyph-name="Gamma" unicode="&#x393;" horiz-adv-x="1030" 
d="M354 0h-301l309 1462h814l-54 -254h-512z" />
    <glyph glyph-name="uni0394" unicode="&#x394;" horiz-adv-x="1239" 
d="M752 1174q-16 -55 -58 -142l-375 -774h517l-76 758q-8 96 -8 158zM629 1468h352l141 -1294l-39 -174h-1136l35 180z" />
    <glyph glyph-name="Epsilon" unicode="&#x395;" horiz-adv-x="1110" 
d="M870 0h-817l309 1462h818l-54 -254h-512l-67 -321h477l-55 -254h-477l-80 -377h512z" />
    <glyph glyph-name="Zeta" unicode="&#x396;" horiz-adv-x="1098" 
d="M920 0h-981l38 201l777 1005h-543l53 256h936l-41 -202l-782 -1004h596z" />
    <glyph glyph-name="Eta" unicode="&#x397;" horiz-adv-x="1434" 
d="M1135 0h-306l134 631h-471l-134 -631h-305l309 1462h306l-121 -573h471l121 573h305z" />
    <glyph glyph-name="Theta" unicode="&#x398;" horiz-adv-x="1520" 
d="M880 1227q-126 0 -228 -84t-160 -243.5t-58 -352.5q0 -142 73 -224.5t203 -82.5t229.5 84.5t152.5 240.5t53 353q0 142 -69.5 225.5t-195.5 83.5zM1456 906q0 -272 -93 -485.5t-266 -327t-423 -113.5t-400.5 153t-150.5 423t100.5 487t275.5 329.5t421 112.5t391 -153.5
t145 -425.5zM1040 870l-53 -254h-444l53 254h444z" />
    <glyph glyph-name="Iota" unicode="&#x399;" horiz-adv-x="659" 
d="M53 0l312 1462h305l-312 -1462h-305z" />
    <glyph glyph-name="Kappa" unicode="&#x39a;" horiz-adv-x="1255" 
d="M1141 0h-338l-211 592l-125 -70l-109 -522h-305l309 1462h306l-152 -702l158 205l409 497h361l-594 -700z" />
    <glyph glyph-name="Lambda" unicode="&#x39b;" horiz-adv-x="1229" 
d="M-123 0l748 1468h342l139 -1468h-295l-59 836q-9 113 -9 338l-29 -79q-47 -127 -89 -214l-428 -881h-320z" />
    <glyph glyph-name="Mu" unicode="&#x39c;" horiz-adv-x="1802" 
d="M838 369l551 1093h423l-309 -1462h-280l145 692q53 247 105 441h-5l-569 -1133h-281l-61 1133h-4q-11 -88 -38 -231t-187 -902h-275l309 1462h404l68 -1093h4z" />
    <glyph glyph-name="Nu" unicode="&#x39d;" horiz-adv-x="1546" 
d="M1063 385q29 185 219 1077h274l-309 -1462h-342l-356 1106h-6l-4 -32q-32 -216 -66 -386l-145 -688h-275l309 1462h357l340 -1077h4z" />
    <glyph glyph-name="Xi" unicode="&#x39e;" horiz-adv-x="1067" 
d="M911 256l-53 -256h-901l51 256h903zM305 1462h823l-53 -254h-823zM262 887h668l-56 -254h-667z" />
    <glyph glyph-name="Omicron" unicode="&#x39f;" horiz-adv-x="1495" 
d="M434 557q0 -317 254 -317q120 0 220 87t156 246t56 357q0 142 -65 220t-185 77q-120 1 -220 -91t-158 -252t-58 -327zM1432 926q0 -270 -99 -494t-271 -338t-412 -114t-384 148t-143 410q0 264 99 486t273 342q173 119 415 119t382 -144t140 -415z" />
    <glyph glyph-name="Pi" unicode="&#x3a0;" horiz-adv-x="1423" 
d="M1124 0h-305l256 1204h-461l-256 -1204h-305l309 1462h1072z" />
    <glyph glyph-name="Rho" unicode="&#x3a1;" horiz-adv-x="1188" 
d="M700 1462q490 0 490 -426q0 -240 -170 -378t-467 -138h-86l-109 -520h-305l309 1462h338zM578 774q142 0 224 69t81 185q0 180 -195 180h-74l-92 -434h56z" />
    <glyph glyph-name="Sigma" unicode="&#x3a3;" horiz-adv-x="1112" 
d="M-43 0l49 242l543 506l-322 481l49 233h906l-54 -254h-559l318 -481l-500 -471h596l-53 -256h-973z" />
    <glyph glyph-name="Tau" unicode="&#x3a4;" horiz-adv-x="1087" 
d="M571 0h-305l254 1204h-352l55 258h1010l-55 -258h-353z" />
    <glyph glyph-name="Upsilon" unicode="&#x3a5;" horiz-adv-x="1155" 
d="M627 870l374 592h342l-618 -903l-119 -559h-303l119 559l-236 903h312z" />
    <glyph glyph-name="Phi" unicode="&#x3a6;" horiz-adv-x="1671" 
d="M428 688q0 -112 59 -176t170 -68l131 617q-168 -10 -264 -107t-96 -266zM1303 821q0 109 -59 172.5t-171 67.5l-131 -617q176 12 268.5 111.5t92.5 265.5zM123 690q0 281 186 440.5t531 172.5l37 180h284l-37 -180q232 -20 358 -145.5t126 -336.5q0 -287 -189.5 -449.5
t-527.5 -166.5l-49 -225h-285l49 223q-306 23 -394.5 182.5t-88.5 304.5z" />
    <glyph glyph-name="Chi" unicode="&#x3a7;" horiz-adv-x="1241" 
d="M1124 0h-331l-172 543l-396 -543h-342l576 764l-238 698h320l153 -518l363 518h344l-545 -725z" />
    <glyph glyph-name="Psi" unicode="&#x3a8;" horiz-adv-x="1671" 
d="M967 434h-21l-92 -434h-285l95 434h-15q-222 0 -346.5 103.5t-124.5 287.5q0 89 23 197l94 440h295l-101 -479q-14 -68 -14 -117q0 -98 55.5 -139t167.5 -41h17l164 776h284l-164 -776h17q147 0 222.5 69t109.5 224l102 483h297l-111 -518q-109 -510 -669 -510z" />
    <glyph glyph-name="uni03A9" unicode="&#x3a9;" horiz-adv-x="1483" 
d="M858 1227q-118 0 -206 -63t-143.5 -187.5t-55.5 -271.5q0 -282 155 -429l-59 -276h-610l53 260h373q-101 63 -160.5 185.5t-59.5 273.5q0 223 93 401.5t256.5 271.5t399.5 93t381.5 -138t145.5 -383t-108 -425.5t-309 -278.5h364l-55 -260h-649l59 276q387 227 387 652
q0 145 -67 222t-185 77z" />
    <glyph glyph-name="Iotadieresis" unicode="&#x3aa;" horiz-adv-x="659" 
d="M53 0l312 1462h305l-312 -1462h-305zM786 1878q133 0 133 -108q1 -72 -39 -116t-121 -44q-135 0 -135 110q0 158 162 158zM222 1720q0 78 42 118t120 40q133 0 133 -108q0 -72 -39 -116t-121 -44q-135 0 -135 110z" />
    <glyph glyph-name="Upsilondieresis" unicode="&#x3ab;" horiz-adv-x="1155" 
d="M627 870l374 592h342l-618 -903l-119 -559h-303l119 559l-236 903h312zM996 1878q133 0 133 -108q1 -72 -39 -116t-121 -44q-135 0 -135 110q0 158 162 158zM432 1720q0 78 42 118t120 40q133 0 133 -108q0 -72 -39 -116t-121 -44q-135 0 -135 110z" />
    <glyph glyph-name="alphatonos" unicode="&#x3ac;" horiz-adv-x="1241" 
d="M532 223q72 1 131 71q57 70 91 204t34 218q0 179 -129 179q-71 0 -131 -68q-60 -69 -97 -181q-36 -112 -36 -222q1 -110 33 -155q32 -46 104 -46zM1004 301q0 -65 61 -65q36 0 65 12v-238q-63 -30 -165 -30q-201 0 -246 165h-6q-81 -95 -153 -130t-165 -35
q-145 0 -225 106t-80 309q0 201 67 375t188 272t271 97q90 0 152 -39t113 -133h6q42 90 100 151h254q-113 -208 -164 -444l-67 -320q-6 -30 -6 -53zM1067 1630v-24q-120 -198 -254 -365h-180v31q76 152 150 358h284z" />
    <glyph glyph-name="epsilontonos" unicode="&#x3ad;" horiz-adv-x="1051" 
d="M475 788q0 -100 197 -100h135l-45 -211h-148q-120 -1 -189 -39t-69 -100q0 -123 178 -123t351 90v-246q-160 -79 -384 -79t-343 78t-119 216q0 259 328 312v6q-80 32 -123 88t-43 127q0 158 123 245t356 87t391 -86l-92 -222q-164 82 -303 82q-201 0 -201 -125zM996 1630
v-24q-120 -198 -254 -365h-180v31q76 152 150 358h284z" />
    <glyph glyph-name="etatonos" unicode="&#x3ae;" horiz-adv-x="1237" 
d="M829 772q0 123 -108 123q-92 0 -167 -114t-118 -318l-98 -463h-301l237 1118h230l-21 -207h6q146 228 355 228q138 1 214 -83t75 -239q0 -73 -23 -180l-238 -1129h-301l242 1145q16 68 16 119zM1065 1630v-24q-120 -198 -254 -365h-180v31q76 152 150 358h284z" />
    <glyph glyph-name="iotatonos" unicode="&#x3af;" horiz-adv-x="752" 
d="M492 223q66 0 161 35v-225q-111 -53 -263 -53t-222 62q-72 62 -72 196q0 52 23 157l153 723h301l-155 -741q-12 -59 -12 -82q0 -72 86 -72zM767 1630v-24q-120 -198 -254 -365h-180v31q76 152 150 358h284z" />
    <glyph glyph-name="upsilondieresistonos" unicode="&#x3b0;" horiz-adv-x="1262" 
d="M513 -20q-182 0 -288 99t-106 281q0 70 16 150l129 608h299l-129 -616q-14 -61 -14 -121q0 -156 141 -156q309 0 309 893h301q1 -612 -157 -874q-78 -128 -198 -196t-303 -68zM905 1382q1 78 39 118t102 40q125 0 125 -108q1 -72 -35 -116t-110 -44q-121 0 -121 110z
M354 1382q0 78 38 118t103 40q125 0 125 -108q0 -72 -36 -116t-109 -44q-121 0 -121 110zM1036 1716v-20q-90 -143 -238 -307h-141v26q56 112 119 301h260z" />
    <glyph glyph-name="alpha" unicode="&#x3b1;" horiz-adv-x="1241" 
d="M532 223q72 0 130.5 70.5t92 205t33.5 217.5q0 179 -129 179q-71 0 -131.5 -68t-96.5 -180.5t-36 -222.5t32.5 -155.5t104.5 -45.5zM1004 301q0 -65 61 -65q36 0 65 12v-238q-63 -30 -165 -30q-201 0 -246 165h-6q-81 -95 -153.5 -130t-164.5 -35q-145 0 -225 106.5
t-80 308.5t67 375.5t188 271t271 97.5q89 0 151.5 -39t113.5 -133h6q42 90 100 151h254q-113 -208 -164 -444l-67 -320q-6 -30 -6 -53z" />
    <glyph glyph-name="beta" unicode="&#x3b2;" horiz-adv-x="1270" 
d="M829 500q0 184 -204 184h-47l51 242h59q110 0 172 68t62 192q0 68 -37 105.5t-109 37.5q-149 0 -201 -244l-174 -800q27 -27 79 -44.5t106 -17.5q113 0 178 75.5t65 201.5zM641 -20q-153 0 -289 75l-114 -547h-304l345 1635q46 219 172.5 321.5t340.5 102.5t326.5 -93
t112.5 -263t-92.5 -269t-259.5 -127q125 -23 196.5 -109t71.5 -227t-64.5 -260.5t-176.5 -179t-265 -59.5z" />
    <glyph glyph-name="gamma" unicode="&#x3b3;" horiz-adv-x="1049" 
d="M381 -492h-322q51 257 183 506l-140 1104h295q25 -314 38 -482t11 -333h5q31 85 68 163t325 652h323l-551 -1012q-176 -325 -235 -598z" />
    <glyph glyph-name="delta" unicode="&#x3b4;" horiz-adv-x="1204" 
d="M373 403q0 -178 155 -178q101 0 168.5 94.5t67.5 242.5t-102 229q-126 -43 -207.5 -150t-81.5 -238zM379 1214q0 162 120 257.5t333 95.5t399 -113l-119 -215q-157 102 -287 102q-67 0 -107 -32t-40 -75t10 -67t33 -49t127 -110q233 -188 233 -448t-156 -420t-431 -160
q-202 0 -320.5 105.5t-118.5 298.5t124 338.5t351 203.5q-151 126 -151 288z" />
    <glyph glyph-name="epsilon" unicode="&#x3b5;" horiz-adv-x="1051" 
d="M475 788q0 -100 197 -100h135l-45 -211h-148q-120 0 -189 -38.5t-69 -100.5q0 -123 178 -123t351 90v-246q-160 -79 -384 -79t-343 77.5t-119 216.5q0 259 328 312v6q-80 31 -123 87.5t-43 127.5q0 158 123 245t356 87t391 -86l-92 -222q-164 82 -303 82
q-201 0 -201 -125z" />
    <glyph glyph-name="zeta" unicode="&#x3b6;" horiz-adv-x="948" 
d="M90 444q0 150 62.5 287t185.5 271t399 344q-78 -13 -180 -13h-238l50 223h780l-39 -182q-281 -226 -430 -374.5t-217 -271.5t-68 -247q0 -76 43 -129.5t142 -99.5t172 -105.5t73 -183.5q0 -91 -43.5 -170.5t-142.5 -171.5h-315q119 119 157.5 177t38.5 98t-28 66t-109 63
q-155 70 -224 169.5t-69 249.5z" />
    <glyph glyph-name="eta" unicode="&#x3b7;" horiz-adv-x="1237" 
d="M829 772q0 123 -108 123q-92 0 -167 -114t-118 -318l-98 -463h-301l237 1118h230l-21 -207h6q146 228 355 228q138 0 213.5 -83.5t75.5 -238.5q0 -73 -23 -180l-238 -1129h-301l242 1145q16 68 16 119z" />
    <glyph glyph-name="theta" unicode="&#x3b8;" horiz-adv-x="1198" 
d="M866 1182q0 176 -110 176q-171 0 -279 -459h361q28 158 28 283zM514 201q91 0 156 115.5t121 355.5h-363q-31 -167 -31 -285q0 -186 117 -186zM780 1579q383 0 383 -479q0 -243 -85 -544.5t-230.5 -438.5t-346.5 -137t-301 116t-100 336q0 312 90 572.5t207.5 417.5
t382.5 157z" />
    <glyph glyph-name="iota" unicode="&#x3b9;" horiz-adv-x="752" 
d="M492 223q66 0 161 35v-225q-111 -53 -263 -53t-223 62.5t-71 195.5q0 52 23 157l153 723h301l-155 -741q-12 -59 -12 -82q0 -72 86 -72z" />
    <glyph glyph-name="kappa" unicode="&#x3ba;" horiz-adv-x="1163" 
d="M920 1118h344l-498 -504l285 -614h-336l-183 420l-120 -72l-74 -348h-301l237 1118h301q-84 -378 -116 -481h4z" />
    <glyph glyph-name="lambda" unicode="&#x3bb;" horiz-adv-x="1171" 
d="M386 1313q-54 0 -110 -13l-36 246q87 23 192 23q162 0 249.5 -87.5t113.5 -277.5l102 -766q15 -115 41 -158.5t66 -43.5t75 10v-234q-73 -32 -189 -32t-176.5 66t-80.5 206l-29 201q-11 73 -18 239q-23 -48 -48 -110.5t-57 -122.5l-245 -459h-328l612 1061l-10 92
q-9 88 -39.5 124t-84.5 36z" />
    <glyph glyph-name="uni03BC" unicode="&#x3bc;" horiz-adv-x="1249" 
d="M424 346q0 -58 32 -90t79 -33q91 1 163 107t117 319l98 469h301l-237 -1118h-229l18 176h-6q-117 -196 -266 -196q-100 0 -148 67h-6q-13 -108 -104 -539h-304l342 1610h301l-135 -645q-16 -69 -16 -127z" />
    <glyph glyph-name="nu" unicode="&#x3bd;" horiz-adv-x="1126" 
d="M102 1118h295l62 -616q10 -97 10 -230q133 157 219.5 355.5t149.5 490.5h307q-65 -357 -211 -624.5t-395 -493.5h-297z" />
    <glyph glyph-name="xi" unicode="&#x3be;" horiz-adv-x="948" 
d="M455 827q-203 49 -203 233q0 96 77.5 170t245.5 116q-185 -13 -243 -13h-53l49 223h753l-45 -210h-24q-134 0 -293.5 -48t-159.5 -219q0 -164 232 -164h102l-45 -210h-70q-179 0 -281 -64.5t-102 -179.5q0 -68 35 -110.5t149 -98.5t180 -113.5t66 -162.5
q0 -104 -43.5 -183.5t-142.5 -171.5h-315q113 113 152.5 174t39.5 103t-29.5 67.5t-103.5 59.5q-152 70 -221.5 163t-69.5 222q0 317 363 411v6z" />
    <glyph glyph-name="omicron" unicode="&#x3bf;" horiz-adv-x="1198" 
d="M1108 694q0 -209 -70 -372q-70 -162 -204 -252q-133 -90 -322 -90q-190 0 -306 118t-116 321q0 205 72 371t206 258q136 92 324 91q188 0 302 -118t114 -327zM805 696q0 197 -143 197q-74 0 -134 -61t-98 -179t-37 -243q0 -185 150 -185q75 -1 135 61t94 172t33 238z" />
    <glyph glyph-name="pi" unicode="&#x3c0;" horiz-adv-x="1464" 
d="M1174 219q65 0 131 33v-217q-99 -55 -239 -55t-210 64t-70 185q0 27 5.5 62t119.5 598h-274l-188 -889h-306l191 889h-240l29 147l196 82h1182l-47 -229h-240l-108 -541q-8 -40 -8 -57q0 -72 76 -72z" />
    <glyph glyph-name="rho" unicode="&#x3c1;" horiz-adv-x="1219" 
d="M823 709q0 186 -141 186q-148 0 -215 -320l-55 -264q49 -88 149 -88q69 0 127.5 64.5t96.5 188.5t38 233zM713 1139q195 0 305 -115t110 -322t-65 -373t-185 -257.5t-278 -91.5t-254 124q-15 -135 -113 -596h-299l228 1082q46 216 146.5 382.5t404.5 166.5z" />
    <glyph glyph-name="sigma1" unicode="&#x3c2;" horiz-adv-x="948" 
d="M395 499q0 -92 39 -144.5t142 -100.5t176 -107.5t73 -183.5q0 -91 -43.5 -170.5t-142.5 -171.5h-315q113 113 152.5 174t39.5 104t-31 70.5t-102 59.5q-157 71 -225 170t-68 268t81.5 334.5t215.5 251.5t303 86t320 -72l-92 -229q-126 57 -217 57t-159 -56t-107.5 -152
t-39.5 -188z" />
    <glyph glyph-name="sigma" unicode="&#x3c3;" horiz-adv-x="1266" 
d="M735 895q-105 0 -182.5 -60t-118.5 -166.5t-41 -238.5q0 -205 150 -205q116 0 189 131t73 326q0 111 -41 213h-29zM1098 587q0 -106 -43.5 -227t-158.5 -250.5t-372 -129.5q-201 0 -317.5 118t-116.5 328t80 367t232.5 241t359.5 84h577l-47 -223h-284q90 -109 90 -308z
" />
    <glyph glyph-name="tau" unicode="&#x3c4;" horiz-adv-x="1022" 
d="M645 223q65 0 162 35v-225q-111 -53 -263 -53t-223 62.5t-71 195.5q0 50 12 112l115 539h-283l29 147l190 82h748l-49 -229h-334l-115 -539q-6 -30 -6 -53q0 -74 88 -74z" />
    <glyph glyph-name="upsilon" unicode="&#x3c5;" horiz-adv-x="1262" 
d="M513 -20q-182 0 -288 99t-106 281q0 70 16 150l129 608h299l-129 -616q-14 -61 -14 -121q0 -156 141 -156q309 0 309 893h301q0 -613 -117.5 -808t-238 -262.5t-302.5 -67.5z" />
    <glyph glyph-name="phi" unicode="&#x3c6;" horiz-adv-x="1565" 
d="M647 983q-250 -254 -250 -502q0 -218 152 -256l110 516q47 210 149 304t282 94t282.5 -115.5t102.5 -319.5t-84.5 -366t-242 -254.5t-364.5 -101.5l-96 -474h-291l105 482q-189 25 -300.5 149.5t-111.5 324.5t86 367.5t279 327.5zM1169 735q0 178 -94 178
q-89 0 -129 -176l-110 -510q102 16 177 86t115.5 180.5t40.5 241.5z" />
    <glyph glyph-name="chi" unicode="&#x3c7;" horiz-adv-x="1130" 
d="M318 1139q113 0 176.5 -70t87.5 -233l26 -183l320 465h332l-574 -774l74 -463q9 -58 33 -87.5t71 -29.5t105 15v-238q-97 -33 -209 -33t-177.5 69.5t-88.5 229.5l-41 281l-385 -580h-328l639 893l-53 334q-13 77 -34 109.5t-59 32.5t-77 -15l-52 238q101 39 214 39z" />
    <glyph glyph-name="psi" unicode="&#x3c8;" horiz-adv-x="1655" 
d="M1264 1118h301q0 -416 -78 -649.5t-239 -354.5t-412 -143l-99 -463h-288l98 463q-209 21 -318.5 120t-109.5 269q0 70 16 150l129 608h299l-129 -616q-14 -62 -14 -130t45.5 -112t132.5 -49l285 1343h288l-284 -1339q196 32 286.5 248.5t90.5 654.5z" />
    <glyph glyph-name="omega" unicode="&#x3c9;" horiz-adv-x="1679" 
d="M438 -20q-166 0 -257 105.5t-91 295.5q0 346 246 737h303q-120 -176 -190 -369.5t-70 -362.5t113 -169q70 0 112 59t70 191l63 295h285q-41 -189 -61.5 -286.5t-20.5 -143.5q0 -115 100 -115q72 0 132 78.5t96.5 226.5t36.5 304t-31 292h285q30 -125 30 -264
q0 -405 -142.5 -639.5t-399.5 -234.5q-218 0 -275 202q-66 -109 -147 -155.5t-187 -46.5z" />
    <glyph glyph-name="iotadieresis" unicode="&#x3ca;" horiz-adv-x="752" 
d="M492 223q66 0 161 35v-225q-111 -53 -263 -53t-222 62q-72 62 -72 196q0 52 23 157l153 723h301l-155 -741q-12 -59 -12 -82q0 -72 86 -72zM714 1540q133 0 133 -108q1 -72 -39 -116t-121 -44q-135 0 -135 110q0 158 162 158zM150 1382q0 78 42 118t120 40
q133 0 133 -108q0 -72 -39 -116t-121 -44q-135 0 -135 110z" />
    <glyph glyph-name="upsilondieresis" unicode="&#x3cb;" horiz-adv-x="1262" 
d="M513 -20q-182 0 -288 99t-106 281q0 70 16 150l129 608h299l-129 -616q-14 -61 -14 -121q0 -156 141 -156q309 0 309 893h301q1 -612 -157 -874q-78 -128 -198 -196t-303 -68zM965 1540q133 0 133 -108q0 -72 -40 -116t-120 -44q-135 0 -135 110q0 158 162 158zM401 1382
q1 78 43 118t119 40q133 0 133 -108q0 -72 -39 -116t-121 -44q-135 0 -135 110z" />
    <glyph glyph-name="omicrontonos" unicode="&#x3cc;" horiz-adv-x="1198" 
d="M1108 694q0 -209 -70 -372q-70 -162 -204 -252q-133 -90 -322 -90q-190 0 -306 118t-116 321q0 205 72 371t206 258q136 92 324 91q188 0 302 -118t114 -327zM805 696q0 197 -143 197q-74 0 -134 -61t-98 -179t-37 -243q0 -185 150 -185q75 -1 135 61t94 172t33 238z
M1030 1630v-24q-120 -198 -254 -365h-180v31q76 152 150 358h284z" />
    <glyph glyph-name="upsilontonos" unicode="&#x3cd;" horiz-adv-x="1262" 
d="M513 -20q-182 0 -288 99t-106 281q0 70 16 150l129 608h299l-129 -616q-14 -61 -14 -121q0 -156 141 -156q309 0 309 893h301q1 -612 -157 -874q-78 -128 -198 -196t-303 -68zM1048 1630v-24q-120 -198 -254 -365h-180v31q76 152 150 358h284z" />
    <glyph glyph-name="omegatonos" unicode="&#x3ce;" horiz-adv-x="1679" 
d="M438 -20q-166 0 -257 106t-91 295q0 346 246 737h303q-120 -176 -190 -370t-70 -362q0 -169 113 -169q70 0 112 59t70 191l63 295h285q-42 -188 -62 -286t-20 -144q0 -115 100 -115q72 1 132 79t96 226t37 304q0 156 -31 292h285q30 -125 30 -264q-1 -406 -143 -640
t-399 -234q-218 0 -275 202q-66 -110 -147 -156t-187 -46zM1275 1630v-24q-120 -198 -254 -365h-180v31q76 152 150 358h284z" />
    <glyph glyph-name="uni03D1" unicode="&#x3d1;" horiz-adv-x="1419" 
d="M591 -20q-178 0 -281 77t-103 211q-1 69 27 154t28 115q0 57 -57 57q-43 0 -88 -25v215q115 45 221 45t161.5 -50.5t55.5 -132.5q-1 -82 -31 -182t-30 -145q0 -102 123 -102t211 132.5t147 408.5q-163 8 -281.5 62.5t-180.5 145.5t-62 205q0 187 120 296.5t324 109.5
t311 -133t107 -381v-37l-2 -35h149l-49 -229h-133q-54 -286 -147 -454.5t-227.5 -248t-312.5 -79.5zM879 1348q-131 0 -131 -172q0 -80 68 -131t192 -54q6 50 6 140t-36 153.5t-99 63.5z" />
    <glyph glyph-name="uni03D2" unicode="&#x3d2;" horiz-adv-x="1178" 
d="M1190 1475q83 0 162 -27l-56 -231q-31 14 -69 14q-59 0 -123 -80q-136 -168 -383 -602l-117 -549h-303l119 559l-236 903h312l129 -592l67 123q157 287 261.5 384.5t236.5 97.5z" />
    <glyph glyph-name="uni03D6" unicode="&#x3d6;" horiz-adv-x="1921" 
d="M1403 768q0 73 -6 121h-760q-143 -281 -143 -500q0 -172 112 -172q69 0 110.5 55.5t71.5 194.5l31 137h285l-31 -137q-18 -85 -18 -135q0 -115 100 -115q114 0 181 149.5t67 401.5zM1161 -20q-216 0 -274 202q-66 -109 -147 -155.5t-187 -46.5q-166 0 -257 105.5
t-91 295.5q0 128 44.5 265.5t117.5 242.5h-273l29 147l196 82h1641l-47 -229h-244q17 -88 17 -199q0 -198 -72 -367.5t-190 -256t-263 -86.5z" />
    <glyph glyph-name="uni0400" unicode="&#x400;" horiz-adv-x="1110" 
d="M870 0h-817l309 1462h818l-54 -254h-512l-67 -321h477l-55 -254h-477l-80 -377h512zM480 1907h311q36 -148 115 -303v-25h-184q-166 161 -242 307v21z" />
    <glyph glyph-name="afii10023" unicode="&#x401;" horiz-adv-x="1110" 
d="M870 0h-817l309 1462h818l-54 -254h-512l-67 -321h477l-55 -254h-477l-80 -377h512zM1020 1878q133 0 133 -108q1 -72 -39 -116t-121 -44q-135 0 -135 110q0 158 162 158zM456 1720q0 78 42 118t120 40q133 0 133 -108q0 -72 -39 -116t-121 -44q-135 0 -135 110z" />
    <glyph glyph-name="afii10051" unicode="&#x402;" horiz-adv-x="1520" 
d="M888 233q70 0 108 38t62.5 151t20.5 137q0 61 -31.5 88t-101.5 27h-233l-144 -674h-305l256 1204h-352l55 258h1000l-56 -258h-342l-57 -272h242q178 0 277 -87t99 -243q0 -73 -29 -228.5t-78 -235.5t-129 -118t-208 -39t-205 37v254q81 -39 151 -39z" />
    <glyph glyph-name="afii10052" unicode="&#x403;" horiz-adv-x="1030" 
d="M354 0h-301l309 1462h814l-54 -254h-512zM1165 1907v-17q-46 -56 -154 -152t-194 -159h-209v25q79 88 222 303h335z" />
    <glyph glyph-name="afii10053" unicode="&#x404;" horiz-adv-x="1253" 
d="M903 1227q-144 0 -253.5 -95.5t-166.5 -267.5h533l-53 -254h-527l-2 -30v-31q0 -309 287 -309q146 0 338 77v-260q-187 -77 -400 -77q-254 0 -395 149.5t-141 417.5t104 488.5t278.5 335t404.5 114.5t425 -105l-118 -250q-170 97 -314 97z" />
    <glyph glyph-name="afii10054" unicode="&#x405;" horiz-adv-x="1085" 
d="M946 432q0 -208 -148 -330t-385 -122t-372 90v274q193 -108 358 -108q112 0 175 42t63 119q0 76 -52 134q-25 28 -124 102q-138 99 -194 196t-56 217t62 222q63 102 177 158t263 57q217 0 397 -99l-109 -233q-155 74 -263 74t-161 -45q-53 -44 -53 -112t33 -114t151 -122
q238 -156 238 -400z" />
    <glyph glyph-name="afii10055" unicode="&#x406;" horiz-adv-x="659" 
d="M53 0l312 1462h305l-312 -1462h-305z" />
    <glyph glyph-name="afii10056" unicode="&#x407;" horiz-adv-x="659" 
d="M53 0l312 1462h305l-312 -1462h-305zM786 1878q133 0 133 -108q1 -72 -39 -116t-121 -44q-135 0 -135 110q0 158 162 158zM222 1720q0 78 42 118t120 40q133 0 133 -108q0 -72 -39 -116t-121 -44q-135 0 -135 110z" />
    <glyph glyph-name="afii10057" unicode="&#x408;" horiz-adv-x="678" 
d="M-135 -430q-94 0 -187 27v253q88 -20 176 -20q185 0 238 252l293 1380h305l-303 -1423q-51 -245 -175 -357t-347 -112z" />
    <glyph glyph-name="afii10058" unicode="&#x409;" horiz-adv-x="1962" 
d="M1546 492q0 155 -192 155h-109l-84 -393h119q129 0 197.5 60.5t68.5 177.5zM1366 901q237 0 363 -103t126 -296q0 -243 -158 -372.5t-456 -129.5h-438l254 1204h-254q-174 -707 -282 -907t-198.5 -258.5t-240.5 -58.5q-80 0 -143 24v254q53 -20 109 -20t118.5 47
t160.5 321.5t246 855.5h844l-119 -561h68z" />
    <glyph glyph-name="afii10059" unicode="&#x40a;" horiz-adv-x="1921" 
d="M1247 254q125 0 191.5 60.5t66.5 170.5q0 162 -192 162h-109l-84 -393h127zM1815 506q0 -244 -156.5 -375t-448.5 -131h-448l137 647h-403l-138 -647h-305l309 1462h306l-119 -561h401l121 561h305l-119 -561h86q230 0 351 -102t121 -293z" />
    <glyph glyph-name="afii10060" unicode="&#x40b;" horiz-adv-x="1520" 
d="M1079 551q0 68 -37 95.5t-112 27.5h-217l-144 -674h-305l256 1204h-352l55 258h1000l-56 -258h-342l-57 -272h225q195 0 293 -90t98 -250q0 -62 -22 -174l-84 -418h-309l100 471q10 50 10 80z" />
    <glyph glyph-name="afii10061" unicode="&#x40c;" horiz-adv-x="1219" 
d="M1120 0h-338l-272 719l-152 -719h-305l309 1462h306l-146 -684l541 684h344l-582 -723zM1259 1907v-17q-46 -56 -154 -152t-194 -159h-209v25q79 88 222 303h335z" />
    <glyph glyph-name="uni040D" unicode="&#x40d;" horiz-adv-x="1546" 
d="M971 0q190 903 229 1061l-8 2l-764 -1063h-375l309 1462h281l-147 -692q-65 -282 -84 -352h10l764 1044h370l-309 -1462h-276zM658 1907h311q36 -148 115 -303v-25h-184q-166 161 -242 307v21z" />
    <glyph glyph-name="afii10062" unicode="&#x40e;" horiz-adv-x="1225" 
d="M240 -20q-122 0 -209 32v267q81 -39 184 -39t167 66q32 32 81 114l-285 1042h307l154 -631q23 -93 29 -151q46 110 67 149l344 633h334l-602 -1030q-132 -225 -205 -302q-73 -78 -159 -114q-85 -36 -207 -36zM778 1579q-414 0 -414 311q0 24 5 47h266l-2 -26v-21
q0 -139 170 -139q99 0 153 44t76 142h272q-34 -133 -98 -207q-129 -150 -428 -151z" />
    <glyph glyph-name="afii10145" unicode="&#x40f;" horiz-adv-x="1423" 
d="M362 1462h308l-256 -1204h460l256 1204h304l-310 -1462h-383l-92 -426h-303l92 426h-385z" />
    <glyph glyph-name="afii10017" unicode="&#x410;" horiz-adv-x="1286" 
d="M791 1211v36q-44 -120 -109 -254l-188 -385h333l-26 350q-10 131 -10 253zM842 348h-473l-172 -348h-320l766 1468h373l147 -1468h-297z" />
    <glyph glyph-name="afii10018" unicode="&#x411;" horiz-adv-x="1212" 
d="M508 254q139 0 212 58.5t73 164.5q0 170 -193 170h-108l-84 -393h100zM612 901q238 0 364 -104.5t126 -304.5q0 -237 -158 -364.5t-457 -127.5h-434l309 1462h822l-54 -254h-520l-65 -307h67z" />
    <glyph glyph-name="afii10019" unicode="&#x412;" horiz-adv-x="1270" 
d="M592 256q118 0 184 58t66 161q0 162 -183 162h-165l-82 -381h180zM694 883q242 0 242 188q0 137 -170 137h-152l-69 -325h149zM788 1462q463 0 463 -325q0 -149 -83 -247t-236 -130v-6q100 -26 160 -96t59 -181q0 -229 -153 -353t-423 -124h-522l309 1462h426z" />
    <glyph glyph-name="afii10020" unicode="&#x413;" horiz-adv-x="1030" 
d="M354 0h-301l309 1462h814l-54 -254h-512z" />
    <glyph glyph-name="afii10021" unicode="&#x414;" horiz-adv-x="1475" 
d="M840 1204q-215 -616 -426 -946h424l202 946h-200zM76 258q321 463 565 1204h766l-256 -1204h186l-145 -684h-303l92 426h-784l-93 -426h-301l144 684h129z" />
    <glyph glyph-name="afii10022" unicode="&#x415;" horiz-adv-x="1110" 
d="M870 0h-817l309 1462h818l-54 -254h-512l-67 -321h477l-55 -254h-477l-80 -377h512z" />
    <glyph glyph-name="afii10024" unicode="&#x416;" horiz-adv-x="1776" 
d="M494 780l-279 682h303l266 -684l146 684h293l-146 -684l537 684h328l-582 -723l295 -739h-316l-274 719l-152 -719h-292l151 717l-555 -717h-342z" />
    <glyph glyph-name="afii10025" unicode="&#x417;" horiz-adv-x="1221" 
d="M478 -20q-294 0 -437 79v263q181 -99 375 -99t280 60.5t86 164.5t-77 147.5t-242 43.5h-141l51 242h127q383 0 383 200q0 72 -47.5 113t-141.5 41q-170 0 -360 -123l-109 209q143 91 268.5 126.5t262.5 35.5t236 -44t153.5 -122t54.5 -174q0 -169 -109.5 -266.5
t-306.5 -110.5v-4q143 -17 226.5 -101t83.5 -215q0 -224 -161 -345t-455 -121z" />
    <glyph glyph-name="afii10026" unicode="&#x418;" horiz-adv-x="1546" 
d="M971 0q190 903 229 1061l-8 2l-764 -1063h-375l309 1462h281l-147 -692q-65 -282 -84 -352h10l764 1044h370l-309 -1462h-276z" />
    <glyph glyph-name="afii10027" unicode="&#x419;" horiz-adv-x="1546" 
d="M971 0q190 903 229 1061l-8 2l-764 -1063h-375l309 1462h281l-147 -692q-65 -282 -84 -352h10l764 1044h370l-309 -1462h-276zM956 1579q-414 0 -414 311q0 24 5 47h266l-2 -26v-21q0 -139 170 -139q99 0 153 44t76 142h272q-34 -133 -98 -207q-129 -150 -428 -151z" />
    <glyph glyph-name="afii10028" unicode="&#x41a;" horiz-adv-x="1219" 
d="M1120 0h-338l-272 719l-152 -719h-305l309 1462h306l-146 -684l541 684h344l-582 -723z" />
    <glyph glyph-name="afii10029" unicode="&#x41b;" horiz-adv-x="1423" 
d="M82 -20q-80 0 -143 24v254q53 -20 109 -20t118.5 47t160.5 321.5t246 855.5h861l-312 -1462h-303l256 1204h-272q-174 -707 -282 -907t-198.5 -258.5t-240.5 -58.5z" />
    <glyph glyph-name="afii10030" unicode="&#x41c;" horiz-adv-x="1802" 
d="M838 369l551 1093h423l-309 -1462h-280l145 692q53 247 105 441h-5l-569 -1133h-281l-61 1133h-4q-11 -88 -38 -231t-187 -902h-275l309 1462h404l68 -1093h4z" />
    <glyph glyph-name="afii10031" unicode="&#x41d;" horiz-adv-x="1434" 
d="M1135 0h-306l134 631h-471l-134 -631h-305l309 1462h306l-121 -573h471l121 573h305z" />
    <glyph glyph-name="afii10032" unicode="&#x41e;" horiz-adv-x="1495" 
d="M434 557q0 -317 254 -317q120 0 220 87t156 246t56 357q0 142 -65 220t-185 77q-120 1 -220 -91t-158 -252t-58 -327zM1432 926q0 -270 -99 -494t-271 -338t-412 -114t-384 148t-143 410q0 264 99 486t273 342q173 119 415 119t382 -144t140 -415z" />
    <glyph glyph-name="afii10033" unicode="&#x41f;" horiz-adv-x="1423" 
d="M1124 0h-305l256 1204h-461l-256 -1204h-305l309 1462h1072z" />
    <glyph glyph-name="afii10034" unicode="&#x420;" horiz-adv-x="1188" 
d="M700 1462q490 0 490 -426q0 -240 -170 -378t-467 -138h-86l-109 -520h-305l309 1462h338zM578 774q142 0 224 69t81 185q0 180 -195 180h-74l-92 -434h56z" />
    <glyph glyph-name="afii10035" unicode="&#x421;" horiz-adv-x="1253" 
d="M905 1227q-131 0 -237 -81q-106 -80 -170 -238t-64 -332t68 -255t217 -81q148 0 340 77v-260q-199 -77 -400 -77q-254 0 -395 150t-141 417q0 269 104 489t278 334t400 115q125 -1 222 -23t208 -82l-118 -250q-106 59 -175 78t-137 19z" />
    <glyph glyph-name="afii10036" unicode="&#x422;" horiz-adv-x="1087" 
d="M571 0h-305l254 1204h-352l55 258h1010l-55 -258h-353z" />
    <glyph glyph-name="afii10037" unicode="&#x423;" horiz-adv-x="1225" 
d="M240 -20q-122 0 -209 32v267q81 -39 184 -39t151 49.5t97 130.5l-285 1042h307l154 -631q23 -93 29 -151q46 110 67 149l344 633h334l-602 -1030q-132 -225 -205 -302t-158.5 -113.5t-207.5 -36.5z" />
    <glyph glyph-name="afii10038" unicode="&#x424;" horiz-adv-x="1671" 
d="M428 688q0 -112 59 -176t170 -68l131 617q-168 -10 -264 -107t-96 -266zM1303 821q0 109 -59 173t-171 67l-131 -617q176 12 268 112t93 265zM123 690q0 280 186 440t531 173l37 180h284l-37 -180q232 -19 358 -145t126 -337q0 -287 -190 -449t-527 -167l-49 -225h-285
l49 223q-306 23 -424 235q-60 108 -59 252z" />
    <glyph glyph-name="afii10039" unicode="&#x425;" horiz-adv-x="1241" 
d="M1124 0h-331l-172 543l-396 -543h-342l576 764l-238 698h320l153 -518l363 518h344l-545 -725z" />
    <glyph glyph-name="afii10040" unicode="&#x426;" horiz-adv-x="1501" 
d="M1384 246l-143 -672h-303l92 426h-977l309 1462h308l-256 -1204h460l256 1204h304l-258 -1216h208z" />
    <glyph glyph-name="afii10041" unicode="&#x427;" horiz-adv-x="1378" 
d="M542 475q-164 0 -261 85t-97 237q0 57 13 116l112 549h305l-108 -516q-10 -46 -10 -82q0 -131 153 -131q131 0 295 74l139 655h306l-310 -1462h-305l119 561q-187 -86 -351 -86z" />
    <glyph glyph-name="afii10042" unicode="&#x428;" horiz-adv-x="2056" 
d="M53 0l309 1462h314l-256 -1204h381l256 1204h315l-256 -1204h381l256 1204h313l-309 -1462h-1704z" />
    <glyph glyph-name="afii10043" unicode="&#x429;" horiz-adv-x="2134" 
d="M2017 246l-143 -672h-303l92 426h-1610l309 1462h314l-256 -1204h381l256 1204h315l-256 -1204h381l256 1204h313l-258 -1216h209z" />
    <glyph glyph-name="afii10044" unicode="&#x42a;" horiz-adv-x="1425" 
d="M725 254q139 0 212 58.5t73 164.5q0 170 -193 170h-108l-84 -393h100zM829 901q240 0 365 -105t125 -304q0 -237 -158 -364.5t-456 -127.5h-439l254 1204h-352l55 258h658l-119 -561h67z" />
    <glyph glyph-name="afii10045" unicode="&#x42b;" horiz-adv-x="1751" 
d="M481 254q139 0 212 58.5t73 164.5q0 170 -193 170h-77l-84 -393h69zM1075 492q0 -237 -158 -364.5t-456 -127.5h-408l309 1462h306l-119 -561h37q240 0 364.5 -105t124.5 -304zM1452 0h-313l309 1462h313z" />
    <glyph glyph-name="afii10046" unicode="&#x42c;" horiz-adv-x="1212" 
d="M512 254q139 0 212 58.5t73 164.5q0 170 -193 170h-108l-84 -393h100zM1106 492q0 -237 -158 -364.5t-456 -127.5h-439l309 1462h306l-119 -561h67q240 0 365 -105t125 -304z" />
    <glyph glyph-name="afii10047" unicode="&#x42d;" horiz-adv-x="1253" 
d="M414 -20q-237 0 -387 83v271q173 -96 352 -96t288 91.5t169 280.5h-539l53 254h527l2 25v26q0 312 -258 312q-65 0 -127.5 -13.5t-194.5 -64.5l-80 246q208 90 453 90t381.5 -146.5t136.5 -416.5t-99 -491.5t-269.5 -336t-407.5 -114.5z" />
    <glyph glyph-name="afii10048" unicode="&#x42e;" horiz-adv-x="2060" 
d="M1464 1227q-108 0 -197.5 -91.5t-140.5 -251.5t-51 -327q0 -317 225 -317q107 0 196 87t139.5 244.5t50.5 358.5q0 139 -57 218t-165 79zM1997 928q0 -269 -88 -491t-249.5 -339.5t-391.5 -117.5t-367 147.5t-137 409.5q0 50 4 94h-276l-134 -631h-305l309 1462h306
l-121 -573h262q80 288 258.5 442t421.5 154t375.5 -144t132.5 -413z" />
    <glyph glyph-name="afii10049" unicode="&#x42f;" horiz-adv-x="1255" 
d="M772 1208q-127 0 -193.5 -57t-66.5 -152t54.5 -140.5t148.5 -45.5h108l84 395h-135zM193 989q0 223 153.5 348t433.5 125h486l-310 -1462h-305l119 561h-117l-415 -561h-363l514 657q-107 68 -151.5 146.5t-44.5 185.5z" />
    <glyph glyph-name="afii10065" unicode="&#x430;" 
d="M395 399q0 -176 129 -176q69 0 133 67q64 68 103 182t39 259q-1 71 -39 117t-104 47q-66 0 -126 -72q-62 -72 -98 -190t-37 -234zM608 1139q197 0 277 -164h8l57 143h232l-238 -1118h-229l14 145h-4q-134 -165 -319 -165q-148 0 -232 106t-84 302q0 194 72 374t189 278
t257 99z" />
    <glyph glyph-name="afii10066" unicode="&#x431;" horiz-adv-x="1198" 
d="M551 227q66 0 123.5 60.5t93 165t35.5 211.5q0 153 -115 153q-56 0 -123 -45t-127 -127q-24 -115 -24 -194q0 -224 137 -224zM809 1042q142 0 219.5 -94.5t77.5 -282.5t-74 -350.5t-206.5 -248.5t-318.5 -86t-292 123t-106 358q0 331 131 604.5t358 376.5q140 62 639 129
l31 -258q-306 -45 -422.5 -68.5t-215 -87.5t-155.5 -285h2q134 170 332 170z" />
    <glyph glyph-name="afii10067" unicode="&#x432;" horiz-adv-x="1174" 
d="M635 682q182 0 182 139q0 48 -33 74.5t-86 26.5q-85 0 -155 -65t-109 -175h201zM391 412q0 -105 45.5 -163.5t132.5 -58.5t133 43t46 110t-48.5 99.5t-160.5 32.5h-146l-2 -31v-32zM1051 338q0 -106 -58.5 -187.5t-168 -126t-257.5 -44.5q-227 0 -352 117t-125 327
t76.5 371.5t218 252.5t327.5 91t294 -81.5t108 -219.5q0 -217 -242 -273v-4q179 -50 179 -223z" />
    <glyph glyph-name="afii10068" unicode="&#x433;" horiz-adv-x="981" 
d="M422 -20q-200 0 -301 83.5t-101 233.5q0 230 160.5 291.5t260.5 95.5t143 59t43 84q1 86 -117 86t-270 -75l-74 213q182 88 376 88t291 -78.5t97 -235.5q0 -220 -163 -285t-254 -97t-139 -58.5t-48 -81.5q0 -100 139 -100t330 90v-227q-173 -86 -373 -86z" />
    <glyph glyph-name="afii10069" unicode="&#x434;" horiz-adv-x="1231" 
d="M539 225q106 0 179.5 112t106.5 329q-20 66 -64.5 109.5t-115.5 43.5q-115 0 -183.5 -110.5t-68.5 -296.5q0 -88 38 -137.5t108 -49.5zM1165 928q0 -284 -80 -503t-223.5 -332t-345.5 -113t-314 116t-112 314t60.5 341t171 221.5t251.5 78.5q185 0 281 -183h6l2 36v30
q0 207 -62 302t-202 95q-106 0 -203 -41l-63 238q127 49 313 49q520 0 520 -649z" />
    <glyph glyph-name="afii10070" unicode="&#x435;" horiz-adv-x="1141" 
d="M536 -20q-214 0 -330 113t-116 319t82 378q82 170 224 260q140 90 318 89q178 1 277 -81t99 -224q0 -186 -167 -288t-477 -102h-51l-2 -21v-20q-1 -91 51 -143t144 -53q92 0 162 19q71 19 172 67v-227q-172 -86 -386 -86zM801 827q-1 95 -97 95t-174 -80t-102 -195h45
q155 1 241 49t87 131z" />
    <glyph glyph-name="afii10072" unicode="&#x436;" horiz-adv-x="1966" 
d="M115 -20q-77 0 -135 12l47 239q53 -8 79 -8q84 0 149.5 64t101.5 175.5t36 223.5q0 210 -137 209q-45 0 -121 -27v244q76 27 178 27q175 0 276 -114t101 -318v-27l-2 -27h166l100 465h289l-100 -465h157q57 227 203 356.5t348 129.5q71 0 136 -13l-52 -239q-53 8 -80 8
q-125 0 -205.5 -136t-80.5 -343q0 -96 36 -144.5t91 -48.5t131 27v-244q-73 -26 -178 -26q-177 0 -277 111.5t-100 314.5v45h-172l-96 -451h-289l96 451h-152q-57 -223 -199.5 -347t-344.5 -124z" />
    <glyph glyph-name="afii10073" unicode="&#x437;" horiz-adv-x="1073" 
d="M418 -20q-245 0 -393 75v248q176 -88 362 -88q258 0 258 145q0 117 -176 117h-176l45 211h125q140 0 198 29.5t58 97.5q0 98 -145 98t-324 -79l-72 219q224 86 428 86t309 -71t105 -206q0 -208 -260 -278v-6q190 -56 190 -231t-143.5 -271t-388.5 -96z" />
    <glyph glyph-name="afii10074" unicode="&#x438;" horiz-adv-x="1237" 
d="M410 346q0 -123 108 -123q92 0 167 114t118 318l98 463h301l-237 -1118h-230l21 207h-6q-145 -227 -355 -227q-138 0 -211 82t-73 239q0 93 24 213l127 604h301l-137 -653q-16 -68 -16 -119z" />
    <glyph glyph-name="afii10075" unicode="&#x439;" horiz-adv-x="1237" 
d="M410 346q0 -123 108 -123q92 0 167 114t118 318l98 463h301l-237 -1118h-230l21 207h-6q-145 -227 -355 -227q-138 0 -211 82t-73 239q0 93 24 213l127 604h301l-137 -653q-16 -68 -16 -119zM739 1241q-414 0 -414 311q0 24 5 47h266l-2 -26v-21q0 -139 170 -139
q98 0 152 44t77 142h272q-34 -133 -98 -207q-129 -150 -428 -151z" />
    <glyph glyph-name="afii10076" unicode="&#x43a;" horiz-adv-x="1184" 
d="M907 1118h344l-479 -561l277 -557h-338l-256 545l-117 -545h-301l239 1118h302l-111 -520z" />
    <glyph glyph-name="afii10077" unicode="&#x43b;" horiz-adv-x="1260" 
d="M789 893q-45 0 -90 -31.5t-82 -101.5t-91 -228t-87 -248.5t-105 -197t-244 -106.5q-89 0 -149 24v248q37 -16 85 -16t88 52.5t78 163.5q102 303 158 408t155 192t363 87q198 0 346 -58l-227 -1081h-301l188 885q-40 8 -85 8z" />
    <glyph glyph-name="afii10078" unicode="&#x43c;" horiz-adv-x="1620" 
d="M1231 807q-28 -62 -69 -136t-83 -153l-276 -518h-232l-63 504q-24 203 -31 307l-170 -811h-284l239 1118h406l59 -477q11 -84 15.5 -156t9.5 -143q91 211 137 291l270 485h428l-235 -1118h-293z" />
    <glyph glyph-name="afii10079" unicode="&#x43d;" horiz-adv-x="1262" 
d="M580 1118l-93 -430h349l90 430h301l-238 -1118h-301l96 461h-346l-98 -461h-303l239 1118h304z" />
    <glyph glyph-name="afii10080" unicode="&#x43e;" horiz-adv-x="1198" 
d="M1108 694q0 -209 -70 -372q-70 -162 -204 -252q-133 -90 -322 -90q-190 0 -306 118t-116 321q0 205 72 371t206 258q136 92 324 91q188 0 302 -118t114 -327zM805 696q0 197 -143 197q-74 0 -134 -61t-98 -179t-37 -243q0 -185 150 -185q75 -1 135 61t94 172t33 238z" />
    <glyph glyph-name="afii10081" unicode="&#x43f;" horiz-adv-x="1237" 
d="M829 772q0 123 -108 123q-92 0 -167 -114t-118 -318l-98 -463h-301l237 1118h230l-21 -207h6q146 228 355 228q138 1 214 -83t75 -239q0 -73 -23 -180l-133 -637h-301l137 653q16 68 16 119z" />
    <glyph glyph-name="afii10082" unicode="&#x440;" horiz-adv-x="1219" 
d="M692 895q-68 1 -132 -67t-102 -180t-38 -221q0 -204 139 -204q67 0 128 69q61 70 99 190t37 237q0 176 -131 176zM813 1139q147 1 231 -107t84 -300t-68 -368t-188 -280q-119 -104 -262 -104q-83 0 -143 37t-111 126h-8q-12 -159 -43 -295l-72 -340h-301l342 1610h230
l-17 -170h9q138 191 317 191z" />
    <glyph glyph-name="afii10083" unicode="&#x441;" horiz-adv-x="989" 
d="M498 -20q-192 0 -300 108t-108 311t74 377t210 268q134 94 312 95q178 0 324 -72l-92 -229q-54 23 -106 40t-128 17t-144 -64q-68 -63 -106 -175t-39 -224q0 -209 172 -209q76 -1 141 23t134 59v-246q-152 -79 -344 -79z" />
    <glyph glyph-name="afii10084" unicode="&#x442;" horiz-adv-x="1853" 
d="M1112 911q142 228 374 228q120 0 192 -85t71 -237q0 -76 -23 -180l-133 -637h-301l138 653q16 68 16 119q0 123 -98 123q-92 0 -166 -112t-119 -318l-96 -465h-301l137 653q16 68 16 119q0 123 -98 123q-92 0 -167 -114t-118 -318l-98 -463h-301l237 1118h230l-21 -207h6
q146 228 360 228t257 -228h6z" />
    <glyph glyph-name="afii10085" unicode="&#x443;" horiz-adv-x="1063" 
d="M467 307h6q20 51 44 119t65 154l260 538h327l-680 -1278q-177 -332 -483 -332q-90 0 -147 19v240q68 -13 134 -13q142 0 247 197l26 49l-164 1118h295l56 -518q14 -122 14 -293z" />
    <glyph glyph-name="afii10086" unicode="&#x444;" horiz-adv-x="1563" 
d="M1167 642q0 105 -45.5 168.5t-124.5 78.5l-141 -664q191 27 251 169.5t60 247.5zM397 480q0 -106 43 -174t129 -81l144 668q-192 -12 -254 -159.5t-62 -253.5zM1473 656q0 -192 -120.5 -411.5t-547.5 -262.5l-96 -474h-291l104 484q-202 23 -317 147.5t-115 314.5
t127 417.5t545 254.5l90 430h287l-90 -432q204 -30 314 -153t110 -315z" />
    <glyph glyph-name="afii10087" unicode="&#x445;" horiz-adv-x="1087" 
d="M379 573l-225 545h321l115 -334l244 334h354l-467 -561l244 -557h-326l-125 342l-264 -342h-350z" />
    <glyph glyph-name="afii10088" unicode="&#x446;" horiz-adv-x="1270" 
d="M410 346q0 -123 108 -123q92 0 167 114t118 318l98 463h301l-162 -764q-6 -30 -6 -53q0 -65 62 -65q39 0 90 14l-137 -651h-279l96 401q-97 45 -129 180h-2q-142 -200 -340 -200q-137 0 -213 82.5t-76 238.5q0 68 29 213l127 604h301l-137 -653q-16 -68 -16 -119z" />
    <glyph glyph-name="afii10089" unicode="&#x447;" horiz-adv-x="1219" 
d="M467 709q0 -127 119 -127q98 0 161.5 98.5t108.5 310.5l27 127h301l-238 -1118h-301l64 303l43 180h-7q-128 -141 -292 -141q-135 0 -212 86t-77 236q0 79 29 213l51 241h301l-62 -291q-16 -68 -16 -118z" />
    <glyph glyph-name="afii10090" unicode="&#x448;" horiz-adv-x="1853" 
d="M1036 346q0 -123 99 -123q93 0 167 115t117 317l99 463h301l-238 -1118h-229l20 207h-6q-145 -227 -359 -227t-257 227h-7q-145 -227 -358 -227q-133 0 -206 83t-73 238q0 73 23 180l133 637h301l-137 -653q-16 -68 -16 -119q0 -123 98 -123q92 0 165 110.5t120 319.5
l96 465h301l-137 -653q-17 -70 -17 -119z" />
    <glyph glyph-name="afii10091" unicode="&#x449;" horiz-adv-x="1886" 
d="M1036 346q0 -123 99 -123q93 0 167 115t117 317l99 463h301l-162 -764q-6 -30 -6 -53q0 -65 61 -65q41 0 90 14l-137 -651h-279l97 401q-103 47 -129 184h-2q-145 -204 -340 -204q-219 0 -262 227h-7q-145 -227 -358 -227q-133 0 -206 83t-73 238q0 73 23 180l133 637
h301l-137 -653q-16 -68 -16 -119q0 -123 98 -123q92 0 165 110.5t120 319.5l96 465h301l-137 -653q-17 -70 -17 -119z" />
    <glyph glyph-name="afii10092" unicode="&#x44a;" horiz-adv-x="1380" 
d="M631 306q0 -50 38.5 -83t114.5 -33t127.5 44.5t51.5 117.5q0 123 -150 123q-70 0 -160 -18q-22 -101 -22 -151zM930 686q148 0 242 -82.5t94 -211.5t-97 -270.5t-438 -141.5q-195 0 -297 83t-102 244q0 70 24 180l88 402h-352l49 229h652l-99 -454q88 22 236 22z" />
    <glyph glyph-name="afii10093" unicode="&#x44b;" horiz-adv-x="1645" 
d="M1372 0h-301l238 1118h301zM406 310q0 -120 124 -120q62 0 107 46.5t45 119.5q0 119 -125 119q-57 0 -131 -18q-20 -89 -20 -147zM687 686q122 0 209 -82t87 -209t-57.5 -219t-167.5 -144t-262 -52q-390 0 -390 325q0 87 23 189l135 624h301l-98 -454q98 22 220 22z" />
    <glyph glyph-name="afii10094" unicode="&#x44c;" horiz-adv-x="1153" 
d="M586 475q-70 0 -160 -18q-23 -103 -23 -153t39 -82t115 -32t127 45t51 117q0 123 -149 123zM702 686q148 0 242 -83t94 -212t-96.5 -270t-437.5 -141q-195 0 -297.5 83.5t-102.5 243.5q0 65 25 180l135 631h301l-98 -454q87 22 235 22z" />
    <glyph glyph-name="afii10095" unicode="&#x44d;" horiz-adv-x="989" 
d="M596 705q0 91 -43.5 140.5t-112.5 49.5t-115.5 -16t-103.5 -43l-80 221q163 82 353 82t297.5 -117t107.5 -331t-72.5 -375t-210.5 -248.5t-310 -87.5t-275 55v252q133 -64 248 -64t185 58.5t103 181.5h-372l43 203h356l2 19v20z" />
    <glyph glyph-name="afii10096" unicode="&#x44e;" horiz-adv-x="1710" 
d="M1186 893q-68 0 -123 -65t-89 -181t-34 -237q0 -185 137 -185q64 0 119 62.5t88 174t33 234.5q0 197 -131 197zM1620 695q0 -210 -67.5 -373t-195 -252.5t-311.5 -89.5t-292.5 113t-108.5 315v53h-207l-98 -461h-303l239 1118h304l-93 -430h193q57 214 195.5 332.5
t334.5 118.5t303 -117t107 -327z" />
    <glyph glyph-name="afii10097" unicode="&#x44f;" horiz-adv-x="1192" 
d="M684 903q-79 0 -125.5 -43.5t-46.5 -107.5q0 -131 147 -131h93l59 282h-127zM647 416q-57 0 -98 -40t-97 -160t-133 -178t-178 -58t-161 24v248q40 -16 80 -16q66 0 112 79l31 51q64 109 159 138q-157 65 -157 239t127.5 274.5t355.5 100.5h467l-235 -1118h-302l91 416
h-62z" />
    <glyph glyph-name="uni0450" unicode="&#x450;" horiz-adv-x="1141" 
d="M536 -20q-214 0 -330 113t-116 319t82 378q82 170 224 260q140 90 318 89q178 1 277 -81t99 -224q0 -186 -167 -288t-477 -102h-51l-2 -21v-20q-1 -91 51 -143t144 -53q92 0 162 19q71 19 172 67v-227q-172 -86 -386 -86zM801 827q-1 95 -97 95t-174 -80t-102 -195h45
q155 1 241 49t87 131zM384 1569h311q36 -148 115 -303v-25h-184q-166 161 -242 307v21z" />
    <glyph glyph-name="afii10071" unicode="&#x451;" horiz-adv-x="1141" 
d="M536 -20q-214 0 -330 113t-116 319t82 378q82 170 224 260q140 90 318 89q178 1 277 -81t99 -224q0 -186 -167 -288t-477 -102h-51l-2 -21v-20q-1 -91 51 -143t144 -53q92 0 162 19q71 19 172 67v-227q-172 -86 -386 -86zM801 827q-1 95 -97 95t-174 -80t-102 -195h45
q155 1 241 49t87 131zM919 1540q133 0 133 -108q0 -72 -40 -116t-120 -44q-135 0 -135 110q0 158 162 158zM355 1382q1 78 43 118t119 40q133 0 133 -108q0 -72 -39 -116t-121 -44q-135 0 -135 110z" />
    <glyph glyph-name="afii10099" unicode="&#x452;" horiz-adv-x="1237" 
d="M831 1077q140 0 214.5 -84t74.5 -237q0 -79 -22 -181l-146 -692q-41 -192 -141.5 -283.5t-263.5 -91.5q-104 0 -174 25v242q61 -21 118 -21t103.5 40.5t64.5 129.5l142 668q16 68 16 119q0 123 -106 123q-92 0 -166.5 -113.5t-118.5 -319.5l-88 -401h-301l252 1196h-160
l43 199h160l35 161h301l-33 -161h299l-43 -199h-297q-38 -187 -82 -289h8q135 170 311 170z" />
    <glyph glyph-name="afii10100" unicode="&#x453;" horiz-adv-x="981" 
d="M422 -20q-200 0 -301 84t-101 233q0 230 251 327q70 26 170 60t129 51q57 33 57 92q1 86 -117 86t-270 -75l-74 213q182 88 376 88q194 -1 291 -79t97 -235q0 -221 -252 -321q-74 -30 -165 -61q-91 -32 -123 -50q-64 -35 -64 -90q0 -100 139 -100t330 90v-227
q-173 -86 -373 -86zM1042 1569v-17q-46 -56 -154 -152t-194 -159h-209v25q79 88 222 303h335z" />
    <glyph glyph-name="afii10101" unicode="&#x454;" horiz-adv-x="989" 
d="M498 -20q-192 0 -300 108t-108 316t75.5 381.5t209 263.5t311.5 90t324 -72l-92 -229q-54 23 -106 40t-130 17t-148 -57.5t-104 -171.5h367l-43 -203h-359l-2 -24v-23q0 -193 174 -193q76 0 141 23.5t134 58.5v-246q-152 -79 -344 -79z" />
    <glyph glyph-name="afii10102" unicode="&#x455;" horiz-adv-x="969" 
d="M366 -20q-214 0 -343 65v248q157 -90 319 -90q80 1 131 33t51 82t-37 83q-37 34 -145 94q-108 59 -155 127q-48 68 -48 160q1 170 111 264t313 93q203 0 365 -95l-99 -215q-140 84 -258 84q-57 1 -92 -25t-35 -67t32 -71t138 -83q216 -110 215 -298q-1 -189 -125 -289
t-338 -100z" />
    <glyph glyph-name="afii10103" unicode="&#x456;" horiz-adv-x="608" 
d="M338 0h-301l237 1118h301zM504 1556q149 0 149 -120q0 -80 -44 -130t-136 -49q-151 0 -151 123q0 88 48 132t134 44z" />
    <glyph glyph-name="afii10104" unicode="&#x457;" horiz-adv-x="608" 
d="M338 0h-301l237 1118h301zM690 1540q133 0 133 -108q1 -72 -39 -116t-121 -44q-135 0 -135 110q0 158 162 158zM126 1382q0 78 42 118t120 40q133 0 133 -108q0 -72 -39 -116t-121 -44q-135 0 -135 110z" />
    <glyph glyph-name="afii10105" unicode="&#x458;" horiz-adv-x="608" 
d="M506 1556q149 0 149 -120q0 -80 -44 -130t-136 -49q-151 0 -151 123q0 88 48 132t134 44zM-90 -492q-104 0 -174 25v242q61 -21 114 -21q137 0 173 170l253 1194h302l-265 -1239q-77 -371 -403 -371z" />
    <glyph glyph-name="afii10106" unicode="&#x459;" horiz-adv-x="1767" 
d="M1206 475q-69 0 -159 -18q-23 -105 -23 -153t38 -81t114 -33t128 44.5t52 117.5q0 123 -150 123zM96 -20q-89 0 -155 24v248q37 -16 86 -16t87.5 51.5t73.5 163.5l43 135q81 251 152 356t173 151t284 46t338 -58l-91 -417q108 22 218 22q165 0 259.5 -82t94.5 -212
t-96.5 -271t-438.5 -141q-195 0 -297 83t-102 244q0 73 25 180l90 402l-45 4q-67 0 -111.5 -32t-80 -99.5t-105.5 -291.5t-121.5 -311.5t-121.5 -133t-159 -45.5z" />
    <glyph glyph-name="afii10107" unicode="&#x45a;" horiz-adv-x="1767" 
d="M1206 475q-69 0 -159 -18q-23 -105 -23 -153t38 -81t114 -33t128 44.5t52 117.5q0 123 -150 123zM1305 686q165 0 259.5 -82t94.5 -212t-96.5 -271t-438.5 -141q-195 0 -297 83t-102 244q0 61 20 154h-294l-99 -461h-303l240 1118h303l-92 -430h295l90 430h301l-99 -454
q116 22 218 22z" />
    <glyph glyph-name="afii10108" unicode="&#x45b;" horiz-adv-x="1237" 
d="M831 1077q141 0 215 -84t74 -237q0 -79 -22 -181l-121 -575h-301l125 592q16 68 16 119q0 123 -106 123q-93 0 -169 -116t-118 -317l-86 -401h-301l254 1196h-162l43 199h160l35 161h301l-33 -161h299l-43 -199h-299q-38 -164 -80 -289h8q135 170 311 170z" />
    <glyph glyph-name="afii10109" unicode="&#x45c;" horiz-adv-x="1184" 
d="M907 1118h344l-479 -561l277 -557h-338l-256 545l-117 -545h-301l239 1118h302l-111 -520zM1181 1569v-17q-46 -56 -154 -152t-194 -159h-209v25q79 88 222 303h335z" />
    <glyph glyph-name="uni045D" unicode="&#x45d;" horiz-adv-x="1237" 
d="M410 346q0 -123 108 -123q92 0 167 114t118 318l98 463h301l-237 -1118h-230l21 207h-6q-145 -227 -355 -227q-138 0 -211 82t-73 239q0 93 24 213l127 604h301l-137 -653q-16 -68 -16 -119zM419 1569h311q36 -148 115 -303v-25h-184q-166 161 -242 307v21z" />
    <glyph glyph-name="afii10110" unicode="&#x45e;" horiz-adv-x="1063" 
d="M467 307h6q20 51 44 119t65 154l260 538h327l-680 -1278q-177 -332 -483 -332q-90 0 -147 19v240q68 -13 134 -13q142 0 247 197l26 49l-164 1118h295l56 -518q14 -122 14 -293zM630 1241q-414 0 -414 311q0 24 5 47h266l-2 -26v-21q0 -139 170 -139q99 0 153 44t76 142
h272q-34 -133 -98 -207q-129 -150 -428 -151z" />
    <glyph glyph-name="afii10193" unicode="&#x45f;" horiz-adv-x="1237" 
d="M410 346q0 -123 108 -123q92 0 167 114t118 318l98 463h301l-237 -1118h-230l21 207h-6q-145 -227 -355 -227q-137 0 -213 82.5t-76 238.5q0 68 29 213l127 604h301l-137 -653q-16 -68 -16 -119zM596 -41h49l-96 -451h-281l76 345z" />
    <glyph glyph-name="uni0460" unicode="&#x460;" horiz-adv-x="2097" 
d="M1548 1235q-79 0 -190 -76l-105 217q165 105 361 105t307 -126.5t111 -392.5t-140.5 -624t-578.5 -358q-248 0 -348 184q-73 -103 -154 -143.5t-209 -40.5q-224 0 -348.5 148t-124.5 411q0 397 184 669.5t508 272.5q185 0 307 -103l-133 -217l-36 26q-68 48 -140 48
q-104 0 -191.5 -94.5t-137.5 -255t-50 -346.5q0 -299 195 -299q89 0 144 54t83 173l53 248h304l-39 -193q-19 -84 -19 -144t36.5 -99t109.5 -39q248 0 330.5 267.5t82.5 469.5q0 258 -172 258z" />
    <glyph glyph-name="uni0461" unicode="&#x461;" horiz-adv-x="1700" 
d="M242 0l-140 1118h295l58 -600q8 -84 14 -246l274 492l-32 354h290l32 -659q7 -111 7 -187q136 163 221 359.5t148 486.5h309q-67 -355 -216 -628.5t-392 -489.5h-291l-37 416h-4l-217 -416h-319z" />
    <glyph glyph-name="uni0462" unicode="&#x462;" horiz-adv-x="1286" 
d="M586 254q140 0 212 58.5t72 164.5q0 170 -192 170h-109l-84 -393h101zM1180 492q0 -237 -158 -364.5t-457 -127.5h-438l240 1124h-244l49 230h242l43 202h305l-43 -202h291l-49 -230h-291l-47 -223h67q238 0 364 -104.5t126 -304.5z" />
    <glyph glyph-name="uni0463" unicode="&#x463;" horiz-adv-x="1235" 
d="M668 475q-70 0 -160 -18q-23 -103 -23 -153t39 -82t115 -32t127 45t51 117q0 123 -149 123zM783 686q148 0 242.5 -82t94.5 -212t-96.5 -271t-437.5 -141q-195 0 -297.5 83.5t-102.5 243.5q0 68 25 185l86 397h-236l48 229h239l43 201h301l-45 -201h287l-47 -229h-289
l-49 -225q86 22 234 22z" />
    <glyph glyph-name="uni0464" unicode="&#x464;" horiz-adv-x="1817" 
d="M1267 240q131 0 355 77v-260q-187 -77 -423 -77t-374.5 149.5t-138.5 415.5l4 86h-198l-134 -631h-305l309 1462h306l-121 -573h188q82 281 274.5 438.5t442.5 157.5t446 -105l-118 -250q-168 97 -310 97t-251 -89t-164 -249h530l-53 -254h-528q-7 -35 -7 -86
q0 -150 69.5 -229.5t200.5 -79.5z" />
    <glyph glyph-name="uni0465" unicode="&#x465;" horiz-adv-x="1536" 
d="M940 416q0 -193 192 -193q99 0 257 82v-246q-154 -79 -345 -79t-299 108t-108 305q0 38 4 70h-203l-98 -463h-303l239 1118h304l-93 -430h191q66 213 211 332t333 119t334 -72l-92 -229q-53 22 -105 39.5t-125 17.5t-139.5 -54.5t-105.5 -152.5h359l-48 -225h-358l-2 -24
v-23z" />
    <glyph glyph-name="uni0466" unicode="&#x466;" horiz-adv-x="1370" 
d="M870 868q-27 243 -34 369q-53 -123 -177 -369h211zM721 0h-281l135 631h-47l-329 -631h-322l809 1468h373l188 -1468h-282l-68 631h-49z" />
    <glyph glyph-name="uni0467" unicode="&#x467;" horiz-adv-x="1188" 
d="M723 629q-29 188 -39 289l-147 -289h186zM895 1118l188 -1118h-278l-57 422h-37l-80 -422h-271l97 422h-41l-234 -422h-307l657 1118h363z" />
    <glyph glyph-name="uni0468" unicode="&#x468;" horiz-adv-x="1892" 
d="M1182 868h211q-27 218 -35 369q-42 -99 -176 -369zM1487 0l-68 631h-49l-127 -631h-280l135 631h-47l-330 -631h-322l346 631h-262l-133 -631h-297l309 1462h297l-120 -573h350l319 579h373l188 -1468h-282z" />
    <glyph glyph-name="uni0469" unicode="&#x469;" horiz-adv-x="1712" 
d="M1239 688l-31 230l-116 -230h147zM1266 461h-25l-86 -461h-270l104 461h-28l-254 -461h-308l271 461h-264l-99 -461h-270l237 1118h273l-92 -430h348l254 430h362l189 -1118h-279z" />
    <glyph glyph-name="uni046A" unicode="&#x46a;" horiz-adv-x="1495" 
d="M813 881l260 323h-405zM928 635h-8l-125 -635h-310l131 635h-8q-55 0 -98.5 -39.5t-83.5 -134.5l-195 -461h-317l252 541q68 145 154 215t227 96l-223 473l28 137h1184l-27 -143l-440 -481q121 -36 177.5 -128t68.5 -266l33 -444h-299l-23 455q-5 96 -28.5 138t-69.5 42z
" />
    <glyph glyph-name="uni046B" unicode="&#x46b;" horiz-adv-x="1186" 
d="M621 680l186 231h-291zM-102 0l184 371q61 125 130 188.5t191 89.5l-196 365l22 104h988l-21 -104l-354 -369q80 -31 121 -99t61 -227l37 -319h-254l-23 307q-6 73 -22.5 105t-48.5 39l-92 -451h-267l103 455q-47 -3 -75 -31t-54 -84l-160 -340h-270z" />
    <glyph glyph-name="uni046C" unicode="&#x46c;" horiz-adv-x="2017" 
d="M1130 635q-57 0 -97 -38.5t-81 -131.5l-198 -465h-318l213 457q50 111 109 174h-266l-134 -631h-305l309 1462h306l-121 -573h508l-209 436l28 137h1184l-26 -143l-441 -481q94 -38 161.5 -104t84.5 -290l33 -444h-299l-23 455q-5 96 -28 138t-70 42h-8l-125 -635h-309
l131 635h-9zM1335 881l258 323h-403z" />
    <glyph glyph-name="uni046D" unicode="&#x46d;" horiz-adv-x="1696" 
d="M1130 680l187 231h-291zM408 0l163 332q43 88 93 129h-258l-99 -461h-270l237 1118h273l-92 -430h438l-176 326l22 104h987l-20 -104l-354 -369q83 -32 123 -102t59 -224l37 -319h-254l-23 307q-9 130 -71 144l-93 -451h-266l103 455q-47 -3 -75 -31t-54 -84l-160 -340
h-270z" />
    <glyph glyph-name="uni046E" unicode="&#x46e;" horiz-adv-x="1221" 
d="M446 1747h166q107 -112 154 -174q80 89 153 146t179 57q60 0 102 -17v-149q-34 10 -72 10t-85 -33.5t-128 -120.5q130 -33 207.5 -120.5t77.5 -202.5q0 -169 -109.5 -266.5t-306.5 -110.5v-4q146 -17 228 -100.5t82 -215.5t-59.5 -226t-187 -152t-309.5 -80t-249.5 -40.5
t-67.5 -78.5q0 -74 119 -74l301 10q122 0 152 -41v-229q-41 41 -146 41l-373 -8q-165 0 -259.5 76t-94.5 202t48 197t154 115.5t277 69.5t244 54t106 71.5t33 122.5q0 164 -319 163h-141l51 242h127q383 0 383 200q0 72 -47.5 113t-141.5 41q-170 0 -360 -123l-109 209
q188 120 373 149q-50 104 -152 252v25z" />
    <glyph glyph-name="uni046F" unicode="&#x46f;" horiz-adv-x="1073" 
d="M645 367q0 110 -176 110h-176l45 211h131q141 0 195.5 29.5t54.5 97.5q0 98 -145 98t-324 -79l-72 219q141 52 258 71q-41 80 -125 203v25h166q107 -112 154 -174q81 90 154 146t178 56q62 0 102 -16v-150q-37 11 -73 11t-74.5 -24.5t-100.5 -86.5q203 -63 203 -252
q0 -208 -260 -278v-6q190 -56 190 -226q0 -224 -176.5 -290.5t-348.5 -84.5t-214.5 -40.5t-42.5 -65.5t35.5 -59.5t97.5 -16.5l277 10q118 0 149 -41v-229q-41 41 -145 41l-344 -8q-164 0 -247 77t-83 221q0 292 430 341q140 16 197.5 33.5t83.5 47t26 79.5z" />
    <glyph glyph-name="uni0470" unicode="&#x470;" horiz-adv-x="1671" 
d="M967 434h-21l-92 -434h-285l95 434h-15q-223 0 -347 104t-124 287q0 89 23 197l94 440h295l-101 -479q-14 -68 -14 -117q-1 -98 55 -139t168 -41h17l164 776h284l-164 -776h17q146 0 222 69t110 224l102 483h297l-111 -518q-109 -510 -669 -510z" />
    <glyph glyph-name="uni0471" unicode="&#x471;" horiz-adv-x="1655" 
d="M1264 1118h301q0 -416 -78 -650t-239 -354q-161 -121 -412 -143l-99 -463h-288l98 463q-209 21 -319 120t-109 269q0 70 16 150l129 608h299l-129 -616q-14 -62 -14 -130t46 -112t132 -49l285 1343h288l-284 -1339q197 33 287 249t90 654z" />
    <glyph glyph-name="uni0472" unicode="&#x472;" horiz-adv-x="1495" 
d="M872 1227q-120 0 -222 -91.5t-163 -256.5h633l2 51q0 139 -65 218t-185 79zM692 240q125 0 231 100.5t158 280.5h-645q-4 -28 -4 -84q0 -147 67.5 -222t192.5 -75zM1432 926q0 -271 -99 -494.5t-271 -337.5t-412 -114t-383.5 147t-143.5 411t99 486.5t272.5 341.5
t415.5 119t382 -144t140 -415z" />
    <glyph glyph-name="uni0473" unicode="&#x473;" horiz-adv-x="1198" 
d="M811 696q0 205 -149 205q-75 0 -136.5 -61.5t-97.5 -171.5h383v28zM544 219q76 0 138 62t96 176h-389l-2 -29v-20q0 -91 40.5 -140t116.5 -49zM1108 694q0 -209 -70.5 -372t-203.5 -252.5t-322 -89.5t-305.5 117.5t-116.5 321.5t71.5 370.5t207 258t323.5 91.5t302 -118
t114 -327z" />
    <glyph glyph-name="uni0474" unicode="&#x474;" horiz-adv-x="1331" 
d="M1314 1475q88 0 159 -29v-248q-53 19 -107 19t-99 -45t-96 -144l-526 -1028h-334l-127 1462h295l51 -848q6 -98 6 -172t-6 -137h7q54 165 110 277l230 481q92 191 151 265.5t128.5 110.5t157.5 36z" />
    <glyph glyph-name="uni0475" unicode="&#x475;" horiz-adv-x="1118" 
d="M1054 1126q80 0 136 -26v-238q-42 19 -78 19t-67 -24t-53.5 -65t-428.5 -792h-323l-138 1118h295l48 -633l5 -117l-1 -59h6q32 89 92 215l137 281q66 137 117 199.5t112 92t141 29.5z" />
    <glyph glyph-name="uni0476" unicode="&#x476;" horiz-adv-x="1331" 
d="M1314 1475q88 0 159 -29v-248q-53 19 -107 19t-99 -45t-96 -144l-526 -1028h-334l-127 1462h295l51 -848q6 -98 6 -172t-6 -137h7q54 165 110 277l230 481q92 191 151 265q58 74 128 111q70 36 158 36zM719 1907h283q37 -152 114 -303v-25h-155q-166 161 -242 307v21z
M338 1907h283q38 -156 115 -303v-25h-156q-166 161 -242 307v21z" />
    <glyph glyph-name="uni0477" unicode="&#x477;" horiz-adv-x="1118" 
d="M1054 1126q80 0 136 -26v-238q-42 19 -78 19t-68 -24q-30 -24 -52 -65t-429 -792h-323l-138 1118h295l48 -633l5 -117l-1 -59h6q32 89 92 215l137 281q66 137 117 199t113 92q60 30 140 30zM553 1569h283q37 -152 114 -303v-25h-155q-166 161 -242 307v21zM172 1569h283
q38 -156 115 -303v-25h-156q-166 161 -242 307v21z" />
    <glyph glyph-name="uni0478" unicode="&#x478;" horiz-adv-x="2542" 
d="M434 557q0 -317 254 -317q120 0 220 87t156 246t56 357q0 142 -65 220t-185 77q-120 1 -220 -91t-158 -252t-58 -327zM1432 926q0 -270 -99 -494t-271 -338t-412 -114t-384 148t-143 410q0 264 99 486t273 342q173 119 415 119t382 -144t140 -415zM1946 307h6
q20 51 44 119t65 154l260 538h327l-680 -1278q-177 -332 -483 -332q-90 0 -147 19v240q68 -13 134 -13q142 0 247 197l26 49l-164 1118h295l56 -518q14 -122 14 -293z" />
    <glyph glyph-name="uni0479" unicode="&#x479;" horiz-adv-x="2173" 
d="M1108 694q0 -209 -70 -372q-70 -162 -204 -252q-133 -90 -322 -90q-190 0 -306 118t-116 321q0 205 72 371t206 258q136 92 324 91q188 0 302 -118t114 -327zM805 696q0 197 -143 197q-74 0 -134 -61t-98 -179t-37 -243q0 -185 150 -185q75 -1 135 61t94 172t33 238z
M1577 307h6q20 51 44 119t65 154l260 538h327l-680 -1278q-177 -332 -483 -332q-90 0 -147 19v240q68 -13 134 -13q142 0 247 197l26 49l-164 1118h295l56 -518q14 -122 14 -293z" />
    <glyph glyph-name="uni047A" unicode="&#x47a;" horiz-adv-x="1550" 
d="M736 328q78 0 112 -66q151 53 239.5 218.5t88.5 405.5t-164 316q-51 -69 -135 -69t-115 71q-150 -56 -239 -223.5t-89 -378.5q0 -268 170 -340q54 66 132 66zM1487 886q0 -242 -81.5 -439t-228.5 -313.5t-343 -143.5q-28 -115 -142 -115q-62 0 -94.5 30.5t-32.5 86.5
q-212 40 -327 199.5t-115 396.5t84.5 431.5t231.5 310.5t341 145q29 110 148 110t123 -112q206 -39 321 -192t115 -395z" />
    <glyph glyph-name="uni047B" unicode="&#x47b;" horiz-adv-x="1296" 
d="M609 311q76 0 106 -63q87 41 137.5 151t50.5 261t-86 204q-43 -82 -127 -82t-112 78q-84 -49 -134.5 -161.5t-50.5 -255.5t94 -195q46 63 122 63zM1206 657q0 -273 -132.5 -450.5t-373.5 -216.5q-25 -101 -133 -101q-54 0 -84 27.5t-32 75.5q-168 35 -264.5 156
t-96.5 303q0 279 136.5 459.5t377.5 217.5q28 76 122 76t116 -76q169 -32 266.5 -157t97.5 -314z" />
    <glyph glyph-name="uni047C" unicode="&#x47c;" horiz-adv-x="2097" 
d="M645 240q184 0 365 225q41 -88 103 -156.5t187 -68.5t218 96t147.5 268t54.5 373q0 258 -172 258q-79 0 -190 -76l-105 217q165 105 361 105t307 -127t111 -369q0 -306 -90 -534t-252.5 -349.5t-383.5 -121.5t-348 153q-86 -86 -168.5 -119.5t-187.5 -33.5
q-224 0 -348.5 148t-124.5 418t84 485t241 332.5t355 117.5t319 -103l-133 -217l-36 26q-67 48 -153 48t-173 -89.5t-140 -253t-53 -353.5q0 -299 205 -299zM1053 1585q135 27 135 93q0 30 -9 37.5t-31 17.5t-37 24.5t-15 48.5q0 95 125 95q71 0 114 -40.5t43 -105.5
q0 -112 -79 -182.5t-246 -79.5v92zM1587 1874q-105 0 -201 37t-140 54t-85 17t-66.5 -25.5t-39.5 -84.5h-193q14 156 92.5 236.5t208.5 80.5q62 0 121.5 -19t118 -41.5t118.5 -41.5t124 -19h34l-41 -194h-51z" />
    <glyph glyph-name="uni047D" unicode="&#x47d;" horiz-adv-x="1710" 
d="M825 1270q136 26 136 92q0 30 -9.5 38t-31.5 18t-37 24.5t-15 48.5q0 94 125 94q72 0 115 -41t43 -104q0 -119 -83.5 -186.5t-242.5 -75.5v92zM1360 1559q-105 0 -201 37t-140.5 54t-84.5 17q-80 0 -107 -111h-192q14 156 92.5 237t208.5 81q62 0 121 -19t118 -41.5
t118.5 -41.5t123.5 -19h35l-41 -194h-51zM1317 702q0 211 -129 211q-59 0 -146 -41l-59 205q132 62 272 62q180 0 272.5 -110.5t92.5 -322.5t-71.5 -383.5t-197 -257t-297.5 -85.5t-278 110q-135 -110 -310 -110t-275.5 112.5t-100.5 324.5t107.5 467t447.5 255
q142 0 244 -62l-86 -205q-59 41 -133 41t-138 -61t-101.5 -171.5t-37.5 -250.5q0 -223 152 -223q115 0 260 141q89 -141 221 -141t211.5 142t79.5 353z" />
    <glyph glyph-name="uni047E" unicode="&#x47e;" horiz-adv-x="2097" 
d="M1688 1858l-19 -89l-115 -172h-69l-27 103h-131l-67 -103h-70l-27 103h-131l-67 -103h-70l-41 172l18 89h816zM1548 1235q-79 0 -190 -76l-105 217q165 105 361 105t307 -126.5t111 -392.5t-140.5 -624t-578.5 -358q-248 0 -348 184q-73 -103 -154 -143.5t-209 -40.5
q-224 0 -348.5 148t-124.5 411q0 397 184 669.5t508 272.5q185 0 307 -103l-133 -217l-36 26q-68 48 -140 48q-104 0 -191.5 -94.5t-137.5 -255t-50 -346.5q0 -299 195 -299q89 0 144 54t83 173l53 248h304l-39 -193q-19 -84 -19 -144t36.5 -99t109.5 -39q248 0 330.5 267.5
t82.5 469.5q0 258 -172 258z" />
    <glyph glyph-name="uni047F" unicode="&#x47f;" horiz-adv-x="1700" 
d="M1403 1511l-19 -88l-114 -172h-70l-24 103h-132l-69 -103h-70l-24 103h-131l-70 -103h-70l-39 172l19 88h813zM242 0l-140 1118h295l58 -600q8 -84 14 -246l274 492l-32 354h290l32 -659q7 -111 7 -187q136 163 221 359.5t148 486.5h309q-67 -355 -216 -628.5
t-392 -489.5h-291l-37 416h-4l-217 -416h-319z" />
    <glyph glyph-name="uni0480" unicode="&#x480;" horiz-adv-x="1253" 
d="M908 1227q-138 0 -244 -84t-168 -246t-62 -348q0 -309 283 -309q110 0 256 36l-162 -768h-305l102 474q-232 14 -358.5 161t-126.5 407t103 482t276.5 337.5t405.5 115.5t427 -105l-118 -250q-171 97 -309 97z" />
    <glyph glyph-name="uni0481" unicode="&#x481;" horiz-adv-x="989" 
d="M90 410q0 192 74.5 366t209 268.5t312.5 94.5t324 -72l-92 -229q-54 23 -106 40t-128 17t-144 -64t-106.5 -175.5t-38.5 -239.5q0 -193 176 -193q100 0 205 45l-162 -760h-301l107 476q-156 20 -243 127t-87 299z" />
    <glyph glyph-name="uni0482" unicode="&#x482;" horiz-adv-x="1247" 
d="M588 432l284 -166l-71 -123l-285 164l-180 -313l-129 74l180 315l-283 164l70 123l287 -164l198 346l-284 164l71 125l285 -164l182 313l127 -73l-182 -316l287 -164l-74 -123l-283 164z" />
    <glyph glyph-name="uni0483" unicode="&#x483;" horiz-adv-x="1096" 
d="M997 1485q99 0 99 -108q0 -55 -36 -95.5t-97 -40.5h-441q-34 -94 -123 -94q-98 -1 -98 111q0 52 36 92.5t99 40.5h441q31 94 120 94z" />
    <glyph glyph-name="uni0484" unicode="&#x484;" horiz-adv-x="1137" 
d="M383 1436q117 0 259 60t241 60t161 -60t62 -171q0 -49 -8 -86h-183l3 31q0 80 -78 80q-42 0 -86.5 -17t-147 -54.5t-244.5 -37.5h-43l41 195h23z" />
    <glyph glyph-name="uni0485" unicode="&#x485;" horiz-adv-x="1135" 
d="M602 1433q0 85 52.5 138t124.5 53t99 -27t27 -61t-17 -53.5t-48 -33.5t-45.5 -27.5t-14.5 -39.5q0 -56 92 -79v-84q-124 8 -197 68.5t-73 145.5z" />
    <glyph glyph-name="uni0486" unicode="&#x486;" horiz-adv-x="1135" 
d="M909 1479q0 -245 -338 -262v92q73 14 110.5 38t37.5 66q0 17 -9 25t-31 18t-37 25t-15 49q0 94 125 94q71 0 114 -41t43 -104z" />
    <glyph glyph-name="uni0488" unicode="&#x488;" horiz-adv-x="2025" 
d="M244 653q98 0 155.5 -51t63.5 -143h-80q-5 45 -35 66.5t-103 21.5t-98 -19.5t-30 -68.5h-76q5 90 55 142t148 52zM1772 653q92 0 149.5 -52t63.5 -142h-80q-5 44 -35 66t-103 22t-98.5 -20t-30.5 -68h-75q11 194 209 194zM422 1141q98 0 155.5 -51t63.5 -144h-80
q-5 45 -35 66.5t-103 21.5t-98 -19.5t-30 -68.5h-76q5 90 55 142.5t148 52.5zM1576 1141q98 0 155 -51t63 -144h-80q-5 45 -35 66.5t-103 21.5t-98 -19.5t-30 -68.5h-76q5 90 55.5 142.5t148.5 52.5zM422 154q98 0 155.5 -51t63.5 -144h-80q-5 45 -35 66.5t-103 21.5
t-98 -19.5t-30 -68.5h-76q5 90 55 142.5t148 52.5zM1576 154q98 0 155 -51t63 -144h-80q-5 45 -35 66.5t-103 21.5t-98 -19.5t-30 -68.5h-76q5 90 55.5 142.5t148.5 52.5zM996 -125q98 0 155 -51t63 -143h-79q-5 44 -35 66t-104 22t-98.5 -20.5t-29.5 -67.5h-75
q5 89 55 141.5t148 52.5zM1001 1425q93 0 149.5 -50.5t63.5 -143.5h-79q-5 44 -35 66t-104 22t-98.5 -20.5t-29.5 -67.5h-75q11 194 208 194z" />
    <glyph glyph-name="uni0489" unicode="&#x489;" horiz-adv-x="1958" 
d="M1565 -211q-101 163 -199 297l98 98l17 -2q93 -164 151 -323zM324 1202l67 70q123 -198 199 -297l-98 -98l-17 2q-82 140 -151 323zM307 -123l-69 68q177 110 297 198l98 -98l-2 -16q-155 -89 -324 -152zM1651 1186l69 -68q-177 -110 -297 -198l-98 98l2 16
q149 87 324 152zM377 442q-152 39 -336 123v97q221 -53 350 -70v-139zM1581 662q178 -48 336 -123v-97q-221 53 -350 70v139zM870 1155q48 178 123 336h97q-52 -220 -70 -350h-139zM1090 -49q-39 -152 -123 -336h-97q53 221 70 350h139z" />
    <glyph glyph-name="uni048A" unicode="&#x48a;" horiz-adv-x="1681" 
d="M977 1573q-414 0 -414 311q0 25 4 47h267l-3 -47q0 -139 170 -139q100 0 154 45.5t76 140.5h272q-34 -133 -130.5 -245.5t-395.5 -112.5zM971 0q190 903 229 1061l-8 2l-764 -1063h-375l309 1462h281l-147 -692q-65 -282 -84 -352h10l764 1044h370l-253 -1196h305
l-312 -692h-346l262 426h-241z" />
    <glyph glyph-name="uni048B" unicode="&#x48b;" horiz-adv-x="1288" 
d="M750 1241q-424 0 -424 311q0 25 4 47h266l-2 -26v-21q0 -139 170 -139q99 0 152.5 44t76.5 142h273q-50 -194 -178 -276t-338 -82zM395 -20q-137 0 -213 82.5t-76 238.5q0 68 29 213l127 604h301l-137 -653q-16 -68 -16 -119q0 -123 108 -123q92 0 167 114t118 318
l98 463h301l-190 -895h252l-273 -624h-303l217 401h-188l20 180h-2q-142 -200 -340 -200z" />
    <glyph glyph-name="uni048C" unicode="&#x48c;" horiz-adv-x="1212" 
d="M512 254q139 0 212 58.5t73 164.5q0 170 -193 170h-108l-84 -393h100zM1106 492q0 -237 -158 -364.5t-456 -127.5h-439l226 1057h-150l55 254h146l32 151h306l-33 -151h248l-56 -254h-245l-33 -156h67q240 0 365 -105t125 -304z" />
    <glyph glyph-name="uni048D" unicode="&#x48d;" horiz-adv-x="1157" 
d="M596 475q-70 0 -160 -18q-22 -101 -22 -151t38 -83t114 -33t127.5 45t51.5 117q0 123 -149 123zM712 686q148 0 242.5 -82.5t94.5 -211.5t-97 -270.5t-438 -141.5q-195 0 -297 83t-102 244q0 70 24 180l140 648h-158l41 198h160l47 223h301l-49 -223h303l-41 -198h-305
l-101 -471q87 22 235 22z" />
    <glyph glyph-name="uni048E" unicode="&#x48e;" horiz-adv-x="1188" 
d="M578 774q43 0 84 6l-52 113l170 82l49 -105q54 63 54 158q0 180 -195 180h-74l-92 -434h56zM700 1462q490 0 490 -426q0 -291 -238 -426l62 -129l-174 -82l-68 144q-103 -23 -219 -23h-86l-109 -520h-305l309 1462h338z" />
    <glyph glyph-name="uni048F" unicode="&#x48f;" horiz-adv-x="1219" 
d="M692 895q-70 0 -132 -65t-101 -185.5t-39 -228.5t34.5 -150.5t82.5 -42.5h12l-55 121l170 82l49 -104q52 75 81 182t29 215q0 176 -131 176zM813 1139q146 0 230.5 -107.5t84.5 -307.5t-78 -386t-208 -279l55 -127l-174 -82l-61 132l-52 -2q-83 0 -143 37t-111 126h-8
q-12 -159 -43 -295l-72 -340h-301l342 1610h230l-17 -170h9q138 191 317 191z" />
    <glyph glyph-name="afii10050" unicode="&#x490;" horiz-adv-x="1030" 
d="M901 1462l66 310h272l-117 -564h-512l-256 -1208h-301l309 1462h539z" />
    <glyph glyph-name="afii10098" unicode="&#x491;" horiz-adv-x="948" 
d="M961 870h-439l-184 -870h-301l237 1118h461l64 305h278z" />
    <glyph glyph-name="uni0492" unicode="&#x492;" horiz-adv-x="1030" 
d="M535 850h309l-56 -254h-309l-125 -596h-301l127 596h-151l55 254h149l129 612h814l-54 -254h-512z" />
    <glyph glyph-name="uni0493" unicode="&#x493;" horiz-adv-x="948" 
d="M1014 1118l-53 -248h-439l-47 -217h262l-49 -235h-262l-88 -418h-301l90 418h-139l49 235h139l98 465h740z" />
    <glyph glyph-name="uni0494" unicode="&#x494;" horiz-adv-x="1364" 
d="M598 559q-73 0 -127 -12l-117 -547h-301l309 1462h814l-54 -254h-512l-86 -409q80 20 168 20q151 0 324.5 -107t173.5 -456q0 -223 -83.5 -403t-231 -272.5t-327.5 -92.5t-302 49v260q129 -51 281 -51t252 133t100 321q0 359 -281 359z" />
    <glyph glyph-name="uni0495" unicode="&#x495;" horiz-adv-x="1174" 
d="M981 186q0 -211 -109 -449.5t-483 -238.5q-149 0 -231 43v271q96 -54 229 -54t211 108t78 296q0 113 -44.5 174t-131.5 61q-47 0 -82 -14l-80 -383h-301l237 1118h740l-53 -248h-439l-53 -247q51 18 131 18q179 0 280 -122t101 -333z" />
    <glyph glyph-name="uni0496" unicode="&#x496;" horiz-adv-x="1882" 
d="M1339 0l-274 719l-152 -719h-292l151 717l-555 -717h-342l619 780l-279 682h303l266 -684l146 684h293l-146 -684l537 684h328l-582 -723l196 -493h209l-143 -672h-303l92 426h-72z" />
    <glyph glyph-name="uni0497" unicode="&#x497;" horiz-adv-x="1966" 
d="M1649.5 759q-80.5 -136 -80.5 -336q-1 -200 153 -200q76 0 156 33l-137 -657h-279l92 391q-134 27 -208 134t-74 282v45h-172l-96 -451h-289l96 451h-152q-57 -223 -199.5 -347t-344.5 -124q-77 0 -135 12l47 239q53 -8 79 -8q84 0 149.5 64t101.5 175.5t36 223.5
q0 210 -137 209q-45 0 -121 -27v244q76 27 178 27q175 0 276 -114t101 -318v-27l-2 -27h166l100 465h289l-100 -465h157q57 227 203 356.5t348 129.5q71 0 136 -13l-52 -239q-53 8 -80 8q-125 0 -205.5 -136z" />
    <glyph glyph-name="uni0498" unicode="&#x498;" horiz-adv-x="1221" 
d="M1200 1143q0 -169 -110 -267t-306 -110v-4q142 -17 226 -101t84 -215q0 -224 -161 -345q-131 -98 -358 -117q111 -111 111 -232q0 -120 -75 -182t-187 -62t-172 25v180q58 -22 112 -22q109 0 109 102q0 82 -80 188q-227 8 -352 78v263q181 -99 375 -99q194 1 280 61
t86 164t-77 148t-242 43h-141l51 242h127q383 0 383 200q1 72 -47 113t-142 41q-170 0 -360 -123l-109 209q143 91 269 127t262 35q137 0 236 -44q100 -44 154 -122t54 -174z" />
    <glyph glyph-name="uni0499" unicode="&#x499;" horiz-adv-x="1073" 
d="M1020 862q0 -208 -260 -278v-6q190 -56 190 -231t-144 -271q-113 -75 -300 -92q111 -111 111 -231q0 -121 -75 -183q-74 -62 -186 -62t-173 25v180q58 -22 112 -22q109 0 109 102q0 82 -81 190q-182 13 -298 72v248q176 -88 362 -88q258 0 258 145q0 117 -176 117h-176
l45 211h125q140 0 198 30t58 97q0 98 -145 98t-324 -79l-72 219q224 86 428 86t310 -71q104 -71 104 -206z" />
    <glyph glyph-name="uni049A" unicode="&#x49a;" horiz-adv-x="1407" 
d="M1024 246h291l-144 -672h-303l93 426h-179l-272 719l-152 -719h-305l309 1462h306l-146 -684l541 684h344l-582 -723z" />
    <glyph glyph-name="uni049B" unicode="&#x49b;" horiz-adv-x="1253" 
d="M907 1118h344l-479 -561l152 -307h245l-137 -651h-278l96 401h-139l-256 545l-117 -545h-301l239 1118h302l-111 -520z" />
    <glyph glyph-name="uni049C" unicode="&#x49c;" horiz-adv-x="1219" 
d="M1120 0h-325l-123 334l-25 -141h-143l86 413l-121 -84l-111 -522h-305l309 1462h306l-146 -684l146 185l75 358h144l-31 -141l236 282h344l-613 -721z" />
    <glyph glyph-name="uni049D" unicode="&#x49d;" horiz-adv-x="1204" 
d="M391 0h-301l240 1118h301l-111 -520l86 100l68 316h133l-25 -113l187 217h336l-478 -555l-2 -12l277 -551h-330l-125 266l-35 -176h-135l78 356l-47 101z" />
    <glyph glyph-name="uni049E" unicode="&#x49e;" horiz-adv-x="1255" 
d="M1141 0h-338l-211 592l-125 -70l-109 -522h-305l228 1073h-129l53 254h129l28 135h306l-29 -135h133l-53 -254h-135l-68 -313l582 702h360l-608 -710z" />
    <glyph glyph-name="uni049F" unicode="&#x49f;" horiz-adv-x="1163" 
d="M174 1395h160l33 161h301l-35 -161h305l-43 -199h-305l-70 -334q-26 -121 -57 -217h6l451 473h344l-498 -504l285 -614h-336l-183 420l-120 -72l-74 -348h-301l254 1196h-160z" />
    <glyph glyph-name="uni04A0" unicode="&#x4a0;" horiz-adv-x="1403" 
d="M1305 0h-338l-273 719l-151 -719h-305l254 1204h-324l53 258h631l-145 -684l540 684h344l-581 -723z" />
    <glyph glyph-name="uni04A1" unicode="&#x4a1;" horiz-adv-x="1327" 
d="M1083 1118h344l-479 -561l277 -557h-338l-256 545l-117 -545h-301l190 889h-329l49 229h631l-111 -520z" />
    <glyph glyph-name="uni04A2" unicode="&#x4a2;" horiz-adv-x="1569" 
d="M1186 246h284l-143 -672h-303l92 426h-287l134 631h-471l-134 -631h-305l309 1462h306l-121 -573h471l121 573h305z" />
    <glyph glyph-name="uni04A3" unicode="&#x4a3;" horiz-adv-x="1352" 
d="M580 1118l-93 -430h349l90 430h301l-185 -868h226l-138 -651h-278l94 401h-258l96 461h-346l-98 -461h-303l239 1118h304z" />
    <glyph glyph-name="uni04A4" unicode="&#x4a4;" horiz-adv-x="1577" 
d="M1389 1204l-254 -1204h-306l134 631h-471l-134 -631h-305l309 1462h306l-121 -573h471l121 573h614l-53 -258h-311z" />
    <glyph glyph-name="uni04A5" unicode="&#x4a5;" horiz-adv-x="1456" 
d="M580 1118l-93 -430h349l90 430h643l-49 -229h-342l-189 -889h-301l96 461h-346l-98 -461h-303l239 1118h304z" />
    <glyph glyph-name="uni04A6" unicode="&#x4a6;" horiz-adv-x="2114" 
d="M1442 819q149 0 323 -108t174 -455q0 -220 -82.5 -399.5t-228.5 -274t-328 -94.5t-305 49v260q129 -51 281 -51t252 132t100 320q0 360 -280 361q-77 0 -127 -12l-117 -547h-303l256 1204h-443l-256 -1204h-305l309 1462h1051l-139 -663q73 20 168 20z" />
    <glyph glyph-name="uni04A7" unicode="&#x4a7;" horiz-adv-x="1769" 
d="M1231 641q179 0 280 -122t101 -333t-109 -449.5t-483 -238.5q-146 0 -232 43v271q98 -54 230 -54t210.5 108t78.5 296q0 114 -45.5 174.5t-131.5 60.5q-46 0 -81 -14l-80 -383h-301l186 889h-326l-188 -889h-303l239 1118h930l-106 -495q51 18 131 18z" />
    <glyph glyph-name="uni04A8" unicode="&#x4a8;" horiz-adv-x="1495" 
d="M1137 790q0 114 -62 113q-69 0 -116.5 -111.5t-47.5 -247.5t33 -216q84 76 138.5 212t54.5 250zM1159 -84q-161 0 -274 96q-96 -32 -219 -32q-253 0 -398 146t-145 410t99 488.5t271.5 342.5t399.5 118q135 0 250 -45l-84 -240q-81 31 -166 31q-130 0 -233.5 -87
t-164.5 -252.5t-61 -331.5t67.5 -246.5t184.5 -80.5h12q-63 120 -63 300t56.5 317t159.5 211t247 74t229.5 -91.5t85.5 -263.5t-78.5 -335.5t-210.5 -272.5q24 -12 80 -12t133 26v-243q-69 -27 -178 -27z" />
    <glyph glyph-name="uni04A9" unicode="&#x4a9;" horiz-adv-x="1255" 
d="M920 561q0 76 -48 76t-77 -65t-29 -157t29 -145q54 44 89.5 129.5t35.5 161.5zM1165 568q0 -128 -60.5 -245.5t-150.5 -175.5q22 -6 70 -6t104 21v-209q-70 -25 -155 -25q-139 0 -246 90q-96 -38 -221 -38q-200 0 -308 120t-108 330t76.5 374.5t211 249.5t314.5 85
q124 0 213 -39l-71 -219q-64 20 -144 20t-149 -58t-108.5 -170t-39.5 -232t42 -176t110 -56h24q-22 37 -35.5 100t-13.5 113q0 194 96 307t247 113t226.5 -73t75.5 -201z" />
    <glyph glyph-name="uni04AA" unicode="&#x4aa;" horiz-adv-x="1253" 
d="M905 1227q-131 0 -237 -81q-106 -80 -170 -238t-64 -332t68 -255t217 -81q148 0 340 77v-260q-173 -67 -348 -76q108 -110 108 -229q0 -120 -75 -182q-74 -62 -186 -62t-173 25v180q58 -22 112 -22q109 0 109 102q0 86 -89 200q-154 31 -253 137q-141 150 -141 417
q0 269 104 489t278 334t400 115q125 -1 222 -23t208 -82l-118 -250q-106 59 -175 78t-137 19z" />
    <glyph glyph-name="uni04AB" unicode="&#x4ab;" horiz-adv-x="989" 
d="M364 -309q109 0 109 102q0 85 -87 198q-116 25 -188 97q-108 108 -108 311t74 377t210 268q134 94 312 95q178 0 324 -72l-92 -229q-54 23 -106 40t-128 17t-144 -64q-68 -63 -106 -175t-39 -224q0 -209 172 -209q76 -1 141 23t134 59v-246q-122 -64 -265 -76
q109 -111 109 -231t-75 -182t-187 -62t-172 25v180q58 -22 112 -22z" />
    <glyph glyph-name="uni04AC" unicode="&#x4ac;" horiz-adv-x="1087" 
d="M266 0l254 1204h-352l55 258h1010l-55 -258h-353l-202 -958h284l-143 -672h-303l92 426h-287z" />
    <glyph glyph-name="uni04AD" unicode="&#x4ad;" horiz-adv-x="1896" 
d="M1112 911q142 228 374 228q120 0 191.5 -85t71.5 -237q0 -74 -23 -178l-59 -285q-6 -30 -6 -53q0 -65 61 -65q41 0 90 14l-137 -651h-278l96 401q-141 49 -141 223q0 62 14 127l64 303q16 68 16 119q0 123 -98 123q-92 0 -166.5 -112t-118.5 -318l-96 -465h-301l137 653
q16 68 16 119q0 123 -98 123q-92 0 -167 -114t-118 -318l-98 -463h-301l237 1118h230l-21 -207h6q146 228 360 228t257 -228h6z" />
    <glyph glyph-name="uni04AE" unicode="&#x4ae;" horiz-adv-x="1155" 
d="M627 870l374 592h342l-618 -903l-119 -559h-303l119 559l-236 903h312z" />
    <glyph glyph-name="uni04AF" unicode="&#x4af;" horiz-adv-x="1049" 
d="M451 309h6q39 114 90 215l297 594h323l-610 -1118l-104 -492h-312l105 492l-144 1118h295l48 -632q6 -80 6 -177z" />
    <glyph glyph-name="uni04B0" unicode="&#x4b0;" horiz-adv-x="1155" 
d="M627 870l374 592h342l-618 -903l-6 -31h295l-53 -258h-297l-58 -270h-303l57 270h-284l53 258h287l6 31l-236 903h312z" />
    <glyph glyph-name="uni04B1" unicode="&#x4b1;" horiz-adv-x="1049" 
d="M446 305h7q36 109 94 219l297 594h323l-610 -1118h274l-49 -229h-274l-55 -263h-312l56 263h-258l49 229h258l-144 1118h295l45 -586q4 -57 4 -227z" />
    <glyph glyph-name="uni04B2" unicode="&#x4b2;" horiz-adv-x="1415" 
d="M793 0l-172 543l-396 -543h-342l576 764l-238 698h320l153 -518l363 518h344l-545 -725l178 -491h264l-143 -672h-303l92 426h-151z" />
    <glyph glyph-name="uni04B3" unicode="&#x4b3;" horiz-adv-x="1204" 
d="M379 573l-225 545h321l115 -334l244 334h354l-467 -561l133 -307h266l-137 -651h-278l94 401h-160l-125 342l-264 -342h-350z" />
    <glyph glyph-name="uni04B4" unicode="&#x4b4;" horiz-adv-x="1714" 
d="M1602 266l-148 -692h-303l92 426h-977l254 1204h-352l55 258h979l-53 -258h-324l-198 -946h460l256 1204h304l-254 -1196h209z" />
    <glyph glyph-name="uni04B5" unicode="&#x4b5;" horiz-adv-x="1397" 
d="M537 340q-1 -117 99 -117t175.5 115t118.5 317l98 463h301l-162 -764q-6 -30 -6 -53q0 -65 62 -65q39 0 90 14l-137 -651h-279l96 401q-97 45 -129 180h-2q-142 -200 -340 -200q-137 0 -213 80.5t-76 226.5q0 90 29 225l80 377h-250l49 229h797l-49 -229h-248l-88 -424
q-16 -68 -16 -125z" />
    <glyph glyph-name="uni04B6" unicode="&#x4b6;" horiz-adv-x="1532" 
d="M542 475q-164 0 -261 85t-97 237q0 57 13 116l112 549h305l-108 -516q-10 -46 -10 -82q0 -131 153 -131q131 0 295 74l139 655h306l-259 -1216h285l-143 -672h-303l92 426h-287l119 561q-187 -86 -351 -86z" />
    <glyph glyph-name="uni04B7" unicode="&#x4b7;" horiz-adv-x="1309" 
d="M467 709q0 -127 119 -127q98 0 161.5 98.5t108.5 310.5l27 127h301l-185 -868h226l-138 -651h-278l96 401h-260l64 303l43 180h-7q-128 -141 -292 -141q-135 0 -212 86t-77 236q0 79 29 213l51 241h301l-62 -291q-16 -68 -16 -118z" />
    <glyph glyph-name="uni04B8" unicode="&#x4b8;" horiz-adv-x="1378" 
d="M545 475q-167 0 -264 85t-97 237q0 57 13 116l112 549h305l-108 -516q-10 -46 -10 -82q0 -118 125 -131l69 328h146l-68 -316q82 18 176 62l139 655h306l-310 -1462h-305l119 561q-102 -46 -178 -65l-70 -324h-145l65 303h-20z" />
    <glyph glyph-name="uni04B9" unicode="&#x4b9;" horiz-adv-x="1237" 
d="M467 709q0 -94 72 -119l49 229h137l-47 -217q69 35 115 132.5t81 256.5l27 127h301l-237 -1118h-301l63 303l43 180h-6q-62 -68 -135 -104l-54 -250h-137l47 213q-153 0 -237 84t-84 238q0 79 29 213l51 241h301l-62 -291q-16 -68 -16 -118z" />
    <glyph glyph-name="uni04BA" unicode="&#x4ba;" horiz-adv-x="1378" 
d="M900 987q164 0 260.5 -85t96.5 -236q0 -53 -12 -117l-112 -549h-306l109 516q10 46 10 82q0 131 -153 131q-131 0 -295 -74l-140 -655h-305l309 1462h306l-119 -561q187 86 351 86z" />
    <glyph glyph-name="uni04BB" unicode="&#x4bb;" horiz-adv-x="1237" 
d="M754 410q0 127 -119 127q-98 0 -161.5 -98.5t-108.5 -311.5l-27 -127h-301l237 1118h301l-63 -303l-43 -180h6q128 141 293 141q135 0 212 -86t77 -235q0 -68 -29 -213l-51 -242h-301l61 291q17 70 17 119z" />
    <glyph glyph-name="uni04BC" unicode="&#x4bc;" horiz-adv-x="1595" 
d="M850 868q438 0 438 232q0 59 -34.5 93t-102.5 34q-128 0 -236.5 -100.5t-156.5 -258.5h92zM1178 1485q200 0 308.5 -99t108.5 -278q0 -242 -197 -366t-583 -124h-106l-2 -22v-27q0 -167 70.5 -248t224.5 -81t350 75v-258q-176 -77 -424 -77t-390.5 147t-142.5 418l4 86
q-166 8 -252 72.5t-86 179.5t74 213h252q-53 -81 -53 -131q0 -97 90 -97h10q88 295 280 456t464 161z" />
    <glyph glyph-name="uni04BD" unicode="&#x4bd;" horiz-adv-x="1354" 
d="M1014 827q0 95 -96 95t-174.5 -80t-102.5 -195h45q155 0 241.5 48.5t86.5 131.5zM749 -20q-214 0 -330 113t-116 319v41q-283 30 -283 237q0 100 58 182h213q-43 -64 -43 -120q0 -102 74 -103h12q60 231 218.5 360.5t355.5 129.5t296 -81.5t99 -223.5q0 -187 -167 -288.5
t-477 -101.5h-51l-2 -21v-20q0 -91 51 -143.5t143 -52.5t163 19t172 67v-227q-172 -86 -386 -86z" />
    <glyph glyph-name="uni04BE" unicode="&#x4be;" horiz-adv-x="1595" 
d="M61 883q0 115 74 213h252q-53 -81 -53 -131q0 -97 90 -97h10q94 300 285 458.5t459 158.5q200 0 308.5 -99t108.5 -278q0 -242 -197 -366t-583 -124h-106l-2 -22v-27q0 -167 70.5 -248t224.5 -81t350 75v-258q-134 -61 -318 -73l-86 -410h-303l94 432q-167 50 -255.5 189
t-88.5 350l4 86q-166 8 -252 72.5t-86 179.5zM850 868q438 0 438 232q0 59 -34.5 93t-102.5 34q-128 0 -236.5 -100.5t-156.5 -258.5h92z" />
    <glyph glyph-name="uni04BF" unicode="&#x4bf;" horiz-adv-x="1354" 
d="M908 1139q197 0 296 -81.5t99 -223.5q0 -187 -167 -288.5t-477 -101.5h-51l-2 -21v-20q0 -91 51 -143.5t143 -52.5t163 19t172 67v-227q-133 -67 -293 -82l-80 -385h-279l92 403q-131 39 -201.5 144t-70.5 266v41q-283 30 -283 237q0 100 58 182h213q-43 -64 -43 -120
q0 -102 74 -103h12q60 231 218.5 360.5t355.5 129.5zM1014 827q0 95 -96 95t-174.5 -80t-102.5 -195h45q155 0 241.5 48.5t86.5 131.5z" />
    <glyph glyph-name="uni04C0" unicode="&#x4c0;" horiz-adv-x="659" 
d="M53 0l312 1462h305l-312 -1462h-305z" />
    <glyph glyph-name="uni04C1" unicode="&#x4c1;" horiz-adv-x="1776" 
d="M494 780l-279 682h303l266 -684l146 684h293l-146 -684l537 684h328l-582 -723l295 -739h-316l-274 719l-152 -719h-292l151 717l-555 -717h-342zM1083 1579q-414 0 -414 311q0 24 5 47h266l-2 -26v-21q0 -139 170 -139q98 0 152 44t77 142h272q-34 -133 -98 -207
q-129 -150 -428 -151z" />
    <glyph glyph-name="uni04C2" unicode="&#x4c2;" horiz-adv-x="1966" 
d="M115 -20q-77 0 -135 12l47 239q53 -8 79 -8q84 0 150 64t101 175q36 112 36 224q0 210 -137 209q-45 0 -121 -27v244q76 27 178 27q175 0 276 -114t101 -318v-27l-2 -27h166l100 465h289l-100 -465h157q57 227 203 357t348 129q71 0 136 -13l-52 -239q-53 8 -80 8
q-125 0 -205 -136t-81 -343q0 -96 36 -144t91 -49q55 0 131 27v-244q-73 -26 -178 -26q-177 0 -277 112t-100 314v45h-172l-96 -451h-289l96 451h-152q-57 -223 -199 -347t-345 -124zM1108 1241q-414 0 -414 311q0 24 5 47h266l-2 -26v-21q0 -139 170 -139q99 0 153 44
t76 142h272q-34 -133 -98 -207q-129 -150 -428 -151z" />
    <glyph glyph-name="uni04C3" unicode="&#x4c3;" horiz-adv-x="1417" 
d="M627 545q-83 0 -160 -25l-109 -520h-305l309 1462h306l-146 -684l541 684h344l-555 -686q243 -43 317 -213t74 -315q0 -217 -83 -395t-228.5 -271.5t-327.5 -93.5t-305 49v260q121 -51 277 -51t256 133t100 344q0 322 -305 322z" />
    <glyph glyph-name="uni04C4" unicode="&#x4c4;" horiz-adv-x="1268" 
d="M1085 149q0 -188 -70.5 -337.5t-204 -231.5t-294.5 -82t-254 43v271q98 -54 228 -54t210 100t80 281q0 116 -62 182t-173 66q-70 0 -129 -25l-78 -362h-301l237 1118h301l-110 -520l442 520h344l-467 -534q143 -28 222 -137.5t79 -297.5z" />
    <glyph glyph-name="uni04C5" unicode="&#x4c5;" horiz-adv-x="1556" 
d="M82 -20q-80 0 -143 24v254q53 -20 109 -20t118.5 47t160.5 321.5t246 855.5h861l-256 -1196h305l-312 -692h-346l262 426h-268l256 1204h-272q-174 -707 -282 -907t-198.5 -258.5t-240.5 -58.5z" />
    <glyph glyph-name="uni04C6" unicode="&#x4c6;" horiz-adv-x="1350" 
d="M789 893q-45 0 -90 -31.5t-82 -101.5t-91 -228t-87 -248.5t-105 -197t-244 -106.5q-89 0 -149 24v248q37 -16 85 -16t88 52.5t78 163.5q102 303 158 408t155 192t363 87q198 0 346 -58l-180 -858h254l-272 -624h-303l217 401h-244l188 885q-40 8 -85 8z" />
    <glyph glyph-name="uni04C7" unicode="&#x4c7;" horiz-adv-x="1434" 
d="M543 -512q-170 0 -293 49v273q125 -50 266 -50t221 89t119 276l107 506h-471l-134 -631h-305l309 1462h306l-121 -573h471l121 573h305l-297 -1405q-61 -289 -207.5 -429t-396.5 -140z" />
    <glyph glyph-name="uni04C8" unicode="&#x4c8;" horiz-adv-x="1262" 
d="M477 -502q-155 0 -258 58v262q115 -60 219 -60t164 64.5t94 216.5l88 422h-346l-98 -461h-303l239 1118h304l-93 -430h349l90 430h301l-238 -1118q-53 -249 -176.5 -375.5t-335.5 -126.5z" />
    <glyph glyph-name="uni04C9" unicode="&#x4c9;" horiz-adv-x="1569" 
d="M829 0l134 631h-471l-134 -631h-305l309 1462h306l-121 -573h471l121 573h305l-254 -1196h305l-311 -692h-346l262 426h-271z" />
    <glyph glyph-name="uni04CA" unicode="&#x4ca;" horiz-adv-x="1352" 
d="M688 0l96 461h-346l-98 -461h-303l239 1118h304l-93 -430h349l90 430h301l-191 -895h254l-272 -624h-303l217 401h-244z" />
    <glyph glyph-name="uni04CB" unicode="&#x4cb;" horiz-adv-x="1378" 
d="M542 475q-164 0 -261 85t-97 237q0 57 13 116l112 549h305l-108 -516q-10 -46 -10 -82q0 -131 153 -131q131 0 295 74l139 655h306l-310 -1462h-286l-91 -426h-303l148 672h278l68 315q-187 -86 -351 -86z" />
    <glyph glyph-name="uni04CC" unicode="&#x4cc;" horiz-adv-x="1219" 
d="M467 709q0 -127 119 -127q98 0 161.5 98.5t108.5 310.5l27 127h301l-238 -1118h-282l-84 -401h-279l152 651h243l13 55q21 120 43 178h-7q-128 -141 -292 -141q-135 0 -212 86t-77 236q0 79 29 213l51 241h301l-62 -291q-16 -68 -16 -118z" />
    <glyph glyph-name="uni04CD" unicode="&#x4cd;" horiz-adv-x="1937" 
d="M618 0l-61 1133h-4q-32 -231 -82 -453l-143 -680h-275l309 1462h404l68 -1093h4l551 1093h423l-253 -1196h305l-312 -692h-346l262 426h-245l145 692q58 268 105 441h-5l-569 -1133h-281z" />
    <glyph glyph-name="uni04CE" unicode="&#x4ce;" horiz-adv-x="1714" 
d="M1059 0l172 807q-28 -62 -69 -136t-83 -153l-276 -518h-232l-63 504q-24 203 -31 307l-170 -811h-284l239 1118h406l59 -477q11 -84 15.5 -156t9.5 -143q88 203 137 291l270 485h428l-188 -895h254l-273 -624h-303l217 401h-235z" />
    <glyph glyph-name="uni04CF" unicode="&#x4cf;" horiz-adv-x="659" 
d="M53 0l312 1462h305l-312 -1462h-305z" />
    <glyph glyph-name="uni04D0" unicode="&#x4d0;" horiz-adv-x="1286" 
d="M791 1211v36q-44 -120 -109 -254l-188 -385h333l-26 350q-10 131 -10 253zM842 348h-473l-172 -348h-320l766 1468h373l147 -1468h-297zM848 1579q-414 0 -414 311q0 24 5 47h266l-2 -26v-21q0 -139 170 -139q99 0 153 44t76 142h272q-34 -133 -98 -207
q-129 -150 -428 -151z" />
    <glyph glyph-name="uni04D1" unicode="&#x4d1;" 
d="M395 399q0 -176 129 -176q69 0 133 67q64 68 103 182t39 259q-1 71 -39 117t-104 47q-66 0 -126 -72q-62 -72 -98 -190t-37 -234zM608 1139q197 0 277 -164h8l57 143h232l-238 -1118h-229l14 145h-4q-134 -165 -319 -165q-148 0 -232 106t-84 302q0 194 72 374t189 278
t257 99zM751 1241q-414 0 -414 311q0 24 5 47h266l-2 -26v-21q0 -139 170 -139q98 0 152 44t77 142h272q-34 -133 -98 -207q-129 -150 -428 -151z" />
    <glyph glyph-name="uni04D2" unicode="&#x4d2;" horiz-adv-x="1286" 
d="M791 1211v36q-44 -120 -109 -254l-188 -385h333l-26 350q-10 131 -10 253zM842 348h-473l-172 -348h-320l766 1468h373l147 -1468h-297zM1074 1878q133 0 133 -108q1 -72 -39 -116t-121 -44q-135 0 -135 110q0 158 162 158zM510 1720q0 78 42 118t120 40q133 0 133 -108
q0 -72 -39 -116t-121 -44q-135 0 -135 110z" />
    <glyph glyph-name="uni04D3" unicode="&#x4d3;" 
d="M395 399q0 -176 129 -176q69 0 133 67q64 68 103 182t39 259q-1 71 -39 117t-104 47q-66 0 -126 -72q-62 -72 -98 -190t-37 -234zM608 1139q197 0 277 -164h8l57 143h232l-238 -1118h-229l14 145h-4q-134 -165 -319 -165q-148 0 -232 106t-84 302q0 194 72 374t189 278
t257 99zM963 1540q133 0 133 -108q0 -72 -40 -116t-120 -44q-135 0 -135 110q0 158 162 158zM399 1382q1 78 43 118t119 40q133 0 133 -108q0 -72 -39 -116t-121 -44q-135 0 -135 110z" />
    <glyph glyph-name="uni04D4" unicode="&#x4d4;" horiz-adv-x="1833" 
d="M905 608l127 600h-80l-364 -600h317zM1593 0h-817l74 348h-426l-219 -348h-328l922 1462h1104l-54 -254h-512l-67 -321h477l-55 -254h-478l-79 -377h512z" />
    <glyph glyph-name="uni04D5" unicode="&#x4d5;" horiz-adv-x="1786" 
d="M1446 827q0 95 -96 95t-175 -80q-78 -80 -102 -195h45q156 1 242 49t86 131zM788 696q0 200 -134 199q-68 0 -129 -69q-60 -70 -95 -186t-35 -241q0 -176 130 -176q65 0 127 68q62 69 99 185t37 220zM1038 406q0 -199 238 -199q127 0 291 86v-227q-179 -86 -361 -86
q-110 0 -180 27t-117 87l-16 -94h-188l14 145h-6q-71 -89 -147 -127t-167 -38q-145 0 -227 109t-82 303t68 368q68 176 186 278q116 102 258 101q96 -1 160 -39t115 -125h6l57 143h188l-18 -90q44 49 120 80t169 31q157 1 247 -83t89 -222q0 -186 -167 -288t-476 -102h-52
l-2 -19v-19z" />
    <glyph glyph-name="uni04D6" unicode="&#x4d6;" horiz-adv-x="1110" 
d="M870 0h-817l309 1462h818l-54 -254h-512l-67 -321h477l-55 -254h-477l-80 -377h512zM770 1579q-414 0 -414 311q0 24 5 47h266l-2 -26v-21q0 -139 170 -139q99 0 153 44t76 142h272q-34 -133 -98 -207q-129 -150 -428 -151z" />
    <glyph glyph-name="uni04D7" unicode="&#x4d7;" horiz-adv-x="1141" 
d="M536 -20q-214 0 -330 113t-116 319t82 378q82 170 224 260q140 90 318 89q178 1 277 -81t99 -224q0 -186 -167 -288t-477 -102h-51l-2 -21v-20q-1 -91 51 -143t144 -53q92 0 162 19q71 19 172 67v-227q-172 -86 -386 -86zM801 827q-1 95 -97 95t-174 -80t-102 -195h45
q155 1 241 49t87 131zM724 1241q-414 0 -414 311q0 24 5 47h266l-2 -26v-21q0 -139 170 -139q99 0 153 44t76 142h272q-34 -133 -98 -207q-129 -150 -428 -151z" />
    <glyph glyph-name="uni04D8" unicode="&#x4d8;" horiz-adv-x="1352" 
d="M514 238q285 0 414 358h-154q-193 0 -296 -59.5t-103 -169.5q0 -60 39 -94.5t100 -34.5zM68 356q0 490 800 490h107q4 24 4 65q0 148 -71 231t-230 83t-356 -76v258q180 78 428 78t393 -147.5t145 -415.5t-101.5 -489t-276 -337t-392.5 -116t-334 98t-116 278z" />
    <glyph glyph-name="uni04D9" unicode="&#x4d9;" horiz-adv-x="1141" 
d="M609 1139q209 0 325.5 -113.5t116.5 -317.5t-80.5 -374.5t-222 -262t-320.5 -91.5t-278 81.5t-99 223.5q0 186 166.5 287.5t476.5 101.5h51l3 41q0 91 -51 143.5t-143 52.5t-163 -19t-172 -67v228q181 86 390 86zM340 291q0 -94 96 -94t174 78.5t103 195.5h-45
q-155 0 -241.5 -48.5t-86.5 -131.5z" />
    <glyph glyph-name="uni04DA" unicode="&#x4da;" horiz-adv-x="1352" 
d="M514 238q285 0 414 358h-154q-193 0 -296 -60t-103 -169q0 -61 39 -95t100 -34zM68 356q0 490 800 490h107q4 24 4 65q0 148 -71 231t-230 83t-356 -76v258q180 78 428 78t393 -148q145 -147 145 -415t-102 -489t-276 -337t-392 -116t-334 98t-116 278zM1086 1878
q133 0 133 -108q1 -72 -39 -116t-121 -44q-135 0 -135 110q0 158 162 158zM522 1720q0 78 42 118t120 40q133 0 133 -108q0 -72 -39 -116t-121 -44q-135 0 -135 110z" />
    <glyph glyph-name="uni04DB" unicode="&#x4db;" horiz-adv-x="1141" 
d="M609 1139q209 1 325 -113t117 -318q-1 -204 -81 -375q-80 -169 -222 -261t-320 -92q-179 0 -278 82t-99 223q1 185 167 287t476 102h51l3 41q0 91 -52 143t-142 53q-92 0 -163 -19t-172 -67v228q181 86 390 86zM340 291q0 -94 96 -94q96 1 174 79t103 195h-45
q-156 -1 -242 -49t-86 -131zM921 1540q133 0 133 -108q0 -72 -40 -116t-120 -44q-135 0 -135 110q0 158 162 158zM357 1382q1 78 43 118t119 40q133 0 133 -108q0 -72 -39 -116t-121 -44q-135 0 -135 110z" />
    <glyph glyph-name="uni04DC" unicode="&#x4dc;" horiz-adv-x="1776" 
d="M494 780l-279 682h303l266 -684l146 684h293l-146 -684l537 684h328l-582 -723l295 -739h-316l-274 719l-152 -719h-292l151 717l-555 -717h-342zM1330 1878q133 0 133 -108q1 -72 -39 -116t-121 -44q-135 0 -135 110q0 158 162 158zM766 1720q0 78 42 118t120 40
q133 0 133 -108q0 -72 -39 -116t-121 -44q-135 0 -135 110z" />
    <glyph glyph-name="uni04DD" unicode="&#x4dd;" horiz-adv-x="1966" 
d="M115 -20q-77 0 -135 12l47 239q53 -8 79 -8q84 0 150 64t101 175q36 112 36 224q0 210 -137 209q-45 0 -121 -27v244q76 27 178 27q175 0 276 -114t101 -318v-27l-2 -27h166l100 465h289l-100 -465h157q57 227 203 357t348 129q71 0 136 -13l-52 -239q-53 8 -80 8
q-125 0 -205 -136t-81 -343q0 -96 36 -144t91 -49q55 0 131 27v-244q-73 -26 -178 -26q-177 0 -277 112t-100 314v45h-172l-96 -451h-289l96 451h-152q-57 -223 -199 -347t-345 -124zM1360 1540q133 0 133 -108q1 -72 -39 -116t-121 -44q-135 0 -135 110q0 158 162 158z
M796 1382q0 78 42 118t120 40q133 0 133 -108q0 -72 -39 -116t-121 -44q-135 0 -135 110z" />
    <glyph glyph-name="uni04DE" unicode="&#x4de;" horiz-adv-x="1221" 
d="M478 -20q-294 0 -437 79v263q181 -99 375 -99q194 1 280 61t86 164t-77 148t-242 43h-141l51 242h127q383 0 383 200q1 72 -47 113t-142 41q-170 0 -360 -123l-109 209q143 91 269 127t262 35q137 0 236 -44q100 -44 154 -122t54 -174q0 -169 -110 -267t-306 -110v-4
q142 -17 226 -101t84 -215q0 -224 -161 -345t-455 -121zM1006 1878q133 0 133 -108q1 -72 -39 -116t-121 -44q-135 0 -135 110q0 158 162 158zM442 1720q0 78 42 118t120 40q133 0 133 -108q0 -72 -39 -116t-121 -44q-135 0 -135 110z" />
    </font>
</defs>
</svg>
